<mxfile host="Electron" modified="2024-09-05T12:08:37.666Z" agent="Mozilla/5.0 (Windows NT 10.0; Win64; x64) AppleWebKit/537.36 (KHTML, like Gecko) draw.io/22.1.18 Chrome/120.0.6099.199 Electron/28.1.2 Safari/537.36" etag="yOjwI26F-BwrmPbJK0o9" version="22.1.18" type="device">
  <diagram name="第 1 页" id="tXcixzETChTZ5b7tpQEp">
    <mxGraphModel dx="1674" dy="844" grid="1" gridSize="10" guides="1" tooltips="1" connect="1" arrows="1" fold="1" page="1" pageScale="1" pageWidth="827" pageHeight="1169" math="0" shadow="0">
      <root>
        <mxCell id="0" />
        <mxCell id="1" parent="0" />
        <mxCell id="Dj9wEhvdySlKHv6S9NUq-1" value="" style="shape=image;verticalLabelPosition=bottom;labelBackgroundColor=default;verticalAlign=top;aspect=fixed;imageAspect=0;image=data:image/png,iVBORw0KGgoAAAANSUhEUgAABH8AAAHMCAYAAABMTQT+AAAgAElEQVR4Aexd2ZHsKgztuCagjmeiuZG8vwnGr1gEEkhmMbbB1q265QWh5eggMO3u+fz333+b/lcMlAPKAeWAckA5oBxQDigHlAPKAeWAckA5oBxQDqzPgY359zGJ/Xw++l8xUA4oB5QDygHlgHJAOaAcUA4oB5QDygHlgHJAObA4B5i9n003fxZPqm7c6calckA5oBxQDigHlAPKAeWAckA5oBxQDigHlAPAAd380Y0e3cFVDigHlAPKAeWAckA5oBxQDigHlAPKAeWAcuDBHNDNnwcnF3b49Ki7vcoB5YByQDmgHFAOKAeUA8oB5YByQDmgHHgvB3TzRzd/dHdXOaAcUA4oB5QDygHlgHJAOaAcUA4oB5QDyoEHc0A3fx6cXN3Vfe+uruZec68cUA4oB5QDygHlgHJAOaAcUA4oB5QDwAHd/NHNH93dnY0D339uXP79bj+z+ab+6HhRDigHlAPKAeWAckA5oBxQDigHlAPLcWCKzR941t3Sh92f3+3Pe/j3+0PA/fn1Lf++/v7P9v33F+RNt7+/f9v3h+70/fz+ozL/8gfsGhnYPYvHn+3n+2/7A4fB779/2+83+h5iJcj/bX//vuRBP8iF+CCOn+1rYiB2TP/fLNboG/TNj8GOwSvB+AONyAe4taF7YCfkBOUxyNt4/7bfJB+u73f7h+NhdIONGY40JkhknsNuX8GAgGNNnrptaxEndWYUjmFsAF3MkeH5vtzPBmUPqyHnqU7gUnpf83xKnkfxJeqpr/eQasKHDdelCv5Azfn5br9kPsV68nkk+qtt92JxL18i95Qv9/LgjnF4E/fCXEbXkf++d2DwJJv35JOfx5jnk5D3lTG/B2Nbm/wcH2u2wRiep1fGtNf3G3KB9jhwHuD8zBoGNvDx+j/1Hkb7v+2LB3S4b3cm0OZIXMQ6cOI1DsSdR51YHZGDBe/ns9XI5JP6nn1jqcIHI8b5QR7a6ORGYrAX0uaKPBhovNFPGyM0Ih/g1u6DKxeHdzbbuDD5Dkq9ELKXYy3HcpVs6i7JA4q92x8wgHTBLWernKdu23j86fmADQKoDenY/G7u/S6aS7v5g/L++Xg5cs+PAUuKVC+MD7C7xphSvkLe8LGt3tMaQaqSn1sSTiQi9tLyDLjJCExem9/NI+XLu/OPa8fV53dxL8aZfnBy5oPT83l2Xz6leYx9dlh6jXofxmFdmU7x3DpzaYxjfdgfszfl4vWbPwgAXLBpEcAPSbA49Q8+of/f9gu7/fieedskXJsP3N2bOOZNHfcv1bMjwwyEoGb72/79/pBNKvc2UPQ9yKJFtHnTCP5B/JxcuGfsoLeJfr7xDSm8gbRPdjcoQOeff5WIFFhoRL7CrdbNH9CPN8Kcf/GBJMggezUxXC3DYcDlsNsvMIAKcbhVmadu2wy/VVftBJLLuQWpsEEDNQnxPd/8+WyiDksKXnfs48cXsqH5zPM0IyYw5rfKeh/kUa736hIn73AwCyH0xurPr9+oNLNUnMtmxOzNPoV83s2XT5zTW9cjb87fyrHfxz1fy2Eu/fsX3iKHtfTKuN7l+535BNtPzx/Eef38jl5y+MPfGPnZfn7it1Tu4t4ddu/MRRZvcObctRbsOeDj9W/+oMVC3HxACwjvXSgGodDDV7aSzSD7AAv3PIAsoCBjNnvwGygY9EQmfTgGX+y3OMoPFdEN/HpdbiOXizIRo2jPPewZoPiHwYxgPg6w8+8L+lHssTG8AQG3mjd/fuMDRMij8SHg92/7he+0oIcXye877/MYAH6eS58P/zXA7GuG7uuKYQCaryrCZiCz+VObJ/YriMQ2jC/z1Ui66+2+gkj9Ml8rTH9/KP96JP3q4p05msN2eePFcSmOOW7zx70Zx4xr25m5T2pU2Yc5sIq1TP0xWMR6Ulvva+sS4MvLc3mAWmGqVOQq6NEjh9nV9ybii/k6gf8aN8dd5cvV3Djb3v3cg1pmPhQF7pF1JpkTz8Zjdf335jPmcnUc9/y/E2OwXVo77vn/pDbAg/9qIfdsDRylz8FRT1p7eHkOw1i/qG5O9ti98MyJTm7Y/IFPt/FXnzyQf79bfBb2b+zE6h42JWKCtu3vH/yuj3lDxgEU2tED9SfZdKqRyRYuMav0K2vCZBPFYfPHfM8QfvAmDsZMLtyIMsSXsIkSNx9Ie8EfgxPEHxZsYBNtxsAtjpjQH3/aB/JGZ2hn9EntNTFcLQMxRQy4HMZCgMaWO2Xiz2TMDcRVsFmXpxrbqMiwxpmbNX4jn6/Oy3z2XB7CeGLGoBsTcUzb6wTDVCbEaUkR+4b7xI7PM8odL3dsIlGdg/GDAS9t5jP1PnQJuebqUvQzl49tNJ+ongTdkqzep9hdhEdIplAPzuYL0g8zh/n9iPQDg1uwIfXwony8yebd3AP7tjbFdQ2s/ZVzjZwHPG+ae4J5KCRmKcx8+Lh0XkOQN9TrUKv/tn/kx1bpN0qWxrel/t6Zi9TPki+p/IFrNLzC6S2bP/F3X/wniwCCKehw7h+K4DIt7uYHn8k/9BAVNh7QvRGbP5xe8C/6Ej8tzduiVNxMQK/lwWI7dKwvFjWDF9Q6LGGRz+TAkwzksa9gZw8L+wCMio774Wew52IK/SHmA8QGn844BgxQ6sIp8v3n+91+0A9ch69gBA5C/GjHGX1qKm3+xLcC5DyVbcdF0hZ+GB3dQ18dCHkBv7M8mje4IBaBn5Pm8gx+BJ0ep0ObP4A14lXQb4lYwls3fwJeK3EwFBkhv8AL9MZp6BKKETph+BPkmTaMWZDTt37Ch00YnynOQ5Ju4gviY2Sd+xr8FPisNPZX8/VW7qXrjriGSZ8PlIeVm0C35hM9+8RC4s5g/bna+OD8vRPjYDsF2FwL8wcXw1PuBTyE2NHcBjUldOEgZNZTQZ5pi3Up1i7u+TrKVY7jQn441+/Z/EGvuRuA4YHTgh3ANw+7ABBNVADXfIfRfIUp7AO5B2TQhx+oR2z+hI0ptDAOvgR0/UO69IPSf/mOa9ABZAk3aNyBEAEjoV0gAqgFUgNO9oE1NoZFL9ziyAl9McYg7x6AIXdusyOVD9cQs+BziPmmdogppNecMDm0GyL0z7K5LjCJhZxFftjYwADIId7U5qloO4wj+qYYmwPwBzgergkC4QJ8vDtP99t3C9Py5k/Mf8A/oIk2BlO+2zyUxrsfc5OPqftzNWZCHRZHGGNCfkPtiO2hC+IOW5c8j4L8DjciH6OdYTGmfNbrMM82YxySKeTpIr5Yv/EHGG98mHgbj2/kHtSnOMfGNaauQzrntBvzmdc98/MDMKEJtW3F8RaCEmI6s15ztsOHtzvrzRVxrvGZwwP3OzMXrB36TJaPic5xjW19PjCoyPGmzZ+442teF3bfhIKBgQu6/3Fj9GAcNmDwPfRwSzYy4AHWAgGfGniwAwniw1h8y0JISCAG087oi7fga198IjO5PTvm92XCV8ew77xuTCawEydKwPrf9o2NYVEKt7jNH64N7oXJGW5s+Q/zhRh2Hkaw73edxxB2cojyRUaXuQCeBpkkZ2AA5JjNn7hxyeQp6M0sR9tofMTcIx7hHIA/MHbCNaMfvYlwV37msVveeLFQojzbMYCud2NxnTf3Fp001ss+7NpIJgyVlXAefB+NYTw+Af9QK2FMohrB1Wboh49hGOOxHvKNf/ML5uHBMQZbqhfnpev8dr4kOQzkYtZFmvewnurK9Wz43cg9RDNpMfIsrK/I/Y35ZMdD8OdB81CIia+Pp87vwTbFE8ZSeFa7gmsz2Ah43JALFD/gH54PURs7Lg62cwXzts2fQPi/v82+uIMeggAY+ItQmKChn1kIw9ds0p1MkuCRf+0LNksMlMkbPOB0xwI9doUNBmrnl/y1L/iNI/vk3TTZgR3ygOFvAtb4YSJibQZK/GX4+JfT6M4x6I/5ihtujnxx4yPoZh9GksXlQeIfGUwQE8Yl0wdC5itV3tfsa1+IkwEf/Kkpw/+qPNXYPrL5E/ymk0eGwY05msUXlwoBJ49jyD1s4qK878ZhlQu6A/a6+bOLYcBpnvri/G2v9zDsd+sSindPPrThORX1XRPT2XI80p8b+WL+Gtw/+ldjwmdR+uZP03pszXF1H/dineIeZdrXw2viP7KOGF335dP8AZh/yV+gijmOa+n183QjxuhbNmHtGdb0/AbI+njvjZE7c+H9ugF/rmLetvkT//KTdwtvAsQKYBvJQzACLg8oPhwlKqIoslMjkw8E/DWzqDaexaIV9CObub74FhRZyO/Gafaeoh1OJ3cP/CF4kuKfTqCFWJMHV9Afigz+hNoAhHB41ObPXq4QRoBP5Ao6Y+Sq8lRlOxY8rJPNQXAy8ivcQu660yjD8e1992CzM8EFcoRybLCx+Cf3RMxsEmJ94+V8ntE44+X2JkdtuwUz4Eg2xvyNpN6HMVmZa1G+YBfXi1tw0U0ofkOhkLd0fSDmX8BXlN+zW8lF5dHiNXaPA6ZcnVWrMq7y6xrlVyO/7srnjl38DPGIfO7Eamf4E8dMqOXp2qJ27ZmNu0Z+zdb/xlwYLsd8JM8JJ+KUpt5c37f5k2w60EUmPEQZFxmA7I5x+KEfG9efGTzwJpAF8Wf7jT8G5N7U+Y1vr7iCUiPDEd38ZZV/5icWyD/jA35LJyS5sCgS5cybIf/8m1FgyfzeTOdf1gA7FGv8J9jpBg1gZH5cm4bK+wD6SeH+wptK9MGV3Xg4kfy9EwjEhDeuOF32z61DjsxbYfDn7kmBTfhmOeu5juTAZm2eyrb5RRKbAzBOxp37WgjlgAmWGZsT5pDL15n3AoSBD/QNObA9avMn5BHZc6eaH8B6iWNDvQ8cK8wtELcoX1gIZTVIxze/GXMHLnfwxWxaf80n9qjYcL+BdwceavM6bt7EPahn7siva6gMt37XexlGd+XTPsvhWkKfoTI/Vx7jd2H8Sdfvf9vfv5f/dca7coHWW+Q5+WReoxEWTm/c/NEC/KjCdjJ5FSsdL8oB5YByQDmgHFAOKAeUA8oB5YByQDmgHChzIOz4oBPd/Fl+0wK/JYUyS071DQAtEOUCoRgpRsoB5YByQDmgHFAOKAeUA8oB5YByYH0OkO0Af6GbP7r5c92rwstjvX4R0EKuOVQOKAeUA8oB5YByQDmgHFAOKAeUA8/mgG7+6OaDbvQoB5QDygHlgHJAOaAcUA4oB5QDygHlgHJAOfBgDujmz4OTqzu3z9651fxqfpUDygHlgHJAOaAcUA4oB5QDygHlgHKghgO6+aObP7q7qxxQDigHlAPKAeWAckA5oBxQDigHlAPKAeXAgzkgbv5wDXpPEXgiAmaXVP9dj4Difj3mb7CovHpDlvtjVH70Y6c9HQLKIWXCSgi8ka9vjHklTrb6qvlsRUyWl7C0P/gsd9MWReBZCEgD4VlRzheN4j5fTp7gkfLqCVk8Lwblx3nYvkWzcugtmX5GnG/k6xtjfgZb+Sg0nzwuPXclLHXzpwdN7bMsAtJAWDagRRxX3BdJ1GJuKq8WS9jF7io/Lgb8geaUQw9M6oNDeiNf3xjzgylsv4L25PiujE0aG7r5c2UW1NbtCEgD4XbHHu6A4v7wBN8UnvLqJuAXMav8WCRRE7upHJo4OepahsAb+frGmLPEP+iG5nNcMiUsdfNnHMaqaQEEpIGwgOtLu6i4L52+aZ1XXk2bmikcU35MkYalnVAOLZ2+1zn/Rr6+MeYnE1vzOS67Epa6+TMOY9W0AALSQFjA9aVdVNyXTt+0ziuvpk3NFI4pP6ZIw9JOKIeWTt/rnH8jX98Y85OJrfkcl10JS938GYexaloAAWkgLOD60i4q7kunb1rnlVfTpmYKx5QfU6RhaSeUQ0un73XOv5Gvb4z5ycTWfI7LroTlqZs/f78/2+fzs/3+pYH8276fz/b5+d2ypr/f7efz2X58J6fjI+gBvV4f6gct1Udv1wAV/3+3f0hB9AXJfLHEtm3/vqKvVf2Rvd1Ta8f4QX10fRwegKG9Z+U5WdOay0dfufyBZ8dwjzY8nimWYGbgURoIA01Uq8riN9wTMfjbfn8cTpJIpk8SrPZwnOBMuLNRseM28htqQg5pzIuT2RsvrOUt5m2vb/SFjGtQydQvIsfGB51N2WLqsa8xRE/sMsXZtLwq4C2Dt8+nyJW+OUi2i1pKXNr2fUSabj+dlh+NyJTy7tq5+uHrxulrrVif5FrZGPQk4k/hUBOcbP2qyfHx2sByvbC2Z/vkk3UTBKsKH+YrU//T54wqvFkOOVSr+jck4HDMDbZU9HwENJ/jMJawPHXzZ/NFJHt4CMWFWawkBQMXiUyPx6dGZg9K++Dz+WzpXGH1okVTeg2bJmQTK/Hf2YUJMY0XJlNpU0b2Gsecbxg4vQQv65dkJ5fH+oke5FKNDBInp64vxsNjkSaB9Dp+IQ2E45rbNVgMEL9YPoFan7+veUhnMLoLT3CvdJwJd9bXbNy6MYuhzuuEH9c4h6a24WvWGL1ZM472ZHK/jH7nWxi7WXzUh2zzB2o0BoB2meJqWl4V8ObBK/OpqmZ02XYelblU9pGP7Z670/KjEY5i3m9dazlO4FLB86gx6EnEn8KhJjizGlKT4zG1wc11yVoV5qNsbvU2sw+Z+9fWTThNKHyEr9K4TetPes2uXTMOGbDOydeRmCdM4etd0nyOo4CE5bmbPzDQk4LtCscPecMHQk0fQmAi+LVvESUTgu3kisnP7699myg87IDCwtHpx5sQcoe84G3+U3vUnyl4uzZgUsMrJ9mF0EJxQfatRL6Z495I4vAzHXJ5qp/rdwT33J7xAmwm71KFmEecSANhhO5WHTZebmxkCxn/ZobhiOVXmo/78KyNeSbcWZ+ZcZvJZQ9YPO5Zv8IN4H1XjbN+5xvXmclCfLTuurjIpnamcI4b0/KqgDePXplPVTWjyza8tVriUtlHPrZ77k7Lj0Y4ynn3D1XcfPJzw1orq5WNAU8k/hQONUFaU0OyHI+pDTAfZuvAzB6sGdP1r4/Uy3MfljVhsZhwL18d7gKWCQblegTzCdW3a+NAvnpjTsLSy0kQ0HyOS4SE5cmbP1Cc6cOqfdD4/rqvsZBNj3zyCBOBLwxE3OATJqm8bxk+v2DKlPI9uYIX7fs+wR/QUbbhdtspRtBbOgZc2A02Bgvrl2Qjlw/6z8B9V2fp4UNCpO6+NBDqeo+VquKTNeny42ia5wresMtobHN+Lp61iMyEO+tzNm4ZKc/buMHscnF0cdk/1vgHPsZzVCfZVvS1L6+T/Top3/fOu9PyqoZPGXBlPlXVjC7btVwq+5iFdeONafnRiElN3kMdQbpvW2tltRI5tdjpUzjUBHtNDclyPKY2cDwG3+la+Zy1Ndha9djH1zKWGI+aepQ9G8GzSrZQjZppfuP90llfzCWt2n4XAprPcchLWJ6++ZM/mLoJwoz/rMjbyYTbKTabFnxxcosb8xmB0xsfzCrAyyav/T5cwXMxIJ+zSbPsV6Zj3w3bSrCzNvFDPmPTynRs/pyBe4aRD9jnY2duqEBmX0QaCPu9zmmt4pMxneTOch5/wnsjnrXIzIQ767OEIRa2MnicQQ0zv7+CagDuU3Eex3JrjXPjvGrzqRAfcOrXfK1wkY0fA+20vCrgLdHCcUHmU1XN6LJdz6WSj1Jsd9yflh+NYFTlPZs/XU5vWWsxtbIx5GnEn8KhJkBragiT4xG1weng16quDeZaZp2bBEnlk8aHXnbxdeFnIZPGrpgfmv8nhKX5HJdFCcvzN3/8pkx4QLEThi/syWKFK/rkXjohkf7liSCDk/R3rc4e+jFN9JBt29A1bGyF2IwKwce9TSlnEya0zEv2BsHFmsUPbQwWGPdMYy5P9AsxuU2avG+mPr2R6oN2Jh/QNOooDYRR+lv0VPGJ23xL8UuvwYkL8ARTpeNMuLO+ShgGYcdz9qtQHmcTY88mUP9Yaxh7hfjcJ26+7uEaF+Kf82RaXhXw3kVzh09VNaPLdgOXjPM7Pu7GdnHjtPxoxKEq79OstXZqZWPcM4g/hUNNWBZryE6OD9YGMh+mTmO/vJ3Ra+vU5GrXXXz1WOIPXl0e5n8WMvnpinm1xL7IX83nuGRLWF6w+WP2Q+JfkqGLGPdJtyve/KfedCKgC1Sqi7ZVQVeYPLDfRl9WDLm/QIAnJ+tE2S8aY5XnwltT8FfSGJvWL/7TFO6tKeoT1XcY9wwjHzMzAdWhUS8lDYR6DeMkq/jEYkLzkW04gotsX2i89jgT7mzkEie9sNscKWzQerxb35zpH2uOB2TzmQ2O2ZRO5EKtgxjwKjCRnelyWl7t8cm2oUW19KYV5AK1V9WMPdti8hq4hHUwPuLmu8+n5UcjMFV5hw+B/Oat7RM2cq9ba1XVysb47xR/CoeaMCzUkKocd9YGOh9Sr10bzMPJOoiK2qs9XYz4I2518dXnStpIC+sDj5DDFc9h8OyBIMw4dF6+umJGrurpXAhoPsflQ8Lyks2f+HCKFyAuuFhUXGFInznS4u0mHbOJkRaS9LoGPNdHeniKvjld1pewmBL0ZwWP39TCvVM7uE06T3Excu6emRgZLDK/kGZf+DH2qf6huDP2rDd7PiJ3j5xKA+GIzt6+NXxyeaCTrInB/effoAv+XIBnsFU4mQl31tUdrBz3YcHJ9o43rR761bDYyJ/1jzVfW0o1yZjdic81xw16J9sWAx/Z+Xen5VUB72pkEj7V1IxSrnnbDVxKFSQ+ps13Xk/Lj0ZQqvJudAbe3bPWaqqVjRjcJf4UDjXhF3iU92rKcUdtSOdD7EFch5q756ytsb0Vz/v4uu6zkMlRX8wrZvcdPms+x+VZwvKazZ+wUeP+IhfeZAiLld8v+1sT2UQAGwffVJ7Z8KjAz+nnH+zsRIMerKoWYMykuTtZFnbcpRAyXKwgFPBv/pfPALfsTyjgBWO0lumH/kNw53OV2YzuDDuTBsIwAw2KynzaWdyQRdV9eNaGOxPurM/MuDVybuw2bITAOOHGGWsYNm3RW3mgo2KsuTFT4Z8QH7iU1rrdmgWdJjhOy6sC3tXQARc8n8o1g6/nNfaquZQqS3xMm++8npYfjaBU5d3qhLng+rVWc61sxOAu8adwqAk/oX4157ijNrg6hOZDcNzrwm+n7M5TjDyoevKxl68O9/WehUwue2N+Mg9Wjk3zOS57EpYXbf7Eh6j8KxF+w8K8zUB2hVzw+UTgH4gzeVj0/DWiFvVR8/7+gM0f+FpVFrufnNjfESlEkePiO9hJ270ZgidJ08pOlOADDT7/Whl8yjII98yXiyZqaSAU4D6l2eYQ8Ssz4nOZpMaL+XHjG+/CM/NZuDET7qyLzGLXjbGdjRXTh+QPagmzcGWNupv5WAY9aU3kalyUTXliOBFqABMfdsnyZ0AsWOcV59PyqoA3i00Fn4o1wyjusW0dquBShY9sbDfdnJYfjXhU5d3rdHOBWQOkdei8tVaxVjbGO5P4UzjUhClTQ4o5HlQbnJ2Eu7BOJXOUiQg4XSvfhMKSwv18leq/v4+wr6pHDIfOyld/zEum+PFOaz7HpVjC8rLNH5g4uA0eWKyEBxUUNzcRgC76sMM9GCFFpVNbqODrNP6Iip3p3l/wnHGI0yQD/nMxl1wNvmSLO2qH4uPaADuwb46yHJ1QoS+V78c9xaMXixq8QMbEO8u/Ep8cPjQH2Pe0/Q48sT975zPhzvqZLVRgURnHahwz8dMxGBOhLakZrK3kptNB8wx6a8cayAc/0t8j4+obkrHcSX2HBTd1IvH+3stpeVXAW0Ity2OSE9ue3Mt0ZVzOJHZvZD4gnpiOWXvJn11r5zZOy4/GsKvy7nWG/DDjFuYIbq51/XrqUF2tbAx5GvGncKgJ0KyG1OU4cA/WuB21IdPhdTF0DiEBr8X5L0g+/+QwX7m5K8mjzVFyL0M241CUGJ2vwzFH1/RsAgQ0n+OSIGF52ebPuFBUkyLQj4A0EPo1as8aBBT3GpRUphUB5VUrYu+SV368K99nRKscOgNV1XkWAm/k6xtjPos/M+jVfI7LgoSlbv6Mw1g1LYCANBAWcH1pFxX3pdM3rfPKq2lTM4Vjyo8p0rC0E8qhpdP3OuffyNc3xvxkYms+x2VXwvKhmz97r6jC1zjo683joD6iaVW/Ieb5/ZcGAkSgx3MQeB/u84+FczJ9rdb38aoV33fzUPnRyheVTxFQDqWI9Fy/uw71INbb5418fWPMvfxYoZ/mc1yWJCwfuvkzDjjV9CwEpIHwrCjni0Zxny8nT/BIefWELJ4Xg/LjPGzfolk59JZMPyPON/L1jTE/g618FJpPHpeeuxKWuvnTg6b2WRYBaSAsG9AijivuiyRqMTeVV4sl7GJ3lR8XA/5Ac8qhByb1wSG9ka9vjPnBFLZ/EOnJ8V0ZmzQ27OaPadT/ioFyQDmgHFAOKAeUA8oB5YByQDmgHFAOKAeUA8qBtTnAbTbpmz8cKnrvsQiYIqb/rkdAcb8e8zdYVF69Icv9MSo/+rHTng4B5ZAyYSUE3sjXN8a8EidbfdV8tiImy0tY6uaPjJm2PBABaSA8MNSpQlLcp0rHY5xRXj0mlacEovw4BdZXKVUOvSrdywf7Rr6+MebliboTgOZzB5zGJglL3fxpBFLF10ZAGghrRzW/94r7/Dla0UPl1YpZu85n5cd1WD/VknLoqZl9Zlxv5OsbY34me11Ums9x2ZWw1M2fcRirpgUQkAbCAq4v7aLivnT6pnVeeTVtaqZwTPkxRRqWdkI5tHT6Xuf8G/n6xpifTGzN57jsSljq5s84jFXTAghIA2EB15d2UXFfOn3TOq+8mjY1Uzim/JgiDUs7oRxaOn2vc/6NfH1jzE8mtuZzXHYlLHXzZxzGqmkBBKSBsIDrS7uouC+dvmmdV15Nm5opHFN+TJGGpZ1QDi2dvtc5/0a+vjHmJxNb8zkuuxKWuvkzDmPVtAAC0kBYwPWlXXF1GE0AACAASURBVFTcl07ftM4rr6ZNzRSOKT+mSMPSTiiHlk7f65x/I1/fGPOTia35HJddCctTN3/+fn+2z+dn+/1LA/m3fT+f7fPzu2VNf7/bz+ez/fhOTsdH0AN6vT7UD1qqj96uASr+/27/kILoC5L5Yolt2/59RV+r+iN7u6fWjvGD+uj6ODwAQ3vPynOypjWXj75y+QPPBuAOcaQ4gonBR2kgDDZTpS5ivMOnoOlv+/1xcrtQXYxncK9wMhPuBVdps68LDvOYg1gjUO5M7ciSE/tkTdhSRf3B4sVzRh+uB/++TP313MFyRTs3C0zPK4tpWkNj3QQeidwo5LEO/shBZy/1x2sp2WJjqfPgLqnp+VEJTGmucO1cXj3XTl9rNXC6MuZZxJ7CIX5tWpO3yvqxl7BC7WD5zT47eCMHa9VT5j8O8sN8ZbBNnzPYfKWT2E7Oq/pzwQn3Dscs6D12O46bFBqjl8Wg9AzL5KZnvZbZ5hw8Fvyh3nPm81BIt3WWsDx182fzRM3IGQjMLFaSgoFJmunxcNbI7CFvJ4LPZ0v5b/WiRVN6DZsmZBMr8d/ZhSKQxgsTr7QpI3uNY84fOJ1egpf1S7KTy2P9RA9yqUYGiSengIl/eE7BT6RHXUoDYZT+Fj1VfAKFPn9f89DOYnUPnuBe6TgT7iVfSbuvVSzk7Fgnvf1m8HeT82ZE+E29nB+JbuGS1+f4AWM5W/xCTWYDFQxNcHt6XmUccXnAMPP5knhB81hOga8LaB6z8zK+tp9ZcBxMbGWxlK3fLTE9PyoBymuBXztAHm9eaxkO55xO1zuVwU4m9hQO5Zs/NbWorn4UU1aoHW4tSden7h7llbHD18u2WvWU+Y/D/QhfeWz9RgXUGti4QNd3PgsZDI7EzGE45J7lvLz24zgPz8zkmdI7w+cm4X2F484urs1+LsEFvELPmSJT5vPMgE/ULWF57ubPxkwcoXD8kDd8IPa0KMMA+bVvEdHJwfUB8v/at4ng4Qb0lY75QJB7WFlS8GD3Fg0kZpLbtdH50EVxQfat+/lmjpv4OfxMh1ye6uf6jcLdc+SiwiMNBDnr57VU8cmbt+PCYOQnlOR9M/8pguHBtXjWojMT7rU+W7mDmz/1eWvySha2/MgXzGkHWmeTB8lUeOLr6XnFzAcZnNyDe2UeM13Zjby25yLmbdUyZ/KHx0zTdDem50clYuW5wtd9bn3yc8Nai+N0ZayziT2FQ1XjN8tbRf2oSVihDsJ6k65r/LyE14a1dbFg7ynzHwd9L19dDtJnCc5CvhlkpLL+TA4yGazec4//cBML5ue9Meeaxt2pW/sxz1bZGLQ7nnVzdNF9fjzz46+o7DSBGfN5WrAnK5awPHnzBwoCJbgbFL/uayy4sO9sQvzzA4KIG9BCgeFJvY9r24OyHSDJ4ira95aCP2C5bMPiwX59C3TkxzhYuUUfg4X1i+Yhas3lg/5TcI+WN9ggzBKLZcadSwNhnIV6TVV8supcfhxEea6oxTLfqPw1VzPh3hSxxH+jJBvrqeZS3kbniqsFqU/uOi5+fZ/G+sNrvf7u9LwqcsSumpMPQurzWEbccVBeUDfYqoml7NClEtPzoxKNmrkizNlI521rrb26ifxb4fQpHCrPV1wtKtWPygwWagfH3fxDyXG16inzH4d+H189tpXr8Jp6lPOtbKPnWchg0Bczh96oe6W1H/9sDNYpDg28BwXSUarLdnxWfAAk6R18f758Dg7wQnUSlqdv/sBrbLGmxEGRFXxLTLrzHGX4wuEWN+bzAqe36c0fPxBq+3AFz/mHfM4mubJfmY4KYkRc4CEUD1zGpvWrY/NH2Jw5hDuJj88rERl4IQ2EgSaqVVXxyWhLcmexTzchg9Vr8QxmCycz4V5wlTZLk6WRysY67VrMW2P9SbQzl27cyw/6sQtw6Nd+5UyqC1F+1rPpeVXiiAHWyuT1uyaPNXlxc4X5Wheap0LHes4U+R50znMyPT8qoaqaK7Ja5XJr1l5kvWBsWlnKhyjDzyH1c77vL85RlUFPIvYUDlWN36wWAXek+lGZpEIdjNyL+izfSM0aV6ueMv9FtOJZF18b1yJV9SjLucvf3vOW4wGtSzEy+awrZlnd8RYbe1xXAd/wb9xynAfDFIcG3oMC6ZjlxAtmc4ek4Jr70+XzmrBPsSJhef7mj9+UCQtZPCgSwnGDgdxLiUv6lwtLhizp71qdPff7BwY0/N1L24YXNL5/iM2oEHwcXfAILtas8RmKDYMFxj0DIpcn+oWY6t5EyYwlN/iFZiI07FIaCMMMNCiq4hO3+Zbmg9i8Fk9ieudiJtx33MybmBoRhFrzkMozut244+tPsCue5ONYEnULa28H1zSpw6T3p+dVmvMMR5czPM90fZCR6U1uwFxl/6ABXlzXcyab2xITM15Oz49K0OrmCs8l+KTNcs+vCZJaQ+Z37wO5l/KW9Oc44+ed8AczYC1SGeDEYk/hUHn8crUokMO+nWiw4DeRCwlM+ZSIZ/OesQM8DrIc70IjPSnYe8r8R4N2V118JePb6clygtYJtg1dw4f8JGdpDryN0c9CxtuumDnwhtxj1uApFuFrckKdJPINvC/5T/QiYSb/qPXy07nyeXn4Qw1KWF6w+WP2Q+ImCi0abpC4YsAMmGyA0EFAddG2KvQKxQj7bfRlxZD7ZfZscJX9cnqFIiAEkvUhsTA2rV+SjVye6qftti0UftomuLtzm8/7TodDTdJAOKS0s7PDGD3oc3xii/Ie5tfiWRv6TLjX+mzlWPy9hmysI81svyRvZMyivkF9rJt5K3fH6ScLME4MNovNGPY+1PQRVN16e3pe7XEE8kA+3TZw1uexGXzId/JBQVX+C7E0+3JBh+n5UYlB1VwBfPJzM52nr11rgb97D3qVod8u9hQOlTZ/3IYI3hhmoM/qByPD3SrUDseXuD4F/tD9n4a6WLAX1vYQDzXERbDMvS6+ehyk8Rrw8ihAfowt+J/1zXKQrH8YRFMeMCLsra6YWU0DbnosKaXy2PdidW0wFht4X3I/y4nvwPpcUnZe+1T5PC/MSzRLWF6y+RMnHbwAcXHHouIITgcMbLjEScFNUOY6HUzpdQ2u+4Mq+uZ02QEZNj0E/dngKj+Mp3YEzeQ2VzhiwWCwyPxC6piBn+ofizuyzb3ZgpsHn0sDYbCZKnU1fHJ5iBOs8T/+j+MiGizzLcpedzYT7k1RM2Mj9N8ZU3V5a6s/wa544nNfqlHJQ6Krz/hrR6KB6Rqm59UOR1xNhQUehrY+j7hX9bn1CfLdYGsnlmrbFwtOz49KPGrmCqsq5MjlFT+QxXWGqzvnrrU8r8ImY2WgE4o9hUNxHZ6DLNeiXLZrvgi8ZPSFD1bpeibyFfqMq1VEN6mHYGvdYx9f29YiVfUoy7nPX1p4ENQkL+h+6bQv5pLWvva6tV/+bIutufEI46GB91gJdy6tZ7NccZ2vuzdTPq+L+hxLEpbXbP6EjRr3F7nI2AfS/Zq/OAJkjyC4gYTuA3m/qTyz4RHViGdOP7cAp28sGQV9Bc/ryT7d9S75ePAiTXQWNWS42DYo4N/8L58BbvTPKTiNkAP0hdRMP/QfhHsMpTwhRNnjZ9JAOK65XUOZTzvY2JzBAxy2vdMHi118PhPuTaED7yvHjdO9k4Mkb26c1dWfGr+dPo4XtHe6yHKLDd4P2nOuq+l5xdRWg6DDW85TbR67spFwutqWEEuXDxd1mp4flTjYHFVs6sJbYz+/d6+1fA2s8rkShJvEnsIhafOnVIsy2JP6kbVzNwq1w9UgtM43OpK50twaVaueMv9xUPfy1WHLrwFSvKrqEZNzxzXeBnx1rPVZyGDQGzOH37F7rWu/hPPGuB9fGIdq3hed55+TnX7Gl6K+cwTmyec58V2pVcLyos2fuNjNN3j8hgX7HV8o9piUfnBl8jypyyBHfWRTCt5IQYuX3oIHC7Isdj/I6e89lD02EuJg9ROmSTguHqYPW3jBBxo8oz/iRL8i0Is7xLlTLEFk4FEaCANNVKsq8olZ/ETlftwkebv6r6dFf/bPZsJ939OklVnABAmprSlvcVzRVPr7qP4Eu7snkj43/qEmpIu5wBtmA37X3M2N0/OK4Yir3fLGj4O0Lo9F+I19wiHQy8+plIOUM9LDY9GHGwWm50clNsW5Aulx87x5QxTn2AictdYyehNbvgZCvUHuLXf6FA5x47dYi6rqR0VKmTqIezk/Eg4xa/A4T+X10/A+8K1g7ynzH8YQzvv5CnNDiq2/j+aRqnrE5gBqUJJreA5BNiCemmN/zDXaG2RszCl+0J+u2VnOizhIuUnmaDC1c3TzA9qA8zbD2Nnpe1XTNPm8KuAT7UhYXrb5A5MM3ThwEcNihSMfN0BAF12ouoHF6ajC1Q9aA1T4nxQiaze5l+lmCx6NM+hnNmgyfcINDhcQBTwpPq4VsMM+yHK0QENfKt+HO+jCfrhzahNiGnU0Nmb5ZzHY4ZPLo4wHbr8Lz1osZ8K97DMsUFwtEGuKMNZxXjhbbHtF/eF0Sfc4PuA4rA8p92DhQQe4ZGKK+9PzKuMI5ZareTDnoAWZR7eUx5okZDrSvNfa4jh6YA6r8f2ozPT8qAzQ5lDIW6oi5JsZx672oIdk1Nn1o/MN6KKq8jkf5DCfaR9kaLHTp3Ao3/ypq0VZbit5SNJcqB0c90x/d7+jLhbsPWX+Ixj7i8N85bBLcm7zktzLfLF68twZOahDuF7g9Ummq3DjcMwF/bXNLi5aQ3Ff3J6NK//suVc3uT49uKX49+jAcY0+nyWfo+O6Q5+E5WWbP3cErTYVgRQBaSCkcno9FgHFfSyeqs0hoLxSJuwhoPzYQ0fbahBQDtWgpDKzIPBGvr4x5ln4doYfms9xqEpY6ubPOIxV0wIISANhAdeXdlFxXzp90zqvvJo2NVM4pvyYIg1LO6EcWjp9r3P+jXx9Y8xPJrbmc1x2JSwfuvmz9zorvGIvv5o3DvZWTav6DXHO7780ECACPZ6DgOJ+BNf5x9WR6I70fS+vlBM1vHkvP2rQUZkaBJRDEkpagyRk7rz/Rr6+MWbKsWeNRc0nze6RKwnLh27+HIFK+z4ZAWkgPDnmGWJT3GfIwvN8UF49L6cjI1J+jETznbqUQ+/M+6pRv5Gvb4x5VX7W+K35rEGpTkbCUjd/6vBTqYcgIA2Eh4Q3bRiK+7SpWdox5dXS6TvdeeXH6RA/3oBy6PEpflSAb+TrG2N+FGmTYDSfCSAHLiUs7eaPadT/ioFyQDmgHFAOKAeUA8oB5YByQDmgHFAOKAeUA8qBtTnA7R3pmz8cKnrvsQiYIqb/rkdAcb8e8zdYVF69Icv9MSo/+rHTng4B5ZAyYSUE3sjXN8a8EidbfdV8tiImy0tY6uaPjJm2PBABaSA8MNSpQlLcp0rHY5xRXj0mlacEovw4BdZXKVUOvSrdywf7Rr6+MebliboTgOZzB5zGJglL3fxpBFLF10ZAGghrRzW/94r7/Dla0UPl1YpZu85n5cd1WD/VknLoqZl9Zlxv5OsbY34me11Ums9x2ZWw1M2fcRirpgUQkAbCAq4v7aLivnT6pnVeeTVtaqZwTPkxRRqWdkI5tHT6Xuf8G/n6xpifTGzN57jsSljq5s84jFXTAghIA2EB15d2UXFfOn3TOq+8mjY1Uzim/JgiDUs7oRxaOn2vc/6NfH1jzE8mtuZzXHYlLHXzZxzGqmkBBKSBsIDrS7uouC+dvmmdV15Nm5opHFN+TJGGpZ1QDi2dvtc5/0a+vjHmJxNb8zkuuxKWuvkzDmPVtAAC0kBYwPWlXVTcl07ftM4rr6ZNzRSOKT+mSMPSTiiHlk7f65x/I1/fGPOTia35HJddCctTN3/+fn+2z+dn+/1LA/m3fT+f7fPzu2VNf7/bz+ez/fhOTsdH0AN6vT7UD1qqj96uASr+/27/kILoC5L5Yolt2/59RV+r+iN7u6fWjvGD+uj6ODwAQ3vPynOypjWXj75y+QPPBuC+bVuwxfEBTA06SgNhkPomNSFuzLmUT0Hj3/b743gninjZoPcCPIN7hZOZcA+u+jHv8Iz4xvGPxrnJUQZ87JM1BSOW4LamUb3SWMQd0/Noz+mKY9PlPF7Hnn6MclxIai30Cfyp4iX0uuc4Ja8ACnYuiDUT+CByh5mTSE0HO7tHmTOmG5vr4jwadYq+7/p0XePU/GiAgc0TAn/E+I82uDoCzkb+SlwMeriaA2oWOj6FQxnk3fUpjn9Xw/b4klm1NwJH8BzDPiv4/qVayMYSbf/7Ms8btk981ojSa58d5iuDdfqcweYP1SOL4E5Oqvo3pOFwzA226kXjOEmhMTpYDEpzL5MbqQ4X/fT8z9e1xZ6nC8yZz9PDPsWAhOWpmz+bJ2pGzkBgZtJICgYeIJkeD1WNzB6qdmL4fLZ0gFq9aAGTXsOmCdnESvx3dqEIpPHCQqr9QRDHnA9ep5fgZf2S7OTyWD/Rg4CskUHi/Knlws/2/f7wm4F8r+670kDoVnigYxWfQL/P39csYlKigow5XownNr13PhPuwU9fh1g42XEcerqTipzU1pZEM3PpawiqRzbXcO1jycaqv89uwmcxjq9TTCBDb03JK4hQwBfzTeIHf9/lJ8sx2MuOBc6EBWgyLwBngFup3grep13uup6aHw2gFOeKAeO/Zj4vylg/rpvPGyDsFn0KhzIAuupTuaZkdpgbjke07rial66Rzeep3IdeSS3MYqFGrQ5cz6DG4WJMuyx7dYSvPNZ+owLhV6xHBj02J54/2UZf/7OQMXUk5tMSXZgnuTEAz8zkmdI7yOcmGQdVwUAO/IebE46BKfNZhe18QhKW527+bJ5kqGgYaFzh+CFv+ABkaZGGAfJr3yKik4XrA+T/tW8T1S+MfW/x7STwKB7zgge7t2jCYgqeiwHJRJX+Yb3wQI/l/TnFJdWdb+a4QszhZxTm8lQ/1+8Y7i4M0PHnOcG8CcbEfuSWNBCO6OztW8Unr9yOC1Ok/YSSvG/mpa7Hszb2mXAPPvsFIDv3MeM49PMnpZzsjvtUWfE6H6O0i8t9umhwHGuptWkt8VYmXSxPyStITAWHYLFH5i3bL/8wAtTWH0ucgfmLqe8+38Qvb7jE+3r/zpecmh8N4ZfnilHj/7v1r7XmnX8aoM5En8KhLLCu+lSuKZkd5oabG5O6w9Wc2lpYiIU+V7gY0rmScXPJW718bVmvlOsRv/mza+PAGqM35jMTXJon2TFgHDoyDioCijnwcwa7AK5QdKLIjPk8MdxTVUtYnrz5wy8u3aD4dV9jIcTLJ5YwQPyAIOIGslD0875lRNvIb31JNrKifW8t+APWyzYsHuzXt0BHfgy4sBtsDBbWr2SyDWpz+aD/FNyd4WAjbAjq5k/GJwuVy4/jfp4rSOMdeILt0lEqQKV+p7ZL3DZGs3GcelLKSXncpxr3r529vbe+cP5BV32tLfvbU6fAj7OOU/IKgi1yiFvo+Tyk8wzobDr2cQZM8Pku8R56z3Gcmh8NENmxnXIi4dex8Y/WalJdDPYcB9KNQWyf9bch3plEn8KhDNOQz6wl3vBciLku15TYWT7DXAlSGe8aamEhFlvL7PjxOhvX28HHBU76+Fqe/3Ho7PhOc5Bew7NK9hAXNfNzTmyXzvpilrSNuF+eJ9kx4E1THBrGQZPrbTlvUn1QeL58Hgzoxu4Slqdv/sAuZhzvcVBk5LfFn37yHGV4otpBYpXzC5JdzLOJbVeafTvF+Yd8zgpe2a9Mx74btjXiAg+q+JNixqb1q2PzRyjYh3A3ESQTvY0nXdxW4NAqIg2EVj0j5LmYWS4kubPYp1jdhGctDjPhHnxOMAv3zUk2jklr9gZWlpPG2pJoZy8dN8yruqjeYMksnpZay9QMrBs2aCXbiexVl1PyCoIvccjIWZm8du9t8oH6mmOJM66dnxe6a1GNYxfJTM2PBgxsLpKan+Xn0PhHmz89c35im/O3IdypRJ/CoQzUrvoEPNmZhzJD+Q3HXVp37BxKNmXcnFRVCwuxwPz8a79CRu3m3q19p4uvjesVbnxn9SjLyXlrjK6Yz0yzjT3yDPiHf+OWGwPgEsWyYRyAgqoj/0xd1fVkoenyeXK8Z6qXsDx/88d/pSgUcDwouAUDKf4w0fhBlBYT0r9cWDKASX/X6gad/y6k+TE6tOCybegaNjBCbEaF4GP85CTzwv/wl/BAl4vbO2nhoBMngwXGPdOZyxP9QkylN1EyM+iG9TfuCLIba0h82Kk0EIYZaFBUxSduIZ7mw9KOfnUw093g1xmiM+Ee4mPGf2hjMA5tNTlhdLsxxdeWqLtw5vUaPPNNoGSRgMd84g8Z38akbx9dpwrRHG6eklcQ1S6HjJDPF55TmK/ggrru4w5nMh5gI5n/zGIxk8EK7j+fmh8N8GT1HHKK5tDAJ7jXMv7D5m7fWuuu+bwBwm7Rp3AoA6A4drn65LUA/9h5KLOU3cjmQv/Dz3T+ydelmSK4UYjFrY/93EvqLSh4zrGLrz6fUDoMGlmOEG5V9SjNibdBc0xxdzbbnoWMhq6YqemBV3XzpIs1bhARBwh2DeOAKCldMH6WulzUPlc+Lwr6JDMSlhds/pj9kLiJQouGI58rBjwR6QChg4Dqom1VOBaKEfbb6HO+oIc37pfZyaA1vcp+0RirPPe+oMJBYmFsWr+QPDGTy1OfaPth3BlfqE7i3NALaSAMNVKpzGFc4BMzKWecuhHPylAnm5y91yy2vi0bxyhSth8dI6XNlLS2IO11p96H9K9wYL10TJVqbeI/44Xjq1RDmA4X3JppPGfh7nEINmyzN6lcHsgHCpnizhsMZ/Zy6trQQryG952undVtan40BO1yUZgrgFP+Ic32CQ9spfEP6xsY37QeUF20zX3gBf1cUFS+IdAJRZ/CoQzarvqUaGFqSiLBXjo+U87AnBk/cG2ohTWxmLEA/uJdDtbDdW928dXjIm3M4HWFQcblr1CPspwkdYOBmOUFI5fe6oo5VTLqunKe3IvVtcHc2zAOmmLgn7mbVJwkPFU+T4rxKrUSlpds/sS3YfACxIUei4ojeFqT0wFi5e3bQWkhSa9roN0fVNE3p8v6EhZTgv6s4JUHWGpH0Exup7iYxlgwGCwyv5A6plil+kfi7nTRicMQFP5LExDyuPtUGgjdCg90rOGTy0PEBjByR7d4uhPP2vBnwj34zPA+tO2Ml5qcwAad9BDfM+aDb3BifcRfGbJPf/6NoNZae06dAlfPOk7JKwh2h0NuzMLiDjqYo89DaZ7BXVrOE86kdR6rcj7GB7Q63mMN959PzY8GeCz2NZwInGsd/7B+iPmO+U/XE/TayUlz1Pp/SvspHMroFriStfi/sMXVp1w2/+oqI5PckuqOuw92G2rhTizGtOUojJ+kBiauLX/Zx9d1n4VMwvpiPifVtfOkNAaMV7H2mquGcdAUktebPnQ36ThHeKZ8nhPhdVolLK/Z/Alvv7i/yEW4BkX797uln2IbeLIBAg9s31SeLkhqoaWTDe1FJgzwBSYQKhqvIB705U43kGFCi6L2zMfTuuGR4WKVQQH/5n/5DHDj/kwU43OmH/oPwj1BweW5hG3aqeNaGggdqg53sRjvxrxTnAsLmLLuw+43KZgJ9+A4cLpyTLh+9TlxY4gf92ltCT61nLD+Qx1sr7Vn1KmWcHpkp+QVBMLUVdPkcE427aAPzDMfuR2Jtp8mnMnqPGj0cnFequc9qJjhODU/GgCqr+f94z/jAnClY86v97cBhJtEn8KhDL7O+pTpAZ5w82gm7G5kXPNy7n6cM911RS0UYgHz6Xy7O9dBp0WPvXxNscfhp/hZ2d21K/4gKmraxT2bc2K/0llvzCW97e3186TDO262B1sMDtXjICipOdnxtab7iTLz5PPEIC9SLWF50eZPXPDmGzx+w8K8+UF2hRwy+QDxhM3kYdGDdl2qwI36qHl/HxW43oIX3gJIfs8of821ymErlOPi+/pNAZPwuHB3bWzh9YUmxT7XH3Gisr2401irsKVduq6kgdCl7GCnYsw+l5SXYNSPG77xss008KZ0nAn34OveglFqa8pJHDM0TXltCT5JJ8YuqkXh06C0pqDNhdZae0adksIZdX9KXkFwDIdcXS09zEi8cfNoWtfBXHas4Exe5+3u0/Zj5lfMtybeZ57cdmNqfjSgUpwrkC43z5s3cdIHi+vWWi3+ItenPH0KhzJwe+pTRU3J7DA32LoDv4FGJsvKWsjEgs2mmxd78yfut+J5P18lrPP1StX4ZnMCNSipTfAcguecBvD7Y24wUiNqY5bmd7pmZ8eAiIOUm8Y1AYnB6yTjjQjcdjFNPm9DYJxhCcvLNn8c0fkNHliscItaboCALspZN7A4HVUw+kFrgAr/k0Jk7Sb3Mt1swXNSEGfQz2zQZPqEGxwuIAp2KD6uFbDDPshytEBDXyp/EHfvdBW2EOCBo4l7ln+lmF0eaQ6w73vtJd1YzxXn8+AOiw83zsV6IYzjPcwNjmx7RW2pyQGMvzB2hVoU5OhAtSacf/nGMLYPMsHOgTqF9Z5xPg+vmOgyDlHuYXzzH++Gt17RfNSRh8AFmNcSzmTtXi6lDstrFHKpHYleejo1PxqQsHlKcid1DzlNkxjqEz/+XT8634Auqqo857f4K8Uxy/2ncCjDs7M+ASdC/arkJbaf6YD6RIkWunDyZO7m5lhUL219Sv2EB23BZjC+2MlhvnJYJthVje+MXxHI0WuMwzFH1w6dleZB3M5x2sSxR0euDxkHFd5zOtxYprW/QtVpIrPk87QAL1QsYXnZ5s+FsaopRUBEQBoIYgdtGIKA4j4ERlWSIKC8SgDRS4KA8oPAoRcdCCiHOkDTLrch8Ea+vjHm2wh2gWHN5ziQJSx182ccxqppAQSkgbCA60u7qLgvnb5pnVdeTZuaKRxTfkyRhqWd0qgbRwAAIABJREFUUA4tnb7XOf9Gvr4x5icTW/M5LrsSlg/d/Nl7vR5eo5/nFbeY5lX9hgjm918aCBCBHs9BQHGXcJ1/zEiez3D/nbxSztRy7538qEVH5WoQUA7VoGRktC7VInWm3Bv5+saYKYeeNfY0nzS7R64kLB+6+XMEKu37ZASkgfDkmGeITXGfIQvP80F59bycjoxI+TESzXfqUg69M++rRv1Gvr4x5lX5WeO35rMGpToZCUvd/KnDT6UegoA0EB4S3rRhKO7TpmZpx5RXS6fvdOeVH6dD/HgDyqHHp/hRAb6Rr2+M+VGkTYLRfCaAHLiUsLSbP6ZR/ysGygHlgHJAOaAcUA4oB5QDygHlgHJAOaAcUA4oB9bmALd3pG/+cKjovcciYIqY/rseAcX9eszfYFF59YYs98eo/OjHTns6BJRDyoSVEHgjX98Y80qcbPVV89mKmCwvYambPzJm2vJABKSB8MBQpwpJcZ8qHY9xRnn1mFSeEojy4xRYX6VUOfSqdC8f7Bv5+saYlyfqTgCazx1wGpskLHXzpxFIFV8bAWkgrB3V/N4r7vPnaEUPlVcrZu06n5Uf12H9VEvKoadm9plxvZGvb4z5mex1UWk+x2VXwlI3f8ZhrJoWQEAaCAu4vrSLivvS6ZvWeeXVtKmZwjHlxxRpWNoJ5dDS6Xud82/k6xtjfjKxNZ/jsithqZs/4zBWTQsgIA2EBVxf2kXFfen0Teu88mra1EzhmPJjijQs7YRyaOn0vc75N/L1jTE/mdiaz3HZlbDUzZ9xGKumBRCQBsICri/touK+dPqmdV55NW1qpnBM+TFFGpZ2Qjm0dPpe5/wb+frGmJ9MbM3nuOxKWOrmzziMVdMCCEgDYQHXl3ZRcV86fdM6r7yaNjVTOKb8mCINSzuhHFo6fa9z/o18fWPMTya25nNcdiUsT938+fv92T6fn+33Lw3k3/b9fLbPz++WNf39bj+fz/bjOzkdH0EP6PX6UD9oqT56uwao+P+7/UMKoi9I5osltm379xV9reqP7O2eWjvGD+qj6+PwAAztPSvPyZrWXD76yuUPPOvEncU6YppCCtZGHKWBMEJ3q46IcYz9Iwb/t/3+OLlM5EY8a2OeCfdan/fkSrlz7dzY8WPmwtoXfOVs7gW5QNulvNqp7ftQxbHr5hbKi5AfPPekg7zTdtRNbVJ/9+t41FGqU/tx7s2N1J9xV5fyo8VtNp8xD44nny2lwbYVMK7wIeaznxMbM+fk6w1Z/78vs/6zmMS1X0Uol4hMy6FLopfWtFdzFdUeaZ3PjqmrQJrHzmG+MmM7fc6INQTlJS1WO/mo6t8A6eGYG2yp6PkIaD7HYSxheermDywQyKLAxBSKC7M4SAoGLhKZHo9PjcwelHYh8skXWlYvemBKr2HThGxiJf47u7BgS+OFCVTalJG9xjHnGwZOL8HL+iXZyeWxfqIHuVQjg8SLp06f5GOxe5WANBCqOg8WsvEifrF8Aps+f1+zaE4nWZBJjlfgmZgUL2fCXXSyoaGYO1/jsrFzde2z9n627/eH32xviHlG0Ut5xdb2Eiq+9uNxbnKCrotcMia6bJup1nwA4xboGRe967JMy7xVjrM3hhLCe+2X8mPPkbQty6fDD5f2fF1SgXFqh7mW8x2F92Ryv0w/51vgWBZf1G3Oss0fqIsYANrltqtpOXQVIlkur+ZqsiYErqAaaqHI/LwKoLnsHOErP7b9PILwtvUBXbNrVzYfvoZlLwX0PwsZ9I/EPFf21BvN51gOSGPj3M0f+JSKFAkoJD/kDR8IN10UuEXId/u1i9hkErCdYNHxa98mCosPUFg4Ov3ppgzfKS94sLhG/ZmCt2sDJrLGRQ/FBdm3ruebOW7hzeFnOuTyVD/X7xjuOcK++DfikOvZvyMNhP1e57RW8cmbtuPCYGP5xeUj9fEaPFOr0vVMuEs+ttwv584vcm6tfTBG/9wmQOJLS7yzyl7KK6a2l3HJa2vap8ylo5s/ffOnmwPSucV7n81b5Th18wdlvoZLHuO4pqnAGJmQTl1e+zjhcph/UJbZKsRH13l+rpq0Pl1aYzIgJ7hRyKX18GSuJu/Xm4V3/vxQ4+cEcJ7tQi9fd+t94nTvnLVrI5tTEqM7l70x76jUphsR0HyOA1/C8uTNH9gcoQ+r7kH2132NhTzs54sbWKj884WBiBt8QsHP+5bh8w9omVK+J1fwon3fJ/gDOso2LB7s17dAR34MuLAbbAwW1i+ah6g1lw/6T8E9WoYzZ0940AChAUdpIAxQ3ayiik9Wq8uPo2meK87wVXhytrl7M+HO+dd6ryZ3Lgd0zF1Z+7B91t/WoCeUv5RXWW2vAcSN17239djcpLbS6xrT9iVb8+bPd2ufP1vnrXKc2VxZGcMRsUv50eJoTT6zB9wKjCt8CHWheW73nKjZpCnEFzd/vM7G9U9FmMNEpuXQsAgLigq5tL3P5irjYrZurvGT0fO0W318Ldd7jFPfnFW2keUUG90574t5R6E23YqA5nMc/BKWp2/+wA593F9xCxhzHRYhEKedQOgGQJThC4d7mDKfCzi98VMyULpzzCasHVlYSCcLH+cf8jmbgMp+ZTr23bCtERfYAMOfxjE2rV/0QTSayeWj/hNwj4b9GW8jExtwQxoIA1Q3q7AYl/hktCa5iwtnyeR1eEoepPdnwj31ree6KnfZw5UbZ5fUvsQ2529P3LP1uZRXWW2vQ8PVUvPVKzRPoK5cblwfJH/Itqn7fE2Q5898TkAu29PUx1KcuvmDEKzJp5XB8zqsmWQuIQviqctTPyf2NjKD0UJ8MIf9mq8xT7zxY+K5tMYEACc6KeTSeno6V3M80vpzR33Jvbr/ThdfF34WMoh3xXx/qtQDAQHNpwBMx20Jy/M3f/ymTFgw2EnCb0JwDyjJQiAuVOAhGC2ISf/yYjXDjfR3rXEB634nAf+ej23DD+u+f4jNqEgnSi+ztymVTWKZo/kNgos1ixdRDBYY90xdLk/0CzG1vImSmcQ3rH66yMXNI8+lgTDSRq2uKj5xD21pPlKDF+KZmpauZ8Jd8rHlfl3u3LgK9cHm5ZraFx/qXVSZvy3BTix7Ka9K424PJ5gr7O/voDmM+1ABZOMnJvm8smcLtXXX8d55C3xn4szmRuTnWaeX8qMliCKXfO3A6w3Qv4cxyOwcuznR8gFbIT5bn+AHzrkYd/y/umlaDl0FRCGX8MErXisH10ZyNSj1J6lf6XUq/5LrLr76POEpx9UJ/xxkxioap9l6AvKMFaT58DKjn4VMWrtifgkfVgxT8zkuaxKWF2z+mHVrLBy0aLhPI10x4D+ZJAuVZPFBdeUbGEX4CsUI+210OV9QMeT+6kBa8BKfOZ9ojJxEfi/rQ2JhsLB++QfPTF0uT/XTdtsWJgLalqku3vB5D/qKHQ4JSAPhkNLOzg7jAp98XvGcCostfhK9Fs/a0GfCvdbnPbmq3MGmrOc2HTcn1j5mrFPbe5Gt1XYpr7LajrCybXgsC7XWj2f8tkMVl/ZsIzfSU6cbfKG1mnKCtu3XGGeF6k4sM3Hq5g/CqJBPtzlCNwlRb0iA/d0TzKVMhrlB80bzXsOJsJnN6A63auIzdRF4Qie4oGaGk0trzAwBpz7U5FJ4qzGogjwnH+6GduGEcpUKuTY0Rgp+0t7Pveriq88Pv6akz3AGOYc9nu+Yv9KX5YPWGi4De/nm5OFeV8zQWY/TIaD5HJcSCctLNn/iog8/8Ljg4gaLKwzpGiAtBm5RZBazaSFJr2vAc32kxUz0zemyvpQ2KbKC5x/G08CQe6kd1CSeprgYQXfPTIYMFplfSLUv/NjFVP9Y3JFt69c1b/0Yq9JAQB5ddlrDJ5cHOsmaGNx/eKhDLl+MJ7K8ezoT7ruOVjbW5M6qCuPuutrnxipwJD9KC7zK0KcSu5RXIZcHIUjGaBWXOm27+hHrRH0dHzBvJXHGdcBB/Bq6X8qPBr/2sHA5Qg+1e3pTjPdkfdthTpTWQMZOga82RtDTEUNFmMNEpuXQsAgLinZyeTVXsaexlvm7O37ifk8/7+Prus9CJp99MT+dCevGp/kclzsJy2s2f8JGjfuLXHiTISwSfr/sd7/ThUr4DaFvKs9seFTg5/TzCy2yQIHNFViwSLqZCWh3gizsuEtmMlysIBTwb/6Xz5gNnqCb8TnTD/0H4Q62swkcGk46SgPhJHO7ai3Gu3zaeQCzOcs3za7GczdA1DgT7sit7tNy7kA11KV7a1+9v+D3GsdLecXUyS6UoJb6P2FTlZtO21Y3/rQdbFfU8cPzFtiCP9XTGUMXxr7TpfxocVTAwmGe13VRdYqxKBgbjnDC9a3wT4gPvLBxorlvl2vQ6abjtBy6Cg8hl7dwFWL2vCcfZAh+Qpe3HHv56sb2es9CJq+9Mb+FE6vFqfkclzEJy4s2f/xrg/aNhfgppAvPb1iYNrIr5FqzhQr8BkomDw9Zf42o+QfsT7qg8ffRAsX6gq5ZQ+wEBDEmsfsJDH+XltXJ3Mxx8ULWvvu0n0yM8BWU9PVc8CHBPtcfcaJ56sXd7qblf66TiXXkLWkgjLRRq6vIJ5/LJDVevecUbuQWRLXOnCw3E+4jQi3mDhmBRXL+9QyoC+fXvhZ/kevTn17KK7a2FyAyfcicAXU0zgVVuemxDR9Y4M2fpvkT+Bl9tdHCnIHjqogzfNDTOkUXIN5rvpQfe46kbUw+LQ+ydQjqWIMxEpdOnR2cU+BkWoe4uT3K4qnH2DJ1Lqw5mPiwP7YmYv4EXmK/cI/7zqfl0FWQMLm8j6tx3Ujravlts6vguttOP1+lse3vo/HaP2c1zCkNQPbH3GBERS9DQPM5DmoJy8s2f2CyoBsHLkB4OAoLBxR3vlCBrzelmzXcQgUpKp3aCS75igQqdqZ7f8FzxiFOkwz4z8VccjX4Qhb1sRfYSRdnsV+0b/yQ5ehCDHJI5ftxd35SGzGKc86kgXCOtX2tJT6V8Enb0+t969e2zoT7iMhLucM2YNzcWfta/MW+z35+Ka+4OYL73bcEtJB/qPuD55XEHLl0tmmNBX9q67irK3TO4OYt0GtyYv8ncermD0pN9kAND0UUZ4dl/DS+iDEyIZ2O4ETmRzoOCmPFcirlB2wqUmJKYVx2/9Iac1lUDYZu52o+JliKZH42xPgg0cN85cZuMlbt+E/uZRDu5KN2Tsl0CjcOxyzo1dv3IKD5HIe7hOVlmz/jQlFNikA/AtJA6NeoPWsQUNxrUFKZVgSUV62IvUte+fGufJ8RrXLoDFRV51kIvJGvb4z5LP7MoFfzOS4LEpa6+TMOY9W0AALSQFjA9aVdVNyXTt+0ziuvpk3NFI4pP6ZIw9JOKIeWTt/rnH8jX98Y85OJrfkcl10Jy4du/uy9Qg2vkNJX4cdBfUTTqn5DzPP7Lw0EiECP5yCguJ+D69u1vpNX89fZWXj5Hn4oJ87i3Hs4dBaCqV7laorIyOs38vWNMY/kzGy6NJ/jMiJh+dDNn3HAqaZnISANhGdFOV80ivt8OXmCR8qrJ2TxvBiUH+dh+xbNyqG3ZPoZcb6Rr2+M+Rls5aPQfPK49NyVsNTNnx40tc+yCEgDYdmAFnFccV8kUYu5qbxaLGEXu6v8uBjwB5pTDj0wqQ8O6Y18fWPMD6aw/YMRT47vytiksWE3f0yj/lcMlAPKAeWAckA5oBxQDigHlAPKAeWAckA5oBxQDqzNAW6zSd/84VDRe49FwBQx/Xc9Aor79Zi/waLy6g1Z7o9R+dGPnfZ0CCiHlAkrIfBGvr4x5pU42eqr5rMVMVlewlI3f2TMtOWBCEgD4YGhThWS4j5VOh7jjPLqMak8JRDlxymwvkqpcuhV6V4+2Dfy9Y0xL0/UnQA0nzvgNDZJWOrmTyOQKr42AtJAWDuq+b1X3OfP0YoeKq9WzNp1Pis/rsP6qZaUQ0/N7DPjeiNf3xjzM9nrotJ8jsuuhKVu/ozDWDUtgIA0EBZwfWkXFfel0zet88qraVMzhWPKjynSsLQTyqGl0/c659/I1zfG/GRiaz7HZVfCUjd/xmGsmhZAQBoIC7i+tIuK+9Lpm9Z55dW0qZnCMeXHFGlY2gnl0NLpe53zb+TrG2N+MrE1n+OyK2Gpmz/jMFZNCyAgDYQFXF/aRcV96fRN67zyatrUTOGY8mOKNCzthHJo6fS9zvk38vWNMT+Z2JrPcdmVsNTNn3EYq6YFEJAGwgKuL+2i4r50+qZ1Xnk1bWqmcEz5MUUalnZCObR0+l7n/Bv5+saYn0xszee47EpYDt38+fv92T6fn+33L3X83/b9fLbPz++WNf39bj+fz/bjOzkdH0EP6PX6UD9oqT56uwaY+P+7/UMKoi9I5osltm379xV9reqP7O2eWjvGD+qj6+PwAAztPSvPyZrWXD76yuUPPBuAO8SR4ggmLKQIb5OfHVnUrepUGghVnQcLRcxRvEmsrAw7xrYtk010DXa/Sd1MuDc5LghnWCc8de3cWPJj6IJamPk4ER8EWJtvX8qrnVq/7/jf9vuDxngyfrM8JVyyujttR90cF8Froa6zNvdjAY3RLor7Bv5dyg8Ifu9oMa2fl6OqiDsHI4s34VnsbzBh/wfFkQ8gF5qiQztnlbYsFnHtFxV6+21GY/fBZ9NxqDE+lhsZtmnOaL1gdRB+pU5FfZmpDa9VqB2qJfKQrG2p0P4Vs87Huv59mecSkZf7pmZpPcxXBrP0uYPlQ5podv5wKFX1bwD0cMwNtlT0fAQ0n+MwlrAcuvmzJRs5wf1QTJhCnxQIXBRwkQ66yMTBLRywJH9uC/7ns6W1ytpGD2XpNWyakE2sxH9nESa+NF6YzKTFH++vuYtxyTdDnF6Cl/VLspPLY/1ED3KpRgaJJ6eAiV94puBbaS+DcpAoOXwpDYTDijsU1PDLYU7z6PhLueXk8D3PNRbnDmcPdpkJ94Oh2O7F3N1cC2fnw4gcGB2X8oqt9aVImJpmuIFqXJFLxkSXbTpvNNf1zGY5lm2DOo9rkQ3AfQDEfnhRwrC//VJ+1LjZOC8Hlb7f1zysMjXdjXc6T7h7+TrH6sxyGyxtZn7BJrj5JkpXnBVs8Q+WNJYKK6eJTMehxkjL9aU8rvv49d32+erWgs11qTJ+fp3vYgWbVgbVYniG4cZYpdnbxY7wlcfMzyMIpzKnpDnrnPnhSMy3J0wdyBDQfGaQdN+QsBy7+QMLP1QkjMeuUPyQN3wgkrT4wiTza98i4hYAULx/7WISijjoKx2d/nRhyvfKCxwsplF/ZmGzawM2wvDqijdP7lJckH0rlW/muIcFDj/TIZen+rl+o3D3xZ+JH3xI3q0iOBy9kAbCUb09/W283FhBn6ixmGQbC3k+jT9s3x5HB/SZCfcB4fiaRt9kdHjD2PQ85/L7c3YtnJ8PI3JgdFzKK6bWl+Pgc4H71dSBY5s/361rPs3irYwF1S8c5x0PVpfygwQrXFhMufnVyMv42nWSmTOF/nytd/rYB9kst4K/5nY23+zIck17ttL10FFbnP2D96bjUGM85foi8w5MtfKrlq9ddQmc2jtaztFNTE6cPn/48ZLM2Vy/me/18tXlGNYv+xGWOcVv/uzaSGvBvguktTdmokQvpkFA8zkuFRKWgzd/+AdONxH8ulffyUN/PumEScYXAiJu8AgLibxvGS5544HryxW4aN/3CP6AhrINi0fjJ6ABF3aDjcHC+lW/yAz6T8EdsDFHCR93v3UzD2uuOZcGQk3f0TI1/Ap5wcbTHKXXIFu5AALxM48z4T4izt7cXVILF+DDiBwYHZfyKqv1NVH4B4psIot9a7iUzTux++5ZqB+7nDALfmkOwQ8DpVik2h5d7Jn7Yu/2s0v5UeNe47zsVDrcHYWYPIkb/bys1dnCZYk7NfEamYItx1HDM8+fyR6+p+NQLe5erlxfSuOaX9fLm5UNfJW4FTizw2ERh3oe2Xpk+eb7NK7LRRdubOjja7l245DKnOLGfdlG7/zQFzOOSM9nQkDzOS4bEpbDN3/gU6K41o0TQViIQly28OPFJZ5k+ELhHp7MuyEdk4KfaGo3GLgC52JAPodJCoIq+5XpgK47R4KdtYk/1WBsWpmOzR9hc+YQ7iQuPq8hn9+vfUPMENb9R1gTPX0X0kDo03asVw2/SN69uWyCzDjoBaWF1TG3u3rPhHtXAEmnmtzdVgsX4EMCZ/flpbyScC1478awqWd8Lavi0iHbZh7g6+5uXWds7sfCzEMJNq4/j0MiOuTyUn7UeGwxrZ+Xrcqkj81ZskHicKV63TwhYM3klnff8yaxx8sKd4u2vA075wv+CqqvuD0dhxqDrqkv++Mar8ujcZFfTXztqEvRBeHM1SH2jbekB4ylX/N1ygds/Jjwuvi68LNRd8wJF/RyHgS6ODyP+1N5ImE5fvPHb8qEwosnguRhlFuwkHvpooH0Ly80swyQ/q41Tnp+swEtcmwbuoaHuRCbUSH4uLfB5Gy2LXIILtYsnqwYLDDuGRC5PNEvxLT3yWNmQrzBT/aw+UN+TwkeWAZOytJAEN09saGGXy4vnpthQyz5ras0X+Azw3douvo4E+4jYq/JXeA07ITjMZnkhow/7yC5l+aY9E/GcyoLAZM+cHPt46W8knCtgdBjb/xNN4GquNRpu5tDJibJphSLvz967quBV5K5lB+SE/i+xZRu0sTmZBzbBma+ZPLi8pzME1B3ooF4xuiIjXgzBq8zokTT2a4tr8nK8L9n1GTrBOHpONQYY1V9MTqlcR3eLKvhVwtf/ThI+eH96F9vcuOIB81tYPm48FqfF1/ibhdfCeYuzKymIHyqOCXk9Yz5oSvmJbL5Tic1n+PyLmF5wuaPWTPGX9CnRcJNDG7wM5NEmGRgcUSLONVF26qgKixOsd9GX1b8uL8ulha4ijeSnF6Iscrz/PdbSCwMFtYvyUYuT32i7YdxJyHyeYcH5WxisHHgt5yIsuYLaSA0KxrQoYZfNC/eqM992CjLOEjl9p4BBoRRpWIm3KscLgjV5M6owDWFjqMTa+ECfCjAW918Ka8kXF2i/ZuK8IAk1F4Yu2hDu4pLe7Z30KL1o7Gul2xmsVD9nFvUH05i7L1L+VHjusVU4Aa3dvAY0xqe45ziCpyi/ZCDpdwiUdCVzc1IZve0aMvFY3Jl/os+7xo5r3E6DjWGCvkDfM1xN5fZuIa1cOQt6Mxy1cVXymerO2w00La60D2fMufy3mF+hpgr+uRa5rrTxVcfv8SLgJMPFfK/y6ls3Jdz6fRGntUi2xVzrXKVuxwBzec4yCUsT9n8iZ8Y4gccF0wsIq4QpLU2HfxW3i6U08KRXteA5fqQN3dQt+ibu0knISSIT7MCJ21uxE6pndgin6W4GEl3z7xBxGCR+YV0MxN0qn8s7sg2vM2TJp5b+Log7dfAMnGssuFcGggNKoaJ1vArzQsYj7m3ROAx2uMAKLroOBPuI0KuyZ21E3JwYS1kxjf1ZQQCc+i4lFchlwdjt3riQ24Vlzptp/Wjqa7X2CSxnDP3HUH7Un7UOLqHKTNuXf5gQzE9xoekNM/Gld11xp4fWRw+r2jDMhPZu1GwFTnpfe61s+fDgbbpONQYS1V9SXWScQ1rzcg3I87xq5evkQPpWja9Th3lrj1fwwYSJ+PukRiSmOVec7f08XXdZyOTjb6Y587jm73TfI7LvoTlOZs/4UHe/UUu8uAOC4HfL/sd22wRAwuibyrfMynAJMZ/5YpMBLC5UppAIJ6/mCw3kfE24NVaaYc9aqFnGS62GQr2N//LZ4Ab96ezGJ8z/dB/EO4xGukBQZiwGV+jrvYzaSC0azrew2Je4FeWF2/W3QeO8WNB6nvc83YNM+He7n3eoyZ3rhfk5spaCDZRUYJ6NtmDVY5s251LeTWqFkFt9bW5ikudtrMaALZr6nqNTdDnYzlj7mtjBJW+lB/UNH+V4EWEMryluRK+kpdsIKZj2+qLMvu2SGtyIczNiZR4mcWFJFM8/HXr+ghpHH46HYcaI6yqL6nOJC9ZHTHyGb8O8BXs1dSl1Ffm2vkrcB/Jp2v+3fqF+s182stXhxmsKWmEKU5VnGLG/S6+B8Z+b8w0Sr2aBQHN57hMSFietPkDn+CYT6ropwXw9R7jEPcGTj7J+Aklk+cfcMqQRX1kUwreSEEP470FLsaYxO6LW/i6TtnZIJHj4pv8BGzwTBdMbKEFH2jw+dfKAI9huEMo9QuEgGPiK2jqOUoDoUfX0T41/OLz7riPx0+W6wMT6dG4uP4z4c7513qvJneg0+Xm2lo4Ox8Am6PHS3nFLGaL/ps+aE4Jf+0QzYtVXOqxzW74xfkP1w+otWQOSW1WxAJ6snkf5h2CRRG9wwKX8qPS22xsmn6AD57rLP7SAyydA/h5wueawzzNbfDd6E3WLd4Pwo0gX3Ei2uL9c7HwD6EV1oaLzMihliCL9cXkh3AEakTkQRW/PE8whaOfJb6CzfS5wPVr517Ul/pjxh/os2OxEHuMYY2zfr5KmPn7CKcipwxU7Lj3PEhrDNQ/ZKMF7f6YW6yo7FUIaD7HIS1hedrmj5ss0kLuAnKLn1iAcZjcJAO6aBHvnRS8NT9RGWDC/6Tw9Bc4GmfQz2zQ4Nj3zjlcQB7wpPi4VsAO+yDLxcne9Ia+VL4Pd9CF/XDnvM0gR41DyN1Ho3eWfxaThHOpbyJuDC7AA8AOFjipzjuuZ8J9RPw1uQM7IYc7OeNy5frx44Oq4sfkzHwAbI4eL+UVN2dU1PSQf5hrkjFfxSV2IV1G7xCHGJulWMCjlHsmTxzHQf6s46X8aAgiw5H5rRuHIR3/2ARu5/JsZN19ZiOFyS3orvENZKuOgi3RN//mON2QqLJ0itCsHKoN1uKc1Jy0b5bzRN6151zEOcR8TPWba9zO6QMfauY2Tj93D3SaHMJ/XIesT0ms7EYsp3zSe4f5asdrxMvilmDpBRF5AAAgAElEQVRkcU3uZXAI497IOS5QGzgvma7CjcMxF/Rr87UIaD7H4S1hedrmzzjXVZMiMA4BaSCMs6CaOAQUdw4VvXcUAeXVUQSf3V/58ez8XhGdcugKlNXGKATeyNc3xjyKLzPq0XyOy4qEpW7+jMNYNS2AgDQQFnB9aRcV96XTN63zyqtpUzOFY8qPKdKwtBPKoaXT9zrn38jXN8b8ZGJrPsdlV8LyIZs/8D1S+hqhCTr+z19ZHQdvr6ZV/YZ41/NfGggQkR7PQUBxPwfXt2t9J6/Wq7t38fSd/DgT7fdxTzl0Jp9adL+Pey3ogOwb+frGmCHfTzxqPsdlVcLyIZs/44BSTc9GQBoIz476/ugU9/tz8EQPlFdPzOq4mJQf47B8qybl0Fszv2bcb+TrG2Nek511Xms+63CqkZKw1M2fGvRU5jEISAPhMQFOGojiPmliFndLebV4Ak92X/lxMsAvUK8cekGSHxTiG/n6xpgfRNksFM1nBkn3DQlLu/ljGvW/YqAcUA4oB5QDygHlgHJAOaAcUA4oB5QDygHlgHJgbQ5wO0f65g+Hit57LAKmiOm/6xFQ3K/H/A0WlVdvyHJ/jMqPfuy0p0NAOaRMWAmBN/L1jTGvxMlWXzWfrYjJ8hKWuvkjY6YtD0RAGggPDHWqkBT3qdLxGGeUV49J5SmBKD9OgfVVSpVDr0r38sG+ka9vjHl5ou4EoPncAaexScJSN38agVTxtRGQBsLaUc3vveI+f45W9FB5tWLWrvNZ+XEd1k+1pBx6amafGdcb+frGmJ/JXheV5nNcdiUsdfNnHMaqaQEEpIGwgOtLu6i4L52+aZ1XXk2bmikcU35MkYalnVAOLZ2+1zn/Rr6+MeYnE1vzOS67Epa6+TMOY9W0AALSQFjA9aVdVNyXTt+0ziuvpk3NFI4pP6ZIw9JOKIeWTt/rnH8jX98Y85OJrfkcl10JS938GYexaloAAWkgLOD60i4q7kunb1rnlVfTpmYKx5QfU6RhaSeUQ0un73XOv5Gvb4z5ycTWfI7LroSlbv6Mw1g1LYCANBAWcH1pFxX3pdM3rfPKq2lTM4Vjyo8p0rC0E8qhpdP3OuffyNc3xvxkYms+x2VXwnLo5s/f78/2+fxsv3+p4/+27+ezfX5+t6zp73f7+Xy2H9/J6fgIekCv14f6QUv10ds1wMT/3+0fUhB9QTJfLLFt27+v6GtVf2Rv99TaMX5QH10fhwdgaO9ZeU7WtOby0Vcuf+DZANwhjhRHNh8R91QcPGo9SgOhVc8I+Yh5jPOTBMrKsGPMeyThO8LhAzpmwv1AGKErmxeUO9fOjSU/hq6qhZPyIQB58GRaXlncufyXAv7bfn9QPUjGeol3Vnu3be8bU4vx3PLvy8zlnmdYrhTpFe1T8cNiVD8nR3wiJ1CJCc0sJwhvYn+DB/s/KI5zPMiFpmCxfFL2CdZOce0XtXofegxHJcPOpuJQR1RsLjJsU47Q2sXqIBxLHYv6MlPbtkV91A7VErnYXVcKtWzbop+O73v+UO9mvTrMVwaz9Lkj5g/VkzTRO/NQVf8GgA/H3GBLRc9HQPM5DmMJy6GbP5svGlmhDsWEKaxJgcBFIdPj8aiR2YPOLl4/ny2tVVYveihLr2HThGxiJf47uzChpPHCZCYtAGWvcczpBgH4RfBqXGhi/UQPcqlGBoknp4CJnyxS8BNpuHQ22/GC/ulRGgip3BXXNjbEN8gj5hcXv+Nvyq0+fK+I09iYCfcRMRdzd3stnJsPI3IwNa/YeaEUtc8ZrgmGR+i6yDtjosu2842fG51fMC9kmz8wv1fW9BIKI9unqjuNc3LAwff7mk03BmNujnD38jWO1bnDD5NbbIKfa4Jn4kmtT04/nd+5vqKhCxqm4lBHvBZPVEPydUZl3Uk+eCxz7Lvtc9atBaGupKGBfoO/JJP2wdeOW5TPsNnj9JXjxvpWOT/CVx4zv1mHOFTmlDQPecyzjcP+ZyOTlyMxr5LXN/mp+RyXbQnLsZs/sIuOioQJwRWKH/KGD4Rmiw2SdwX/u/3at4joosD1gYXor32bqHVScPrTB2fwhh7zAgefWKD+zEJq10bnQpniguxbl13hJFg0LjSp/jNx98UfrzAp7OjKTwhVsqjbzqk0EHa6nNZUwy/IC3nfjNlYcHKGFy34nhZapngm3DPnOm6Uc+fzgGqbMeP6nV8LZ+dDB+Rsl2l5xcwLbADkJlPHSTvwh75BG3Pthbtsw2I9fVhKHLBi+M0fX6MTnue97rkzFT8a52RAzK6RzBwo9Hf5T+fsnbmzhR/MXAN+7R2rfUrXQ5329nw52jYVhzqCsblIxietGZV1J9n8CZtIzPqslrNnrfPdWCnVsnLcHXDf3qWXr5QT+2GUOQXzCX1W2bWR1oJ9F0hrb8xEiV5Mg4Dmc1wqJCwHb/7A5ghdiLiJ4Ne9zk4mirz4uuLw3f75QkDEDR5h4ZL3LcPV9mDMFbho31sL/oD1sg2LRzaRQn/+GHBhN9gYLISFotOeywf9p+COYyrjA9LOJzp5QFvvURoIvfqO9KvhV8gLNiTlyMrU44tVnn0+E+4jYu3N3fW1cE4+jMiB0TEtr7J5oSZiV5e5tzugdw3vsjkKOu8ePU+Sh0Sui+WwlfN9GucyTudZ96biR+Oc7DBxnHDroHzeNjLsHMF8tTtg3MLN3bkmaMxOWnxysuiDiwoOZgZPvDEVhzriLNeMyrqTjXOej7ApVMVZiV+Bo5KNPSBqa1k57j0rs7b18bVtnVDmFH5WA6TKNnqejYz2vpjBLz3OhoDmc1xGJCyHb/7AV7/ipo0rsOY6WxDYwk8f7qMMXyjcw5N5D6JjUvATDXlDZgdjrsA5/5DPYZICRWW/Mh3QdecYcYGiij/VYGw2LjSj/hNwJ3Hx+omIvaiVy3vu3ZEGwl6fs9os5slCN+VGzEv0Yn+CPAe3aL3vbCbc+yKgvWpyN0ctnJMPFM3+q2l5lc0LdTG68W6+DoHmGNS1inddtt0csrfxBG7A5s+v+RpS9kAIUnMcp+JH45xsEUz6APb4txPlOYLnUP3moK8dyRxVk9k2n7wd+3tEgs81Rk+SmYpDHTHW1AyXr0LdSca6W4cw+WriLD8/Wd32IYJZ2xYxqK9lpbiLpiYU6OLrws9GJgVdMU+YO3XJIaD5HMcECcvxmz9+UyYsIvFEkOzycwsEcs/2RZML6d8xKZD+DtxY/N33j7PfW8ELH98/xGZUCD7ubTA5myiuijwTXKxZvPBmsMC4Z/pzeaJfiGnvk5zMhHiDn+wzcesD3uDKJLpuSAOhS9nBThbzAr9cXjw30Y91yvyqxPeg763dZ8K91XdOviZ3sEEd6gUek0ktIuPPGyT3usfknHzgMO25Ny2v0ny1BAfzDPMwXMW7Ltv5nCC57B768vlSkr/z/lT8wOM/A4XDnxm7TG5dnUjmiPjpW2YpW7MQCW8zzDX0LW4iunPR5xP/m0Y7Zi5pmopDHRFX1Qyjt1R3Aic811iOtXDWcyvlNJkbuXFRAqGxz07cJUsztnfxlWDuosrGMFqrVnFKyKu8doUXBNqejYy3XTHPmDz1ySKg+RxHBAnLEzZ/zH5I/E0AWiTcxOAGPzNJZK8w0yJOddG2Kqh8gZOKD/bb6MuKH/fDc2mBq3gjyeltW1RlfUgsDBbWL8lGLk/103bbFgo/bavCnQjxeSci7FfbqETvlTQQevUd6ecwp4v2lJs0L94aLFZCTrAXNfhi+WvOZ8J9RMQ1uTN2cE2h4+iqWjgnH0bkwOiYllfZvIAitm143At1GsY5+sS9ind7tpEb9NTV9bBRSRvJVeA0+Mc+BJIut11MxY/GORkexim8+fybzhHAEdoPpaCBH6ArnZeQNva0zSfPPb+5IPrNWjr/5lQc6ggXcmjigP+7+YRxndWdWKdAZ5Yr35feL3GWtlvdYW1D2+rC93yiTpS7MnGXO80n0cVXH7vEi1DzfbiQf+CTOWZ9szpTzqXTG3lWi25XzLXKVe5yBDSf4yCXsDxl8yd+soQfcFwwsYi4QpDW53TwW3k7CaWFI72uAcv1kRa40Teni05Cgv6swJUftlI7gmZyO8XFNLp7ZpecwSLzC6ljJuhU/1jckW3Y2EkTj0Ws7+Pf+jEmpIGAzV91XsOvNC/gW8w93IFjmX8geeVxJtxHxF2TO2snjMO7auGcfBiRA6NjWl6FvB+MNKmFVbzrsu15Eh66ZL/J/JX4J/e6p2UqfuzlRZyT4wO7iSX+jw9I3BxBcpRCv+dHKgvzNdoIyESYGy0+xbWG3yxvtMWYH3prKg51RFZVM1K9ybiuzaeTwzzF5zJnIwfStWx6nTrKXdfXsqx3EnfWvsCNPr6u+2xkUtIX8wLJfKmLms9xiZewPGfzJ7z94v4iF3nOh4XH75f9vYBskoFF0TeV75kU8IZJDm66YKqaNCEe9CV8N5EJry4Wdthzr9ydDBd7Gwr2N//LZ4Ab+TNRXjvjc6Yf+g/CPcZVfhiNC4HYa9SZNBBG6W/RU8OvLC/egLvPcayMb4uPo2Rnwn1ETDW5c3agTt1VC+fkw4gcGB3T8oqpsV0xQx32dbyKd522XU0pb7qn8+TufNcV9LhOU/EjySWJMsvZzri1sjFPLm/xwdrqTWT2bZHW5ML7UbEpiDtW+5Ri4q+ztwiw8ovPp+JQR+xVNSPVm+SlLp8HOAv2Bq03nb9xjKThidfgB7duFjvN1dDLV4cZt6akbzCbaKs4ldU02NzlbcCbjj1jvzfmuTKn3gACmk9A4vhRwvKkzR8Y5GbXP1mUwG8CmU+xyK6QCzKfZPyEksnDQxXadanCKeqj5vNFTm+BC7/1kcbuJxb8u0JVLkOxTfWZzn6RZxKcFk12UQ4+0ODzH+MOn/ileerFHSLdWSAYEe9fGgv0PnqUBsJRvT39a/iVjwdjCTb9uBVKAd8eRwf0mQn3AeHULX68ITcO76qFc/JhRA6Mjml5xSx8izGbPuQh2+cO1f2amhHfvC1aTATAXv7QZDgMNdnyueBnovi2y9n4UT0n+3k9maY9jrT+83OEzyXJE3Q3H6RxD2BGb7Je835A7msTWecT76Pry/lXa32s3Gwcao2uWDNq607KDVgjAscOcTbWHvpc0LvejPrSMRRqWUXcrVjPIN/PVwmzfJwWOWWAsHxIx7GvXSmX4LkEuNQIZH/MjYZU/BIENJ/jYJawPG3zx03g6caBC8gtgOJiEofp+tEFCOiiRbx3UvDW/ERlgAn/k8LTX+BonEE/s0GDY98753ABecCT4uNaATvsgyx3Hu6cH84natPFQu9BnCOOxuYs/2r4JeKWJFGUSyfZm4KfCfcRENTkDuyE3CQ5M+0wdrmHK9ePjgXQRVXltRDk8Ljnxhv4uOpxWl5x80tF/c/yNnhOqslz5kPit+Vs4hds2tMHtxpr58rMyA8OXzqeoS7QsY+RwvOk05fLuvvpw5f0UOa01/iG/ZDOa3wS/YMPN1KOScZOvj8jh1pCtjgXsMzynsjX5BNzkvMPt3P6wAc6FvK5jdMt3QOdbu5za30812btSdyS3pnvH+YrN3cluFjcknsZJuzmj5NyXEDPXskck+kq3Dgcc0G/Nl+LgOZzHN4Slqdt/oxzXTUpAuMQkAbCOAuqiUNAcedQ0XtHEVBeHUXw2f2VH8/O7xXRKYeuQFltjELgjXx9Y8yj+DKjHs3nuKxIWOrmzziMVdMCCEgDYQHXl3ZRcV86fdM6r7yaNjVTOKb8mCINSzuhHFo6fa9z/o18fWPMTya25nNcdiUsH7L5A98jpa8RmqDj//y16HHw9mpa1W+Idz3/pYEAEenxHAQU93NwfbtW5VWJAevV6FJELe3Kjxa0SrLv5JJyqMSLq9rfyb9WdN/I1zfG3MqLleQ1n+OyJWH5kM2fcUCppmcjIA2EZ0d9f3SK+/05eKIHyqsnZnVcTMqPcVi+VZNy6K2ZXzPuN/L1jTGvyc46rzWfdTjVSElY6uZPDXoq8xgEpIHwmAAnDURxnzQxi7ulvFo8gSe7r/w4GeAXqFcOvSDJDwrxjXx9Y8wPomwWiuYzg6T7hoSl3fwxjfpfMVAOKAeUA8oB5YByQDmgHFAOKAeUA8oB5YByQDmwNge4nSN984dDRe89FgFTxPTf9Qgo7tdj/gaLyqs3ZLk/RuVHP3ba0yGgHFImrITAG/n6xphX4mSrr5rPVsRkeQlL3fyRMdOWByIgDYQHhjpVSIr7VOl4jDPKq8ek8pRAlB+nwPoqpcqhV6V7+WDfyNc3xrw8UXcC0HzugNPYJGGpmz+NQKr42ghIA2HtqOb3XnGfP0creqi8WjFr1/ms/LgO66daUg49NbPPjOuNfH1jzM9kr4tK8zkuuxKWuvkzDmPVtAAC0kBYwPWlXVTcl07ftM4rr6ZNzRSOKT+mSMPSTiiHlk7f65x/I1/fGPOTia35HJddCUvd/BmHsWpaAAFpICzg+tIuKu5Lp29a55VX06ZmCseUH1OkYWknlENLp+91zr+Rr2+M+cnE1nyOy66EpW7+jMNYNS2AgDQQFnB9aRcV96XTN63zyqtpUzOFY8qPKdKwtBPKoaXT9zrn38jXN8b8ZGJrPsdlV8JSN3/GYayaFkBAGggLuL60i4r70umb1nnl1bSpmcIx5ccUaVjaCeXQ0ul7nfNv5OsbY34ysTWf47IrYTl08+fv92f7fH6237/U8X/b9/PZPj+/W9b097v9fD7bj+/kdHwEPaDX60P9oKX66O0aYOL/7/YPKYi+IJkvlti27d9X9LWqP7K3e2rtGD+oj66PwwMwtPesPCdrWnP56CuXP/BsAO4QR4qjN/Hvi7CWOAPudBylgdCh6nCXiDmKOcGFldkbY4jPiarD/h5RMBPuR+KAvmxeEOCunRtLfgydXgvjWIX6htyDMJY/TsurnXlhH/S/7fcH1YNkrJd4Z3V32/aeMXMjnltsjU756+s6ltuP85rWqfhhMaqfkyNCkRPcGGY5QXgT+0MtyI5B8dG6UWlL5Iu3H/yJKNx1NhWHEAhs3jPc0nzQOYnVQbiDDNrTqC8ztW1b1EftUC2RY631IurHNTI+P1A7cCX5HO9n4wHWUSjIzDZqA0szHA/zlan/6XNHhoXBK8VjZx6q6t8A5uGYG2yp6PkIaD7HYSxhOXTzZ0s2coL7oZgwE0JSIHBRkCaGGplgmzmBDYa0Vlm9aFGbXsOmCdnESvx35mBSSeOFSU9aADLO+ls45qzIMps5blNKsuP8wPhi/fg+9qhGBsvTc8DET9op+HYfzbRhnz1eKCdUZ/uVNBDaNR3vUcMvhznGxOw3Gpwwtxy2GFKJ48e97tMwE+59EdBexdzdWgvn5wNFs/9qWl6x80IpTl8jcb0zPELXRd4ZE122nW983XB+wbxgZZBPMO/n81Ip3vPbp+KHzQut5RGBfE4Obb7f19R9XOS9ADdHuHufjRHf4ccJdWOHi45rFA8uloDDTSdTcQhhUK4FlfWErLniBo7Mne+2z0W3xoN6gVy2p8BNg6skk/aBa5Yf8HyBaxJ0MMfC+AmiO1x1dvGay69NWZCCxltOjvCVr/+eEwjfMvcAd4yZgcNzkqxfzX2PZ8LFWgCPxFxrQ+WuQ0DzOQ5rCcuxmz8wsFGRMCG4QvFD3vCB0NKFJBT3X/sWEV0YuD6wEP21bxP1TR5pQQJv6DEvcDAxov7MhOFiQDJYLUxUjZMGxSXVzSwc/YSXvKfkPcnlqf4zcffFP4ufvw9+8XFgYOvOpYFQ13uslI2NGytoYmTjlzYWsHs1Mlj+5POZcB8Rajl3ns9cfn9uqIWT8WFEDoyOaXnFzAvlmPO6nPYp805adKeamGvrs7BhgMTpnO0X7QnPkfitp1Pxo3FOBuAs3ma+FPqzcwQ8TGXzbCM/jtaNvXHgdYcNraO2ALDBx6k4hGIr14LKepI9cPsxzXCnlovnrt+Z9ekOd0o+B0hFrvI48uMuaLvtpJevLp702YIPo8w9vs7s2kjrAW+avdsbM6tMb96OgOZzXAokLAdv/sDmCC3Orvj+utfZyYSSF9VQUH0hIOIGj1Cg875luPgNBqkfV+Cifd8r+ANayjYsHtmEC/35Y8CF3WBjsLB+0TxEzbl80H8K7tFy2PnPEmtSm341sIwl1lxzLg2Emr6jZWr4FfKCjUs5YmRaN0exipHnM+E+Iq7e3N1WCz1nZuHDiBwYHdPyKpsXaiJ2dTk8DDNdaniXzVGMnvwWv1mZy+E67fs0zmWczrPuTcWPxjnZYeI44abLfN42Muwcwb0NDCC3cPNo3SjYcr6bB856/kEYVx2n4hAKulwLKutJNn55nsHbGVVclNYogQ+SDRQgc8pz3Qny62pnZ8/nYCb4Fu64k91YypvlibbTL/v42rbWLnMPP6tByGUbfA6hv3zsi1nWpy33IqD5HIe/hOXwzR94BTw+28fimxVuW1TpTnOU4QuFe3gy74F0TB6NCxmuwDn/kM/ZhFH2K9NRkeeICxRVPOkwNq1fHZs/sLkUE2i9O4Q7iY/PqxNxcbivNMG5FANRWn0hDYRqBQMFa/hF8u5tV02QNv+YIwMd71A1E+4d7mddanI3VS2cjA8ZoJ03puVVNi/UBejGe/q1zti3inddtn29Tep+tBzPbP35+d1+7ddPx9bnaGXM2VT8sHmR8GLmcANB0gewx7+dKM8RaJ2C4Wzhh5U9MI8Ubfn1gP2NFcFf7PsN51NxCMVfUwuq6kmy+ePWF0wumrjIr/OsbltjBL6j+LhTjusg59oSvyt8hv7iprnEYWlTKCi856SLrws/GxmUu2K+Jz1qtQIBzWcFSJUiEpbjN3/S141x8U2KJVfIyb206JL+HZMH6e+Qc/bcd5QNSPj3fGwbfp3d9yefzAo+7n3C7mwmk1QhkQQXuyY0PsNCksEC457pzuWJfiEm91yQ983U797gFwWxi9Nvc/E5sOiMCsmZNBCI0EUXNfxyeUH89D9EuMcv2BjFXL4oJNHMTLiLTjY01OQu5AEeqPGYTGoRGX/eD3Lv0Jj0YwrXsoZYZxadlldpvlpAhHmGeSCu4l2X7fq67h4OfU2anFNT8QOP/4wPHP7MXMnk1tWJZI6AmpPZgQ2lmvXHgLrB+Ju5ZGX43zPKZG+4MRWHUPxVtcDIl+qJX1OYOO1/ljstXPTr0jT3ZM7j+I6CE07JnJjKpPa4DzIzGaREapPuk3iQnptPu/jKxJLVFVTrq7iX4uZt7K1dnc2a2kRB7oqZqtCriRDQfI5LhoTlCZs/+LVw/0pyKBpuAnGDn5lMsleY6QRBCw5tq4KqUHzST9Wy4sf9QF1a4CreSHJ6YeOmyvP81W4SC4OF9UuykctTn2j7YdxJiHzejQjgDWsPuCabbURX+4U0ENo1He8R4oNFF8MvJ5Pk0ede2twRP7k77nK3hplw7w4CdazJnRHHNcX2uaEWzsgHBOWh02l5lc0LKEzbhh/Wk/ENojDOwyZ/rJEmbvifLab3bIPu7Ohqfk2tDZwG/6BgZzrvvzEVPxrnZHhop/DSudkgnM4RUJtoP5SLSn4MqRtFW553ns+iz8j9q0+n4hAKHvIMdcAcs1qA5IFP8UPDBu74sU7zU+IibafzH23Dbu6dp1zHsq4NbRxU+hx0SFyV7rP6g7bbTrr46mOR+BNqvo+qinsZbuWc7+V3D9CumPcUatutCGg+x8EvYXnK5k98fRJv9rhgYhFxhYBOJvlk5BYgZnGcFo70ugYs10da4EbfnC5biMLDmqA/K3Dy5gZoSO3A/b0jVxTdPTPZMVhkfiHtzKSV6h+LO7LNfRpjmqXJx8Yx7g0gaSBgD686r+FXmhfwLeYe7rijyxtaANHm265mwn0ECDW5s3bCOLynFs7KhxE5MDqm5VXI+8FIk/pXxbsu237eKs13yYamm+vH1eeDaGXdp+LHXl7EOTlu8plY4v+4YcjNEbtrjD0/PILD6kbBlrPjYsHnWSJvvDEVhxAOVbUAydtTm484Xmu54+Qw//C5zMWY03SNml6njvLXnL8gGW25O7U+Q//43BLugCL7x2rSZxVRPul+9WUfX9d9NjL49sV8dWbUXi0Cms9apMpyEpbnbP6EjRr3F7lI0YTFwO8XfW0pBpAVd1gUfVP5I5MH/3BsJw+0+LW+oOvoJTqDeNCX8N0kxNsQNzmQSu40w8UKQcH+5n/5DHDj/kwW43OmH/oPwj3GJGyOJYuSIA9+cHEEofoTaSDUaxgnWcOvLC/evLtPOeZ4Fxd24zw9rmkm3I9H4zepS7XBGoI6dX0tnJkPI3JgdEzLK6bGdsWc1L+amtH7UOJqSrl+pPPk7nzXFfS4TlPxI8kliTLjizBPmk7JXMnOEYnMvi3S6t5WHPWV6ywuZCvFw19Lbx+gnpeeTsUhFHlVLUDy9jTBvI47B7gI9gatI1l/TWAZd+p9DhCJXIU5HC3ymTfugp6bT3r56rCla0oIJa35Vdxj8NydK7IcgvXysTfmsmaVuAMBzec41CUsT9r88V93sJ9UxU8FXDh+w8K0kV0h15oXd1/EM3m+IJchi/qoeX8fPdD1FrjwWx/odX3rly9u0td19nzPcfHSfpFnEpwumthCCz7Q4LNXx8Nf5RqGO0QnTcqeFwh/08PFkHIIdLUfpYHQrul4jxp+8Xn3WKEcOrnyg9txr/s0zIR7XwS0V03uoIfjsPmkNOXxebVwdj4ANkeP0/KKWfgWYzV9SP2DuSrypop3Pbatc2AvryOGwzC/WD4X/CzGepHAbPxwtSB5wOLmZD+voxKPEKP13431yBEnmK9ngoIdfgyvG6It3j9nP8EnOH7PyWwcAhSKtcBgXxinVdw5xMVYU+h633EYagrEVDqy/sL4wbE2+BxsilyFdSjipbfZ6n+wdeJJP19jrmjdycdqkXsmPhZPWPMk9YrLYQNG/WdVRmoAACAASURBVDE3GFHRyxDQfI6DWsLytM0fV6T5DR54GOIKJ1fcQRctSH2TR4DUTw4GmPAfTx6ws5/cC/3hhC1wrhHiDPqZDRpQUzpyuEAfsEPxca2AHfZBlqMFGfpS+T7cQRf2w51jmzAxoJxkD8wQdd/R2Jzln8WkwC8RN5IUDjfAEC1Ybgx8JtxHwFCTO7ATckhy5lph7I6thfPzAbA5epyWV9z8UlH/A1dgXkrqQxXvduakGrwzHxK/LWcTv+CTd/qAV2PtXJkZ+cHhm5YGVxfw3Ehxwu1OXy7r7jP1X+THCXVDsCX6Bn8wJOUXDf/Sqxk5ZACwGBZwcjjDWoD+QZOgg1lj4fxgrnHA43bXj3IRfKAcd1zj5j3OBtwDXSYn+D/VDZs11A/QYY7Y53Bf4Cq0uz7RbqvvoOfs42G+WhxinBbnhGc2D8m9LK4dPFMsjY0jeB6OOXNeb9yJgOZzHPoSlqdt/oxzXTUpAuMQkAbCOAuqiUNAcedQ0XtHEVBeHUXw2f2VH8/O7xXRKYeuQFltjELgjXx9Y8yj+DKjHs3nuKxIWOrmzziMVdMCCEgDYQHXl3ZRcV86fdM6r7yaNjVTOKb8mCINSzuhHFo6fa9z/o18fWPMTya25nNcdiUsH7L5s/e6Mry+KL8COg7mVk2r+g1xrue/NBAgIj2eg4Difg6ub9eqvCoxYL0aXYqopV350YJWSfadXFIOlXhxtP2dvDqKmtT/jXx9Y8xS/p9wX/M5LosSlg/Z/BkHlGp6NgLSQHh21PdHp7jfn4MneqC8emJWx8Wk/BiH5Vs1KYfemvk1434jX98Y85rsrPNa81mHU42UhKVu/tSgpzKPQUAaCI8JcNJAFPdJE7O4W8qrxRN4svvKj5MBfoF65dALkvygEN/I1zfG/CDKZqFoPjNIum9IWNrNH9Oo/xUD5YByQDmgHFAOKAeUA8oB5YByQDmgHFAOKAeUA2tzgNs50jd/OFT03mMRMEVM/12PgOJ+PeZvsKi8ekOW+2NUfvRjpz0dAsohZcJKCLyRr2+MeSVOtvqq+WxFTJaXsNTNHxkzbXkgAtJAeGCoU4WkuE+Vjsc4o7x6TCpPCUT5cQqsr1KqHHpVupcP9o18fWPMyxN1JwDN5w44jU0Slrr50wikiq+NgDQQ1o5qfu8V9/lztKKHyqsVs3adz8qP67B+qiXl0FMz+8y43sjXN8b8TPa6qDSf47IrYambP+MwVk0LICANhAVcX9pFxX3p9E3rvPJq2tRM4ZjyY4o0LO2Ecmjp9L3O+Tfy9Y0xP5nYms9x2ZWw1M2fcRirpgUQkAbCAq4v7aLivnT6pnVeeTVtaqZwTPkxRRqWdkI5tHT6Xuf8G/n6xpifTGzN57jsSljq5s84jFXTAghIA2EB15d2UXFfOn3TOq+8mjY1Uzim/JgiDUs7oRxaOn2vc/6NfH1jzE8mtuZzXHYlLHXzZxzGqmkBBKSBsIDrS7uouC+dvmmdV15Nm5opHFN+TJGGpZ1QDi2dvtc5/0a+vjHmJxNb8zkuuxKWQzd//n5/ts/nZ/v9Sx3/t30/n+3z87tlTX+/28/ns/34Tk7HR9ADer0+1A9aqo/ergEm/v9u/5CC6AuS+WKJbdv+fUVfq/oje7un1o7xg/ro+jg8AEN7z8pzsqY1l4++cvkDzwbgDnGkOHoT/74I6yP5BZeTozQQErFLLiPmKOYEF1Zmb4whPieqLolJMjIT7pKPLffZvCDAXTs3lvwYOr0WxrEK9Q251xLq1LKX8mqn1u+D9Lf9/qAxnozfEpes7k7bUTfHRfA6ciWfQ9J++7GAxmgXxX0DAS/lBwQvHRvn5KgmYs5ByGJNOBb7Qy3IjkFx5ALIhKboUPGs7BOsneLaLyr1PvQYjkqGnU3FIRQVi3GGWZp7Op5ZHYQ7yKA9jfoyU9u2RX3UDtUSOUbqDRVir6J+VFeK60TJ53gfuJ4d0yAL61fW6YtvHubras9G22af4S6GWc2diMBhDp/o22qqJSyHbv5syUZOACkUE2ZCSBa1uLhLE0ONTLDNnMAGQ1rXrV70UJZew6YJ2cRK/HfmYFJJ44VJT9qUYZz1t3DMn9RxZjPHbUpJdpwfGF+sH9/HHtXIYHl6Dpj4STuLweyjmTbks59oJX+o/roraSDU9R4rVcMvhznCxK6ZDU6UWwY7DKnDksqM9b5N20y4t3nOSxdzd3MtnJ0PPKrtdy/lFVvrSz77uofmFTtPousil4yJLtv4YYx7yHa+uxrj6jKptZnNcizbBnU+rT39c18J4b32S/mx54hps3jSWh675HNyaPP9vmZ+xEXeC3BzBOSUEd/hkssd7uPmETq3BL92Tmp9cvopJlzfHVOnN03FIRStxQnVkXx9Wh6vHNbunpDzKi4ytST1239IReoNkpFOOX/huYOsy7GCgs9B1MqldQtaoa652LhxCJJ3H4/wVRrvKdfS65x7UO9SPAHH9P6x+eFIzHfnS+3nCGg+c0x670hYjt38gYUfmZD8AvTnh7zhA4HYYoPkobj/2reI6KLA9XHF4+f3175N1Dd5pIUHvKHHvMDBYhr1ZyYMFwOSwWphIwyvsHC7cE5xSXUzC0c/4SXvKXntuTzVfybuvvin8QsPyyk/BHiqb0sDoVrBQMEafkFeSB4FrIhrNTKkw7kXM+E+ItJy7jzPUW0zdl2/G2rhZHwYkQOj41JeMbW+HEdea9M+ZS5JC+lUU34N9aNrPs3irYwl2ZgOXnkOXvngdCk/QqDCSeOcDFrsHGjmS6E/5JjMEf4DIRbrLK9giTl21o1qn1JOdNpjPB92ayoOoajKdaN2vKbrPdeP404tF7vqDYpNOuV5ZSdW9vnC6Cn5HGztjAtn16y7hfVrUHL/SS9fY4zlGMrc4+esXRtpLSi7ESR6Yw4K9GQqBDSf49IhYTl48wc2R+hk4orvr3v1nTz055OTKw7f7Z8vBETc4BEKdN63DFdb4eYKXLTvrQV/wHrZhsUDv+ECXXeOARd2g43BwvpF8xDV5/JB/ym4R8vhk+E0sdbf/NOm4BdWceBcGggHVHZ3reEXG7+UI+xJjQyWP/l8JtxHhNqbu9tq4WR8GJEDo+NSXmW1viYKV2u5BynoXcOlbN6BzoVjqB9S/kNM+ZyQ2yzFcs7cVwhxt/lSfux6AmuX+jnZqXOYu+mSyRFsKGfrCV7W6gw5Lzm8/1C91zvwjgjxPjlZ9GCdbJgTFTdcTMUhFH+5bji8i7WnmjtOXxUXe+oNik065XnlpPl1ddnnYKtqXJRrXND3P3tXgiQ7qgP7XO9AfZ4+zb/MHKZ+sAiEFsAYu8DWRPSUzSJSqURgyt3vSxdjej3mV1t7kO/wF9XtMeQYtokc87lt11p8hwGL5zzeNS6nH/7AK5j52T4nX5a4/QKBkwM+PJITRXh4ct9xBbuH3vyJC1JvHynBBR8QZrZgtHExGx1xLrjzY+KDEmFM36Z/o5ntX8B74Z9sn+smdmL8FsYO32gT4bChCR0852SjS7WR45IHbC+QkWNiO1u4/2ol3md43xM7rulv5cL19DAjBs7GrboazEVhDvNf1QQOurR0amy3Dsh5t7qeCmPWfRHWIXAyfob+aP0k9bNvb9VHC7zns39N9uZIHx8vktcDp6XdsEYoPAtxVaH7tnivobYsKo5hitr0vwqkYC6s33uzlIaQ655jUQuZwxCHRu4hhz+qdg5pcSDfIN+0S0lX0DbUZd99eQdm6M8Pu1MNupD9Qg2+fjmk142fjRzhQz5/PVIGQGPA4qkxc7xc43L+4Q993RgnX/JtgJTIizLfFyXzon97o8loKvqH2jBe/D1et/lAi6mvQ/fwMFd8k6JgrB0whTGRXwwoLyh48YfqDjNs+AQuMO/MHG9f2Fd8qn3jw4ZQC7TFM5ZjvuGBRfs1AnUMvUKbCHqP62p69BXigvSp/q585C/WZ21ch/+I5ZV4P4Jba9sTOzigTvkCz0mSi4r5Fwctyg7PybX1oPF6tPxWXdEYHAEb4+3w0r/X1aWlwbFPaUgbU/Mlls9e+47QTNveqg86OL33fMKazSqFX2MX1kohJiHGZI3I377RgdDb07yqLAn7BLwnKuv1uzFM8t800ke5p2YpDSGXu/KGa6/N1/TWWI92jmgxapxqNeI4s48s8hniwl/S8WD/iOcCa4OM1OpSM4GHVLfGxZBei9gEP9gcRnvzLu1RPi9cH4Z8XiNchkJgwOIpkDJYpHF5weFP/B3bmCjKJBESZ9gcykm0TO7lIUVpq6zr4qWRfOi3agFLuTCyjS1NcB1vJJU+diGP/4oC2jgWvghceFyofTEMb19iKutP816MLcc9NAnjOrHCz++v+9fUND8Kw1032kTo6jy5UY++yrhEADH2tU052GZ6nexDr7mVeO/FXGsH/IJO3afENc4pvk/aQN2bCwGvhLHm5+p1t+qK5XrEjq/LeUvNWTB3UU6D2FS1VBsbwaCXwTbkz4N5vTUm86W0T7G4+xKP1GJu2a36aEH3fEIsaGOBu8gvfnaFA2U8jymnoKeyHxqvFdfYVH0DBJnSLo9hKtd9Fbc22MXlS2kI+QpxruYN1D4fAmUNdsdpSIulpv1Yaf0r6zDM2jXFi9uGOvSlaifmZKNrXtT2r8nSVy+G9Bq5wnkFO4H3Ma48cI3XO2H/w/hsx7wWX4yHXg/5TI3Y/TIMWDznhULj8pLDn/z6JH7ACc7kJBISAV3o6eQPGxC3WNHEQe97yAp90jfxpEvGFio8lrRYkcZwyxJce3Gg44Cp2iflxbUNZW6xE7hguJB1YVGk9ufyjsaWvo3B1eS6KwakT+1Wmwi1PlfV9fhG4wJYQjna6EBF+ow6RA+ZqeoLFyvxPsP9ntj5cdI8/HYuXEsPM2LgbNyqqxTLk+i9nfyrNF1aGhyb5o9Deb1nzMKXa9a+M2zfqo8W0Bqf6ppcPmA5f8KP/gDvYFT3GDUc0Yegk9r6UneW6q6GKWsy4l5kzQIPl9IQgIL9X2t/itr7y2K+wh4ya8m1kbQT4gnao5+5P417ji3do9J7ClS+p/ZxqzxWKO3FnGx0zAv1b1YmI9+/GNPrvs9GjvExn78fK0MgM2DxlHkZKdW4vObwJx3UhH+RqzjggQT7J7/RwZI7bIrYGyBnFg95U0MXPY+ltbiCP//lsIRFSB4Dvn3RTtizlfKK8eKrIWH/8lfGgbfynwAJRgXMzD70n8R79qb9gEDbHuUq9+dX2kTgLa8v6dEXi0uEFcoVjfk2keeWfq9304+wEu8zXO6JXRgH8tS3c+FaepgRA2fjVl0JeXPID8itMTd3aWlwbJY/YOyevN4zJtiLvlyx9g1xHDvdqo8WUMJV0ZxxXVknfVtyeEgPTEib+lhFbXj4/8n2y9q+O6Y7103CRDmJ9zPX/D7EequlNIRgduUN1N5fEr774nRCizBeT76hWIV7Ea9rx3TTjzkNw+ZgqkEXFbuo1TcvR/UauJX3lCs/GzmuR33+ZpxsbJ0Bi6fOzdEajcuLDn/gGxz3DUH+ViCAjgcW7hus4lQo1PLkHpMtaw8PVejUpYuVbK8cPpajh2WPBd2L5sUFA3wkvscFqvbrOuIY8C0P4zJvqFyA6YZJ3IgDhtJ54XX8zFMZp1HewbNol4wPtfmTxyPXjV9pE2Hc4njPHn3x+eDGi/pKHLp7orW40aaaGEd7rudKvJ/zJPTuiR2ME+bhnblwfT0AN2c/b9WVmOsbHrg+xRoCeTXP1y4tjYwtrhswPl1/hbxOx+zwJeUmmo9g3Sm4aHA3ofpWfXTg7V6TPffaAUyZ/+U1orJ+0rgi3MGWNi5q2LjswyRjDH3lh9DGsJdUr6YhcNLzVJtPHfO1K06ntHgg34BjlU8Rr5RbDmBOw1XmRWpz8M313O++q3G95lilraWHzedpU3uun8hnzF2T14dxn++Li43Uz4DFs5+rVkuNy8sOf0KSphvMABMehqQHUym5g60yIQmb1RYLuD4uDo6Y9EMW0vEEV/qZ7AsHNBhS7VriBdoDnyU/oRa4wxj0dvmBxPWGvmX7Md7BFsYRrmHMvPCkNuXA4O6pT2d7lf88J0RzFJvKG+FGakeaUNO33q/E+wzHe2IH46TYCAGBuTs7F6YxUX4ThgeI237eqitpzejI6SwWZM53aUncSLfDFsaGHBvaA55SD0JeF8aEvilHE18AEeg6tevgCfrO/LxVH53AGYfCWzaBvzJu2Dyul2Ls2oZy4RBFiGuwDQ9maE+U8odgBwMi1z2YVHzw5YaiLTLU5bcrasg57flrcBQ4RvEk7XvihLUmkY3rJXuAoZlvJOOkDGzhvOKuS9vw5XPf/ElDqPMC5hLiMc0LfYxk9+aL03r1PBBfJd2QMuZmhc+gmXIMaQ/EbCoFp31W7FrxdxiweM7jXePyssOfedDNkjEwjwFtIswbwSxJDBjvEitWdpYB09VZBp/d3/Tx7Pje4Z1p6A6WbYxZDLxRr2/0eZZeVrRj8ZwXFY1LO/yZx7FZ2oABbSJsAH1riMb71uFbFrzpatnQLAHM9LFEGLYGYRraOnyvA/9Gvb7R5ycL2+I5L7oalw85/Km9rgyvFq73emb++wiAUfpcETcIcz/etYkAHtnnNQwY79fw+nar79TVfnn3Wzp9pz6uYvudujMNXaUnsPtOXYH3sz/fqNc3+jxbNyvZs3jOi4bG5UMOf+YRZZaezYA2EZ7t9fe9M96/H4MnIjBdPTGq83wyfczj8q2WTENvjfyefr9Rr2/0eU919qG2ePbx1NNK49IOf3rYszaPYUCbCI9xcFFHjPdFA7M5LNPV5gG8GL7p42KCX2DeNPSCID/IxTfq9Y0+P0iyzBWLJ6NkuEDj0h/+uEr7MQ5MA6YB04BpwDRgGjANmAZMA6YB04BpwDRgGjAN7K0B6eTI3vyRWLGyxzLgkpj9dz8Dxvv9nL9hRNPVG6I87qPpY5w76xkYMA2ZEnZi4I16faPPO2nyKFaL51HG9PYal3b4o3NmNQ9kQJsID3R1KZeM96XC8RgwpqvHhPISR0wfl9D6KqOmoVeFe3tn36jXN/q8vVArDlg8K+QcrNK4tMOfg0Ra870Z0CbC3l6tj954Xz9GOyI0Xe0Ytfswmz7u4/qpI5mGnhrZZ/r1Rr2+0ednqjd4ZfGcF12NSzv8mcexWdqAAW0ibAB9a4jG+9bhWxa86WrZ0CwBzPSxRBi2BmEa2jp8rwP/Rr2+0ecnC9viOS+6Gpd2+DOPY7O0AQPaRNgA+tYQjfetw7cseNPVsqFZApjpY4kwbA3CNLR1+F4H/o16faPPTxa2xXNedDUu7fBnHsdmaQMGtImwAfStIRrvW4dvWfCmq2VDswQw08cSYdgahGlo6/C9Dvwb9fpGn58sbIvnvOhqXNrhzzyOzdIGDGgTYQPoW0M03rcO37LgTVfLhmYJYKaPJcKwNQjT0Nbhex34N+r1jT4/WdgWz3nR1bicevjz39+/z8/Pv8/ffxT4/z6/Pz+fn39/H1b139/n38/P51/sFGz8KHbAbrSH+kFN92cc1xGTf34//0MGMhbU5he3+Hw+//tVsXb1R+NVL/04DkeJMfQJfACHvsy3l9q6Wt4+Y5XiB8jO8J77At+USjdKxhE5lxoBnIFPbSIMmDrdhfnqtEj8FduIcyzDSX2k+Zab3Xq1Eu/djlfmdt3Gf5+/fyhnkHil+ODcQ+Jeyyv1sWOtkN+K/PCpY+waY4FGt+nqYD7N1GSeaYhdG1ELhV5yf8ib7DMZ7suxGZt8NRcTxV9bX2Q8Z0pv00cvyC10lJ1JWji0ltCY41yI1nXPRd775VGjjpOuc803rpbTUCQhxaa2jjTyvGijyD+U8RxbKTzZXm2e5zxVrkl0LH6f7ZeaqtvRMOdyllOB0+RkxgxtUxWH+dWS03oV9g70uUOMAyWksn/q6n+AxdM+HxjLml7PgMVzHscal1MPfz7kICfBT8lEWBBIgsBJQUvoPW3S2MLF/37DwkFzlbeLNjn0Hg5NikMsgj8MB4sK9RcWEO1QRgAbi7DP9IAAcBV8eVzaOAEHbo/t43KMqKcNbp+vAx+YbykGwT7mLPKFO2ajQ1faRBgydrKT9xfpDeKI9RU4KeMYuMM8ISB+rv37/P7+kw9bUdM7L1fivdtvcW63ese5j+PqYoLue+J+5vBHmluf+BAQ5nYbY8vLVepv09XBfJr4if1+3Zoj5DFpfoeyn4/QvPJlQ1+OTbgqF7Mx4Xzm9whoLlRgTKm6TR+9aJfXEXJk1lpSyaMhV5Xrm6Q/hOr2y+U0FBnwPBVzKe6XUlk7z0tch7Ja/vn91PNZ2F/P30fCYXmpF3juKPIMVkkjB6emqk7n5dY01oUXZ/Qq7x0i70lX/F7au8p7mKhJdsA4/mzkqDzj84WhMNODDFg8B4kTumlczj38gW8ZUJJwWMIi9a94wwcw+mSD2sNi9OffIiJJ3ncKyePf359/m0hbYMA+/Qz2lQdn0jjgLt9WYv2FBYO1wXbhIEzc2eOG5XWw+fsJvFD8/DAnJF6JP2eXty/tS/3O8V5640VB9MAxuT6Ai7xvxcz1FmgTobf/zHbeN6R9Zzv4m+Mr+h81xLUPMfovzrlSuzOxH7W1Eu/d2IW53e4r6xj364m7vHHCVpRrj1nZuKcubYyp6eIXt+nK8yrlRUeQzqdf31yuV/qL8zvakw6LDulCzRP1oM7DpPNSRzCv9jZ99EJWdBC663zdr6OJa4n3Oa9pBVV0PzSo2cLm5JvlNBT9a68jup6AoqNzvVeH1+7fhTxc0U0LM3BxR25NY114MarXoAVlnhK8be3JvxVRHYPmAjJm7XbU55pNq/seAxbPedxrXE4+/IGH1zI5h+T7F34Vojj04ItTWoxiIiiaOz7SRoL3bdMVNjTiplroLCW4PH7skPCAgfYYng/x17fABv9MvIgHbAIXBzeZyf4lvHN/4NuadIBRHbf1MCvYV4q0iaA0v7S4R18pLhiJwhVuK9rGNm6+Xon3btfZ3O7pGeZiLceIsaFj0fueocXcIHVsY5R6rVh2m64O5tPAVeA5rGFCjk6HveV6WTtMYutPLSgxT6QcW2uL6nAeycUyfl+vavX7OrtNH5mo+tUmOsIaEPNV3cuyVtVHaBbGcg+dce9EvhApjd1/t5yGIgViXAqu2/MPxzkzq831UN6Vz5Q9Ss5f2hgZhXQl4w0t5X11G3Map+AulcoXg7lVNja3dEyv7ecWjLKtPfysBj3bY8gxhP7655jPuj2r+S4DFs95/GtcTj/8gYf6fGiTky9L3D6BlifNuY2cKMJBknsPZGDxOJiwpQQX8CHMbMFo42I2OuKceYGkig9EhDE9LvpQAQPx9tn+BbzDsPjT40M+MB5jY20TgW0duNYmwgET05p6zslGl2ojxyUPKy6QhCfJdrZw/9VKvHd7r2myYSDEzL36jvIE6iPFJvRB7YfGDvO6dvAEMFoYod3qn7fpysejP5963kgfP2/F+V7aDfMbaQEH4YgufFuUY7GdynXQxhxM39bZbfqo8FlUEU0UddqehvS5XEez15KmZuOew/+dFUX3JVG33i2noei9n1tiPskctubfobl+SIfX7CMlvCCGUJd99+UdmKF/PphKJfqFt3s8t+oG59UM6XXjZyPH3JDP8yg3S5MZsHjOI1Tjcv7hD31lHSdfaVNB3oApkrvvi5J50Z8fYDTpKvqH1mE89Mfj0GLq69A9HGwVD1cKxtq3reIi1QBf8OLPfxxm2KALXGDemW3evrCv+FT7xocNUS2ID6mYWzom9BdiBlUjn9pEGLF1tk+PvkJckD7jHyKk+vIPBPnE1X7t62xwXH9Nkz22o26d3ughUE/cx8bm87oKtYKx2m+hytvm88F8Cn9jqbpWpDd/yPxG85hR3a1JIccyY3KBmHPOYPqizm7Th0wlL91AR9PXkh7N+jby38XiJN5bspyGovtd64hrW5l//XNdOMwR4hrsxX0prY84zuwjC/tUBnQ8eBMW5y7WBhmp1aFm8MWz+jeGirb33wzptYhNwMy0gfbrvg7dJ43VuI5j0L0rZiiMiZ75cGXlesjnij2r+i4DFs95/GtcXnD4456Z8r/sVSaJsICEyS8sJmkzLB9qlLYOPug4LhvJB+MOzd2/XlZuzFniYgtGG1dIcOBjX5BZn8IXYUyPSxuDty/tl/WneScuep7pWxGMx9hJWJSIuUO32kQ4ZGRS48B5XV9lXOLAkZO0+RBiXcZsEuATZlbivdsNTZPOgK/DsVPmGsQqHdTCr8bivsK/eFMbW3UgzNviwEFtiyoEjKh26cvbdCXMsUxMmS99uZi3eDs6vyEn4D10Hgd0194cizm2MKTfXIUJ1t/8pYWOYVbNbfroBby6jgR8p9eSZi6LeSvutVTt93I8ud1yGor+Qa5w+OCH7U8xF0Ke757rQ/mszHeljso6DLN2TfHitqEO5cZOzMlGU6eh5Zncmsa68GJIr5ErTT8rPxs5Kod8vjAGZvocAxbPc/zh3hqXlxz+5G+t8WFPgJOTSEj+dKGnyT0kWvdgRRcLeo/d1a5DH+3hKGML/cvFSrHJFgz5UAv3puPgOu2a8uLa5cVO4ILhQpaFRZHan8t7HjvYRQs0VAmYfFXND+h74FObCAdMTGvaoy8aFxg8xz4etqINoPMR/2gLOti643Ml3rv9naU9bye/It4T95xDu9G6jBD+rhr+Rq63O8HY2+3b7W7TVU0LQu4K87Och3lO5oNCaX5X14cajhgMNcd2BusKTGnom3V2mz6Sg42LWvwW0FHQjqZb4ZC64a6vrvlM3mIO4+f50WP+6jbLaSg63LWOUHLI/Oud66GdposcL2ovx5PuUek9BSrfU/u4VR4rlPZiTjYaOnXtwhjC/jUZ+f7FmF73fTZyjI/5/P1YGQKZAYunzMtIqcblNYc/sfXN3AAAIABJREFU6aAm/ItcxQEPJNi/X/RrS9klltxhQ/RL259ZPOTk7RM7enDyWNB9RomuwJ//cll1gYj+HH0gZ7z44SBh//J/+Qx4k/6ZLAEzsw/9J/Hu4AZe8kNwZszXch/SAVfeXJR9jt9pE+G4pfM9evTF4hKHDeWyjl2THtvnPei3sBLv3aiFedLdFzeEuRTnYldsBscOutDmGAZFrglGUrvs7W26qvHDYlX5AsC3zfEJ8SL5jbQpyGdjFbWNHFu21e5mYyrGqfFYNJxzc5s+euHW/Gex/Z6OsDtd+Qp3oNfML9SA8hHvj+6PkMXpl8tpKHo4FBfCd99cP6FDGG/SPlLE6/hguunHnART02lz/5qsfP1iVK+BW3lPufKzkSN81OevB8sAiAxYPEVahgo1Li86/MkP+vwV73hg4d5OKE6Fgl88ucckztqPHf6kb8d/8gY8jsy+NfdYBg5/0u8Eo1/18GPEBSr9us6BUHJeYme/YIVvZOiGSTyEAgyEe25/Lu/BPuW8JIDhZQt62X7kTpsII7bO9unRF4+LGxUO/aSTvYCqx/ZZ/Ef6r8R7N+7GZlC04/oUOQPmUX7A74rNyNgeEIzH55qbXz5HdGAUfVuw8E5dsfzk+JDyqY8d5z/QV85deX7HGBY6iuRXdBFsaeP2B28apgV0dqc+ehleXUfUj658RTvhe1Wzss6D/uSHUGz2rusVNeR8b8alY/51zXUfPy2vtPJZXo/K/f7Y/l3ECzkY58sDmJOOVJ1GrtkzQ+q51MW4XnOsyscDPk+b2nOMiHxGvUx8NnJDjfu8VOgMTGTA4jlPChqXlx3+hCQtH/CEzY/8CrGU3MFWmZDGFo9EaVwcHDHpBy8ePYurMyYmuDAK+Jns/8g+J0yVC4kXaA7jlPyEWuAOY9Db5QdU1xv6lu1HeIeEj7hOvJebPPAF8NIDLfB59NPZXeU/zy/RHMUGMQA+0mcZFNqtvTFkPa4tWIn3bk+lHNExh1nMSIx74l7LKz34GQaCm9UTjD1jrNDmbl0x3oQHgpDDylyKucL1wR5vG8rL3OhtqOtNf47FWKTreZjyGpLy1s06u1sfEp9S2bo64mg91jNxUzSrahy+3DgzJndjuGRpDTU4Yjoj7UN9Pf/gfCWRiOsle4Ch3LKM7COFfBL3kaVt+PKZ+wX4MWYo09fcebk1jXXhxWm9SvseSTekjLmkzHvXLvBfPg+c2euf9pmBt4JvMmDxnMe+xuVlhz/zoJslY2AeA9pEmDeCWZIYMN4lVqzsLAOmq7MMPru/6ePZ8b3DO9PQHSzbGLMYeKNe3+jzLL2saMfiOS8qGpd2+DOPY7O0AQPaRNgA+tYQjfetw7cseNPVsqFZApjpY4kwbA3CNLR1+F4H/o16faPPTxa2xXNedDUuH3L4U3stE14t1F8BnUfzUUu74gY/98OvTQTwyD6vYcB4P8PrfvPsjLdH+pquetl6p4ZMH7366G33Ph2Zhnq1MdrufZoaZaqn3xv1+kafe7SwaxuL57zIaVw+5PBnHlFm6dkMaBPh2V5/3zvj/fsxeCIC09UTozrPJ9PHPC7fask09NbI7+n3G/X6Rp/3VGcfaotnH089rTQu7fCnhz1r8xgGtInwGAcXdcR4XzQwm8MyXW0ewIvhmz4uJvgF5k1DLwjyg1x8o17f6PODJMtcsXgySoYLNC794Y+rtB/jwDRgGjANmAZMA6YB04BpwDRgGjANmAZMA6YB08DeGpBOjuzNH4kVK3ssAy6J2X/3M2C838/5G0Y0Xb0hyuM+mj7GubOegQHTkClhJwbeqNc3+ryTJo9itXgeZUxvr3Fphz86Z1bzQAa0ifBAV5dyyXhfKhyPAWO6ekwoL3HE9HEJra8yahp6Vbi3d/aNen2jz9sLteKAxbNCzsEqjUs7/DlIpDXfmwFtIuzt1frojff1Y7QjQtPVjlG7D7Pp4z6unzqSaeipkX2mX2/U6xt9fqZ6g1cWz3nR1bi0w595HJulDRjQJsIG0LeGaLxvHb5lwZuulg3NEsBMH0uEYWsQpqGtw/c68G/U6xt9frKwLZ7zoqtxaYc/8zg2SxswoE2EDaBvDdF43zp8y4I3XS0bmiWAmT6WCMPWIExDW4fvdeDfqNc3+vxkYVs850VX49IOf+ZxbJY2YECbCBtA3xqi8b51+JYFb7paNjRLADN9LBGGrUGYhrYO3+vAv1Gvb/T5ycK2eM6LrsalHf7M49gsbcCANhE2gL41RON96/AtC950tWxolgBm+lgiDFuDMA1tHb7XgX+jXt/o85OFbfGcF12Ny6mHP//9/fv8/Pz7/P1Hgf/v8/vz8/n59/dhVf/9ff79/Hz+xU7Bxo9iB+xGe6gf1HR/xnEdMfnn9/M/ZCBjQW1+cYvP5/O/XxVrV380XvXSj+NwlBhDn8AHcOjLfHupravl7TNWKX6A7AzvuS/wTamEUQKnP58ftUFqefhCmwiHDU3okDnX9SW2EebY/36RDaTpCygc8nwZ3ivzte7Yf5+/f5jjcp6IcaLkD46dbZdjlnjz/CryQGyUbSAfKD7ftu5nLd+VeO65u1VXB3NqZiBzKlEuxqaY47k/5E72mQxnHUCbVJUB9V8J62TQ1xFMtG1Nx/3Qelreqo8WoC30k51IupT2bbmZeJX6orWI7Q09H3nvlw1FDZ8SbrZ29mopDSFnRI4ZZ/W5J9oocg8a0F9me2yoz+eT7dXmeM5R0lpFR8T32T5ax5rPARrmXA65kn0mJzNmaJOqMMAFrk/rVcj59LlDjAMlpLLf6ep/gMvTPh8Yy5pez4DFcx7HGpdTD38+5CAnwU/JRFgQSILASUFbGHrapLGFC3hQprnK20UbHXoPhybFIRbBH4aDRYX6CwuIdigjgI1F2Gd+KBLsFnx5XNo4vD22X9hBkHraoOboMvCB+ZZjALzFhR13QNbOXGoT4YzN0b49+gqcl3EM3JXa8mVIu6OYruq3DO/ifG15HXWJ+XU5Dd33xHL04KRn3ultYE6Vekm5rDhMbvs56kOL4dH6W3V1MKcmn2K/X3dAK+Q0aY5DPIXmlS8cQvxwHznPJmTVC7lvGIOtEeq86tBUFcW5ylv10YK6vH6QA37P9u/z+/tP/tIONZUuezUdNFaub1JfaYy7ypbSEHLa84TWoJTTU1l77klch7KfD84jadiuXBb2byxHRCNg3/GqtUnjkQsJLzx3FPty3K+BOTVVc5hLuSUfQbd0TU2WvnpxRq9yzo+HeklX/J5rT/tiPGqSHTCOPxs5ss/4/NVg2eAiAxZPkZahQo3LuYc/H2GxgW8D/v0r3vABL3yyoUnl5/fz598iKjcFoU8Y49/fn3+baGzx6EvafqFB2Nz4YfFB/YUFg7UBZ4MBz4P0EICb0WtY9AIvaHzfkB/mhIc0iT/Xgbcv7Uv9zvFO/YEFG8cv8xZ1JO4+mKVDBdpEOGRkUmPvb0NfEJfifTPhkJXOo0kQp5lZhndhvrad5POF9umJ5ejBCWhgJCeGvjRfRPRwKJ/mWdvPUR8oX7Pub9VVfIgo5mJyROfOz03HsdIf4lvaDfbEdeKIhoVckSDXLvwY5QNPrbmuC52Xqr1Jlbfqo4VZiX/opvN0v35grf8v7HfIGtVy09V3a5rmoFG99oAabLOUhpAPnmMSmzLf65oCM91xih16tTiyVgGm2qeM1wtOfL5wtlqY03h35NU02HUXo3ottVPH59tWtScf/lTHoLmgDqGoHfW5MGI3yzBg8ZwXCo3LyYc/8qIfku9f+LWJ9KDhnOOLU0ruMREUzX0X+DUr3rdN17FDBSnBsU0uWzDaY3g+im/cO5Cnw7Bov0i8AhcHN5rX8i74V93ktTkULHYVaROhq/PkRj36SnHBYwtzw2uq0ATu8P3rZXhn87WHmzC/xAfx2L0nlix39AyNH6SEuHsTySeaB9rzqMxFbT9Hfeh09XCzW3V1MKcGZwKnYR2j8QktxDkurI2JnBTvVKJfVPOs1k1aY7S2sVzF1KGphukz1bfqowV0E/1gPYp5reUnzllF25r+3QH1gO4K+9fcLKUh5KIYm2IetucejnU2LccJ9utduezwWpVHr13JeEOPci0DK8GXGmZoeWht0/xLxr53MabX9l4Be9TWnnT40x5DjiEeWb4e81m2ZaXfZ8DiOS8GGpfTD3/gjY58aJOTL0vcPoGW30rnNnKi8MnBG9cWqAppBzfCUoIL+BDmYrF1Y7dxMRsVyFCVeYGkir+VFcY8uNHM9i/gHZzAnx4f9gFXyhhwi9FrbSKM2jvTz3NODmyoNnJc8kjSAhnKjvwefLZ3x9UyvLP52ud9iIPjF8191LUnloc2l9S2PyyW54WeE4W8gOy6S1lvup+jPpBhp93eqquDOdU7Sfr4WIlzvnzbMsxnWWuHYlDNs1oYgm5qh52sZ2VeteYOszWx4FZ9tHATLZTNlblK+lyuH/JQK+W1Erd8F2Leq+mY1/zfB1I0Lw9zS+lSGkIeS7EJvGcOw72ezw/F6ZAWj65VyLHKpYQXmlPffXkHZujfn1ejbySPJztfvhjS68bPRo7uIZ+/HCcbXmfA4qlzc7RG43L+4U88/EgbR5x8pY0FeQOmSO6+b17IyoMlZbNUY4aM75qG8dBDM0rovg7dw/jJN2dAwYh/nYlCEhcp2ojcF7z4YR1m2FwJXGDeiS3pgKqwr/jU9e0JG0sqiA8XmNuimbxxKJoM3mgTYdDcqW49+gpxQfqMf0Czpi8HCvq12p1y4EDnZXin2j7gQ5r/wkNKTyxZrugcO8QyznWKv8hpJA90bOiCbZRjHabYz8WMHXbR8Tt9uKrZrbryvkPOpR4R7n21kMcE/mCuBr7jXM/fntCB+JrDW8SSVp7VOkq+aG1hKHgjV2lX05TSZUbxrfpoAd5AP/kgOTjD8lrLx1g/pmn5b2J1DnlZs6U0hLxksYE5RnMHlAv5vD9OR3LZwFqF/KpdBrxKDma5tQ9zGo/1TzVuUST/4IOCAXf50vWQXqNGsHSYNtB+vUt7lM84Rm1PGsYk+5EOHod87rBrTb7DgMVzHu8alxcc/sTfsY2JokwSIYGGyS8k5vTQCom13ISWtsq6LqoayYd+qxYSUfngzRIXTXDdb/6Aj13I+e/QF74IXHhc2hi8ffAV2pf1p3knLla/1fZtZW0QM0O32kQYMnayU4++yrjEAWPs1T9wGJtRPZ+Ee6r7Mryz+Yrc8nV4vsN8QG3cJfCfDl/zYZvzE37auYLYVW5LDRyZm2VbyXxpm7QQ/Bw9wCKWp93eqquDORV0gjfUzYP3tAZqb0UKXzgobLbzrNKRfoGjNcPltXmF20mawvWTr2/VRwv76voR8Pn8gB76Wi5CPc0r4V7TdMhTkDfL+QIWv/e5lIYQDcAp8OY+2ZqD2kM+yl8awrqV1zmwyWIQ521ZzteXMu5lva9LWirrMMzadWm/bBnq0MFBJ+ZkpTeHoRxd5TsZvvdiSK+RK80fupcMXOe9jqg9xmc75rX41lgc8rlm0Oq+yoDFcx79GpeXHP7kBwR82BOcyUkkJIJyMeGLUdjAusWJJg5630NW6FO8uYO6ZWyh0CeitFihhviSJbj2wQUdB5vTrqWkGMrcYidwwXAhy8KiSO3P5T2PHeyiBTpXoas2h6jxoUttIhwyMqlxj75oXGDoHHso4Z85hrzu7pJleK/NiyOkeDv5YaYnljkvHhnoTE5sz6NmLiJ+jvpwzOP+1rfqqqYdNaeWG2SHN/zQB65877yvxqWGI1LXl2c1nqNuWmsf7t6BKTWnmkoV8y9u1UcLfo2jBfQTNAP65J/ag6HktrRuaZoO4wb942vJ7jfKltIQIqBrzUHt/SWZe71xCu24Jlq5LMeT7lHpPQUq30t4oWUeK5T0Yob+x9a2mCPRF0DJzpcvxvS677ORo3vM5y8HyoZXGbB4qtQcrtC4vObwJx3UhH+RqzjggQ3Qn3tNvNzwOq9YcodN0S9tf2bxkA8f/OKBNrweC7oXWQd//su1YRGSx4BvX45spERe/HCQsH/5v3wGvJX/hEwAKWC+mnc3cOAlPzAHMNL/2w+tUq+eMm0i9PSd3aZHXywuEUQoVzTm2ww8wM12ENlbhndB+whm/yWZXz2xPLa5zFCYBmDsjpx4OhfBWJBHZvGX3Tt1dauuKBcYOeOlksN825wHWXydXdIGD9XSUX+eLawWNwFTxlhUSjfMf6lRLKvxWOk2UnWrPloAa34z/r6nH+xGV17DHeJ1t6YpJ/H+6P5IgDCtaCkNIa+GYkP47ovTCS3CeB1rFXJNvRTxutZMN/2Y02BsDqYa4SLabz0fCD2vLhrVa+BW3lP6NQX52qU9gc/T+xGFvFGfFXNW/GUGLJ7zAqBxedHhT37Q5wc88cDCfQNanAoFZ3lyj0mWtR87/MG/u1sOz5P5aIKDV/uZ73GBav26jhR2zkts5RNs+EaGbpjERAsYSuf5oRv+Heei7RjvAX/vw0Rl4ZbIOVCmTYQDJqY17dGXHHc49ItP5C6maGF2AI/xPc0l1dAyvAsbEhU0VLg+Bb+Qk/LhdU8sWw/tMBz95BqA8WkOleZm1Ao9aIc8gP3q8HPUB+rTrPu7ddWdU2NeLlJncrqcvzy+riFfj3J3/e/rzJv3WWPUB8cBXWtUXfRoKjk2/+JufbQ8WF0/FH9XXqOd0vqT82NoQjVN72Mr/y+byg+hwlCXF62mIXC4GZuOudeVe07lspxHyv2+tFaBZ/qniFdby360/WaZf9No3k9Jd6490XLkhOXBZOx7F+N6zbEqcz6fp03tOfdFPiP3lE8phgcoHPf5wCDW9DYGLJ7zqNa4vOzwJyRp+nASHAobIGEDqWwawFaZkMYWj0RpTN6OmPSDH4QACylL/eFCTHCln8l+63eywabwKS56sR3wWfITKoE7jEFvVy5w0LdsP8I7JHzEdeI9L7YwHsYarktcAj3dRc7eKv95fxv6UjkpgpIX7czdPM5m8LUM79K875iXLA4kbj2xlDdDbXbD2GU8AU8hg/TGJXoNMZqHHJH1Ucu/aJ4SP0d9aHs51uIbugLuMZdlHODLjzJm2MMQj1Avxde1DeU5P6b+6prTl2eTnY4LyVfxgUfFBH5UNNWBY7TJN/TRwipxuoZ+OHKPleYA3oyVBB+5/kN50DS+Lg1EHQ+MW9qZc7eihpxnPbEJHOtzL9TX44RzlcQorpfsAYZS4yP7SCGXxH1kaftY/k0+Hclh6sFSsva1i9N6lfZIZC76mJIy5nCFz979CLOpFJz2WbFrxd9hwOI5j3eNy8sOf+ZBN0vGwDwGtIkwbwSzJDFgvEusWNlZBkxXZxl8dn/Tx7Pje4d3pqE7WLYxZjHwRr2+0edZelnRjsVzXlQ0Lu3wZx7HZmkDBrSJsAH0rSEa71uHb1nwpqtlQ7MEMNPHEmHYGoRpaOvwvQ78G/X6Rp+fLGyL57zoalw+5PCn9ro7vPLKX22dR++opV1xg7/74dcmAnhkn9cwYLxTXvebO9SDFe5NV0ei8D7NmT6O6KPV9n36cYyYhlq6OFv/Tl2dZU3r/0a9vtFnLf5PKLd4zouixuVDDn/mEWWWns2ANhGe7fX3vTPevx+DJyIwXT0xqvN8Mn3M4/KtlkxDb438nn6/Ua9v9HlPdfahtnj28dTTSuPSDn962LM2j2FAmwiPcXBRR4z3RQOzOSzT1eYBvBi+6eNigl9g3jT0giA/yMU36vWNPj9IsswViyejZLhA49If/rhK+zEOTAOmAdOAacA0YBowDZgGTAOmAdOAacA0YBowDeytAenkyN78kVixsscy4JKY/Xc/A8b7/Zy/YUTT1RuiPO6j6WOcO+sZGDANmRJ2YuCNen2jzztp8ihWi+dRxvT2Gpd2+KNzZjUPZECbCA90dSmXjPelwvEYMKarx4TyEkdMH5fQ+iqjpqFXhXt7Z9+o1zf6vL1QKw5YPCvkHKzSuLTDn4NEWvO9GdAmwt5erY/eeF8/RjsiNF3tGLX7MJs+7uP6qSOZhp4a2Wf69Ua9vtHnZ6o3eGXxnBddjUs7/JnHsVnagAFtImwAfWuIxvvW4VsWvOlq2dAsAcz0sUQYtgZhGto6fK8D/0a9vtHnJwvb4jkvuhqXdvgzj2OztAED2kTYAPrWEI33rcO3LHjT1bKhWQKY6WOJMGwNwjS0dfheB/6Nen2jz08WtsVzXnQ1Lu3wZx7HZmkDBrSJsAH0rSEa71uHb1nwpqtlQ7MEMNPHEmHYGoRpaOvwvQ78G/X6Rp+fLGyL57zoalza4c88js3SBgxoE2ED6FtDNN63Dt+y4E1Xy4ZmCWCmjyXCsDUI09DW4Xsd+Dfq9Y0+P1nYFs950dW4nHr489/fv8/Pz7/P338U+P8+vz8/n59/fx9W9d/f59/Pz+df7BRs/Ch2wG60h/pBTfdnHNcRk39+P/9DBjIW1OYXt/h8Pv/7VbF29UfjVS/9OA5HiTH0CXwAh77Mt5faulrePmOV4gfIzvCe+wLflErABfXuk7cBLGOfzuYq/2XOdX2JbcQ5Frz63y+y5bQ9m8BB8lbivXDh4DzJff/7/P0LXEsUt+OW+2O9F9fUMOQAWp5BKVedY0X7RR7xFuPcPTyuAmdi8bd1leN8PG+e6ZsoFNYxHr/Uun7RsuX1ofvpcw9d41VN1aHMqv22Pnr8CDqQ1mq+Tuv26Bwv45S1htYHOp8b8dXHjjUN/ayoj6ZPn4/fH/a0m9tmIJ7afrgS1y5ddDtWx1zbK5dDZDtcospzhDcQ+8VOom/ac0gJQL7bRN+nc57gJ33uELnlwbrn2ehrc1SWiZWeZ+C0hs9DeIwFjcuphz+fmDTY5jMlk3JD4tklCxNOKsxODEdPm1rk4AGZ5ipvF21e6X06nEBt5AUNFi/qLxyASBu9GuLPB/vMH+iFTaLnVRuHt8f25/Me+MB88xj0tKlz1FOrTYSevrPb9OgrxKWMY+COaitqDmtzNuAT9lbivXDj4DxJfWO/X3fYhoUdG0hxgzkmNK8eIn8+kE/ig5toICFrX5CcizsEbZV6k3zBfb55/W1dQUwdjqN580xfxznPoa40aEXDosWqy1ZFNwkPzj+w7p/Vqwa6o/zb+uiAGNf2cs6Ffnydlu0Jud9xj2LhtYbu+/cy8oi0tEc/vg3GsIA+qB/S/f0a6own/SIQ+MQcO4fEeQtrCt1HjO5R25hlHALjtbXV1ylfCkb/Id3MXLd20vcZvcp+xucPpKvxfDJbd0E/Z3wWFGhFX2bA4jkvABqXcw9/4CEFJQnnQkgU/4o3fMA1uiGAhP3n3yKSNkQhefz7+/NvEx3d5Ab7dMEDNOUnT3BwCIP6CwtrdQxYoGGFKodU70pe0Pi+h7BJjAsoeU8p2uftS/vzeWeORR6q8etpwwzXC7SJUO91TW2PviAuRRwFXsR218AesroS74UDB+cJ9PV5y81hpb8cj7ixlua+kEdgrGDLzfm4cZL6Q+Oez8pYcICfDrQErfUMcVebb+sK4jyyXp3pG3SnPAQdJd/rocNWTTdwGJXW/qj1dH8U1Jz239ZHjxeggyLH+458nZbttdv5MUgswrhoL9GIrzw2HC609VPu9dbQh+oTqrhfQ53xpIc/DrOUr4W4stgjf8FGWgNwnXrdxtx7+FNfW6NuhDWQziN6r0JvVXTmx1X0ParXqiYIR77tQD6pjhG1e0x3Adioz8Qtu12EAYvnvEBoXE4+/IHDkfLwICTzv/BrEkXS5gtGStgxERTNHR9pIeN923Qde3iSElweP46W8MDo7TE8H9LCDSaEz8SLeMAmcOFxlXHIZnn7ZP8S3vPI6UrapKTKeNHThvZp3GsTodHtkuoefaW4YAQsRnAgyn6pEvf66vVKvBdEHJwnoW+YPyE38bnk2ohxE37dMmFheSTVoIt2bkGN9cvGWAE7Omwimzzd8P0139ZVijObk5GLxDXXyXjfqIMpcTlgK/kixzk//ESbB9c42eq50m/rowd90gFrzDXDmviC0K720OTHoHqh8aT38mCktF8/K+qDOCPe3q+hzngq84vtL1lcY8zY5jq7z2zkKuWqjZntnUVLwU5tbZWxcZ/0eSUOrBTup+8xvXL+FEJ88Vg+aY8hx7aGJNSN+dy2ay2+w4DFcx7vGpfTD3/gW4O8ruRkzpKx3zCjb56KhyY5Ufjk4I0Hu9U3Ryh/Bw8TpAQXfECY2cLaxsVsUJzCfcGdHxN/0yaM6dsMHP7A4VIOoEdzinfBn7ARwD4IjZifQpuDRdpEOGhmSvMefRVxj6PyBTLG//fXv13nfAw/SKdTEI8bWYn3wouD88T3JX18PMiDlR43JSbeplKXAMs5MVX3XjTHiuN4HbUw9Q56Tbtv6yrHWY5NLW+O9w3zvfaw38/2AVsN3cA8+PN/d0xbe/qRzWj5bX30+JB1QFsL6zptEu+DDZf35fnq68Uchdo34isP3a+fFfUh+1SWfkNDXfFUDn9C31pc27piNkpKxLsW5q7DH6/BnDtAM8XXWr4N2TsKh+8BT7Ylgm4W7qfvIb1u/GzkQjjkczP21uBbDFg85zGvcTn/8Cd+u502pjiZkwQtJeeijG5Giv7tBYzRV/QPtXnBig/MaIPk69A9HGwl35wJBWPtUCqMiRZnBpQXFLzAK/Zp8Re4wLwzc7x9YV/xqfZtDBuiWhAXVMwta9/ThnVqFmgTodnxggY9+gpxgcOc/FnqS+IKHuDPbn7mOL4S74VHB+cJ/E2Vag5Ih9g5Xs7/ok8BQsgjtN7fywcMYtNaIZ3fUlvfpoFZ6ndz2bd1dSZvjvfl+Xuc9gO2GrrxD2pw8FzN7eNoj/b8tj568Go53ueMyt+SYrbj/ib0K/cXfgwcE2iLv+RpxJeN5wv69bOiPmSfytKvaQhiJBzCF7mjhMv3pDSu0W65hyiNBPulhsoWyl0FM9t267gwAAAgAElEQVQrMxPC+kax+z68HdO3tgYrh6MMSirYT99Deo1xw+kgaADtYVD+YHxD3LEBGrsLdTfkc4qxXazGgMVzXkQ0Li84/HFrT/6L/GWSCEk7LDo8gTt3Q8KBB9Yy8Za2yrouqhrJB+POWFDykzZiNMHVfrUjgix97EJOePFEob+hJHDhcQGPdAzevsRU1p/mnQwfNoH1jUVPG2K261abCF2dJzcKnNf1VcYlAoCFNi3GZbwSTK8B8g1Zqrz3YiXeC88PzhM4AMZ7HPjjqXgzTeMGsS77ISQsj6C6dCnnzFTde9EcK+jJxcz9qJh7x7uw3bd1Vca5nIe+rjJHx/vG+EwJzAFbDd2k9RPy0xR858TzbX30oC91gHuUeoK3ZWFe0n+BJ/UE/tOXQ7Cvqq817YfzNAK66NfPivpAjqiXX9eQGk95fxf0hPZXbN4SXQme65oUGktFAuamvmKfMm3IWEt8+Lkigynb5PJjV/vpe0ivkXu8h8E8pbkbCwO3R/OJHEs8zmjMhnzGA9v1UgxYPOeFQ+PyksOfnOR5Us5JJCSCMtHDJiUvar6938TQxEHve8gKfbRv4DO2YMsnorR5V+yzhbX9gEbHUSwXxVJSDGVukRe4YLiQOWGRpfbn8p7HDnbRxiRXpaueNqnxwQttIhw0M6V5j75oXGDgHHtXIsTfFQtxhv53f67Ee+H70DwpNz3Ot/CT85YUt+q8r+FIgNu5JTWtXTTGynM/HuSjh8ia2W/UfVtXNM6ZOzon6f2ZtS7qoLU2dQXkgK0e3QAm3/b7B4ff1kdPCKiGch+umVzXuCL8+zEgNlrXRnzlbv36KfIfwSfbXqN0CQ0RvnTNCDmbxbW9jhSxGg0DwZyfC2SDwSdYS+lnXlt9b7y38dd8T1njSEYgle6n7zG9hlyz47ORi9qYz1K8rWwFBiye86KgcXnN4U96GA3/IldxwAML0d/vR/rmiiVsSPK/tP3YxijY5wuFo5oueL7twIYpPADIY8ADuXbCroWc8eIbQsL+5f/yGfDG/wkR5yj72wDMPvSfxHvit/EmQeDuuocGbSJovF9Z3qMvFpcIKJSDxpQNihDnK/2p2V6J9wIn6LxrnlQ2zWSjK8aNtClwdMWqMn5hrHFTG4vyEe+P5qsGgmnV39YVizPw15E3z/edkycDjg5bNd0I62d1HZymgLqhb+ujji7UMh2kTmN7HN8ddBjzmh9jYC+ToFQuevVD91cr6KPiVqpaQkNSPKVDeSlfC/O2yr1kI7Fx4IJglvad2VplbfP4aX7K7amuwKY+r6BF3+du+h7Va/AT9pQlN5Rj33Ygn1ylu1GfSy/tbhUGLJ7zIqFxedHhD3z74E7vyYk9/E0g9215cSoUnOUJOyZ51n50Y5TtlcPHcpTQRhMcvInBfI+L4Q8aozfEnJfYMy6MLsD0AU1MtIChdJ7/Whn84edJvAf8dAEvve9pU/Y4fqdNhOOWzvfo0Zccdzj0QycWbIMktDkPedjCSrxTJ7rnCeMYWyr5luPGc0yy4G3LG6/UBuYkmbu5vvNKHUvGF3xpYesce3Kzb+uKxzmvL+X6xterM33T354SDtOdnulaUKc9Y6bSKmypugnW/Twq1jawS/cAdTQza7+tjx5fuA6gF9cM1BSfLi4N3v0YRZvCQrhpxFfoEYsgznx9x/pZUR+6T7nmdg31xpPurWFvR+MsxjWuV702Mh3yVQfm6uGPx8j1EwYr11YAEOZNeENIynf6vAILvZ976Xtcr5qfsRzpajyfTNZdDOG4z70asHZ3MmDxnMe2xuVlhz8pMdPdJHxDKBxWOHelhA22SlOdGyONw7jYOGLSD0puCQspY+bEhTW08psdbF/xmdkUCiReoBmMU/ITaoG75KPwsOBaSvahb2l3hHdI+IjrxAs8VPa0AY/HP7WJMG5xvKfnt6EviAGOn78ug+JBsLZCm3G053quxLvkCeNOmCdhnukPsrg+2ONtQzloHiGp5BEJW9ADt48s6pfKWCo2OLBvaFUf8Lqab+tKijPEq5x+PG+e6QuMwlhBD/qDELSvfTZtSWsmWtO8/qlG4IG0JKMGY2rdt/XR44ykg9CPa0azx2JH4uDrSRmzpeQF1k4pYBiQNlyXFfWhuFIUf0NDjEsSO1Yf91PiNKvENaxZ5b5MOkgpCFFuGCaCORz+lGM5bt14eO2UzMv1sGeU10GGB/acFJc0oFAm2cNcraLv03qV8jzhzHNByhhlN+nOjXvaZwbeCr7JgMVzHvsal5cd/syDbpaMgXkMaBNh3ghmSWLAeJdYsbKzDJiuzjL47P6mj2fH9w7vTEN3sGxjzGLgjXp9o8+z9LKiHYvnvKhoXNrhzzyOzdIGDGgTYQPoW0M03rcO37LgTVfLhmYJYKaPJcKwNQjT0Nbhex34N+r1jT4/WdgWz3nR1bh8yOEPvP7JXyl1jocf+dXQeRSPWNoVN/i6H35tIoBH9nkNA8b7Nbzmvy8GeU76XDH3zeHDdKXxuF9u1jw5U276GGXP9APMvVtDT9XBU/16569AvXuOQqZ6zqfFc14sNS4fcvgzjyiz9GwGtInwbK+/753x/v0YPBGB6eqJUZ3nk+ljHpdvtWQaemvk9/T7jXp9o897qrMPtcWzj6eeVhqXdvjTw561eQwD2kR4jIOLOmK8LxqYzWGZrjYP4MXwTR8XE/wC86ahFwT5QS6+Ua9v9PlBkmWuWDwZJcMFGpf+8MdV2o9xYBowDZgGTAOmAdOAacA0YBowDZgGTAOmAdOAaWBvDUgnR/bmj8SKlT2WAZfE7L/7GTDe7+f8DSOart4Q5XEfTR/j3FnPwIBpyJSwEwNv1Osbfd5Jk0exWjyPMqa317i0wx+dM6t5IAPaRHigq0u5ZLwvFY7HgDFdPSaUlzhi+riE1lcZNQ29KtzbO/tGvb7R5+2FWnHA4lkh52CVxqUd/hwk0prvzYA2Efb2an30xvv6MdoRoelqx6jdh9n0cR/XTx3JNPTUyD7Trzfq9Y0+P1O9wSuL57zoalza4c88js3SBgxoE2ED6FtDNN63Dt+y4E1Xy4ZmCWCmjyXCsDUI09DW4Xsd+Dfq9Y0+P1nYFs950dW4tMOfeRybpQ0Y0CbCBtC3hmi8bx2+ZcGbrpYNzRLATB9LhGFrEKahrcP3OvBv1OsbfX6ysC2e86KrcWmHP/M4NksbMKBNhA2gbw3ReN86fMuCN10tG5olgJk+lgjD1iBMQ1uH73Xg36jXN/r8ZGFbPOdFV+PSDn/mcWyWNmBAmwgbQN8aovG+dfiWBW+6WjY0SwAzfSwRhq1BmIa2Dt/rwL9Rr2/0+cnCtnjOi67G5dTDn//+/n1+fv59/v6jwP/3+f35+fz8+/uwqv/+Pv9+fj7/Yqdg40exA3ajPdQParo/47iOmPzz+/kfMpCxoDa/uMXn8/nfr4q1qz8ar3rpx3E4SoyhT+ADOPRlvr3U1tXy9hmrFD9Adob33Bf4plQCLqh3n7wNYBn7dDZX+S9zrutLbEPnmKjlbHM2hyP8rcR7gf/gPMl9//v8/QscS/y245b7Y70X19Qw5ABankFVr9qYIJ/lfJwNxvk7OHa2M/fqTl1l/o7nyDN9E2PCPC9yfmrYcdGwdQZv7ptzkIvTMNYOd7Qmd+pDw0DLAz/S2szXZdo339P8UWpSjAGduz6flP2y/cqV1A9yU3N/QnGXGvH5j+KsQLmjar6GKAdlDMTYafNHikUkRbQzzG0dc20fXMYo26FQ/verPCN4A7Ff7CT6pj1jlADkuwflw9N6Fbigzx0i/zyg9zwbfT7+GU4OrJXuyMBpDe/o9EWYNS6nHv58YtJgm7yUTMpFzvtKFi+cVJidSE5PmxqPfpERDha8XXRARe/T4QRqIy96sMBRf+EARNr41RB/PtjnH5pkhcOcgEsbh28ysf35vAc+MGwpBq6Mt6Ec1nlq1WoTodXvivoefYW4lHEM3LV5kfpe4UePzZV4L/D6/FPym+v5PEl1sd+v27Bi0cYGEvehrNR4aU+LKeST+KAkjJfsVC56MQV9lZxIfStD3VZ1p64gfm7MoznyTF9HppQvP5+gCw2LFoQeW2fwilqBPQBeOzWAE8vv1EcvbJEf37mSbwrjMR9gLh2/6N6Pge779y7FQPIN2bO5RlgvPB9W/BJsyYN+r3SuhjpjRw/RtPkj8gfrBV1PQhzog3yb2TZmeR8sWK6tm75OWR+j/7D06XNIGLNR9LR8eEavMhdxfqN8Mp5fZmszBPeMzw15WPUXGLB4ziNd43Lu4U/cjNI3fEKi+Fe84QOu+WRDk8rP7+fPv0VUPoCEPiF5/Pv7828THd34hkWDLoqApvzkCQ42Oai/sPhWx4BFHFaxckj1LtgEXtD4voewuYqLLHlPKdrn7Uv783lnjkUeqvHracMM1wu0iVDvdU1tj74gLkUcu3iJG72DOrvG04W/mTk4T4Afn7cct0p/MW7xkJY/HMEbN3Reh9GCLVcXN06DMe3GRHNUl96AmXs/75zPwN/I2nSmb9CY8lB0lG6v17atM3ihb5GzHM4v6OhOffSGQuVH+hJHNMrXb9rMj4H2VYF+8ma214Kcc6i94l7oBz6FuUFtVvAKtoqxFriZq6EKF9FX4LJr/gj8hf40Bsm434eLa5DKdRtz7+FPfd0M40jYKCf0XoXeqvD8PSsfjuq1qhvCo287kF+qY9B9Bxmzdjvqc82m1X2PAYvnPO41Licf/sDhSHl4EBL+X/g1ieLBhS8qKanHRFA0d3ykxY73bdN17OFJSnB5/DhawgOjt8fwfNBvdqC78pl4EQ/YBC48rjIO2TRvn+xfwnseOV31PAhoWJKR4xfaRDhu6XyPHn2luODhOngJ/ZQNILZ10/VKvBcuH5wnoW+YPyE38bnk2ohxqz3csTxSoIw37dwi9YKyI5iyfuKYZKMHNr/9eaeuEn/a/Esx5JoY7zuT/35b43g17QeljKx9ZzR2pz56cSZuWQeuG9bEF4R20kMytPdj0Dmb9Blb0Xvo3PoU+mWfJI1V/BJstYa/u36uhjpjp+wP2fxh/EX+2cY5s8Zs5Crlqo2Z7YtFS8FObd2UsXGfst7EgToLJa3KXdN4Z3K/YFr2V2h4oGhMr5zj2pBj+aU9xigfYz7XPLS6bzJg8ZzHvsbl9MMf+HYvrz054acECn75RFo+oOY2cqLwycEbD3arb47AOPAZE3dvHynBBXwIM1t827iYDcBX+cy8wAEY/rZCGNPjGjj8gcOlHECP6hTvkl8eH/aBNupfmGnP2r02EWp9rqrr0VcR9wikvUDKc+cqP3rsrsR7gffgPPF9SR8fD/KgpccN5Q4MxNtU6lK7c3E9himO5f8mWgtXAnj7xZ26yvzJcajlyPG+IbfXHvT7Se+3NY63fvgT7N6npzv10RuHzC3tIazjtEm8Dzbcr4HKXPp6MSeh9l05RwAg9Ct88vV4ba/4JdgSRvxq0WwNdcVOOfwJfWsxrHBdaAfZ6GC3hbnr8MfHOu9JpXUz2MHayW8M4i1pobcO/HKTZ+bDIb1u/GzkYjvksywKK12AAYvnvCBoXM4//KG/2oATPjk1lxJ4UUY3BkX/9iLH6Cv6h9q8qMW/p4E2TL4O3cPBVrERVzDWDpjCmCOLL1k40wZB4ALzzojg7S/lXRmf/nog/A0LJ9bwk/1lJgYLtIkwaO5Utx59hbgAH/mzpi9xA3UK6fnOK/FeeHNwniSN4p0ozQHpzZ8cL69n3KcAAQe6rZwgHzpQU9q9qKUmJvlvGmlj3F1+p67O5MjxvjxXj3Pcb2scb/3wp+shcdxB1vNOfbDBlQJxHqY1T/97Usxc3M/43EIOgfwYR/cubAClQM13eb0uv6Co6E6wpYz6teJLNNSKXdrbEbcpX/Q+2q3tD4L+WmsNGdfdVjC357WwdlHsfkjejmlZW1/JHBA8IEUVXZKWgbOob4o78hKWUm6z6EvstnmjHdr3Q3otfAhjBNxoD4PyCYsJaAPvJxSertDmkM9tKq3FlxiweM4jXuPygsOf+McpY6Iok0RI7GHy8yTv3C0TZZlIS1tlXRdVMUFpyYd+ExGwoOQn/aFPmuBqv9oRQZY+diEnvOSFOPgicOFx5c1YOQpvX2Iq60/zXg4e/3hpe/MB/GvxIma7brWJ0NV5ciPwz2GCH+prGZcIABZatBhnaHFeiXW51d1XK/Fe+H5wnsAGGO9x4I+p4tjRuEGsy34ICcsjqC5dyjkzVTcujmEKOQB0qeJujHl19Z26Kvk7liPH+8Y4TAlAv61xvHQNLxUQ7LZzf9lr/O5OffSiLLnFvUpNwSE+zEH1D/XCeoAODMIYeV1xNnB+8qN25RyML14L/ZhPxV6L+IVNCrZw9QrXl2pIjZ28d2Pzh/FX4TqSyWJ1lGQBc/MQI/Yp05iMtcSHnxky0LJNLj92FcYvvsxVDJTjlbh9XdpvlXXOXNm3HCDUzc2HQ3ot5muJ0d2t/Gzk8A35zN20kkUYsHjOC4TG5SWHP3kh4Ik7J5GQJMvFgCfK/A0STar0voes0EdL9hlbsFUmdcU+W3zbD2h0HMVyUSwtIHnhELhguJA5YSGm9ufynscOdnsXu8gl2tRmS2NX2kQYs3auV4++aFxgxBx7KImfPu7ktWnS5Bu3K/Fe+D80T8qHKudb+Mkbdilu1Xlfw5EAt3NLaipcHMGU53/c+E2cgwK04aI7dUX5yxzR/Evvz6xrMebp4WKYKvcYEv7uXoetmb5ixJkzXHrd9Z366PWCcpv7cd3kusYVyft+jFacu3KOMK7QT/IplLm1vuKXYEsY8atFl2tIip2Sb9n8Yfy11whvo6WNFuMEc97zyx2DFmCdpJ953fS98f7UX/P9oqQ3eeRa6TPz4Zhewxzd8dnIRXjM55o2rO6bDFg857GvcXnN4U96+yX8i1zFAQ8sVn+/H+mbLJbUYSH4pe0rG4oKb3lDwhvRRdG3bS2S4M9/2V5YoPmC5VtEf9i3cLm7eMV48a0gYf/yf/kMeGP/ZIT8KybMPvSfxLuDG3g5cjDRvziLpAmF2kQQml5e1KMvFpeIKpRzjQWOyWbqck/aA6zEe4EWdN41Tyoba7IZFuNG2hQ4hDxS1Pubyvi8MSvpxkQ5ifdHcxYDcEHBnbpi/AFPHTnyfN8jeVMnOuBo2zqPV8hBX9DRnfrQWS9rGLepemxP47uDFmMe82MM7F0SlNqFkKtknyr7E7Av2IKqVT4v15AUO+nwR5o/An9X7D9ZLAjm+uFPZd3y+Gk+yu29L4KOZb0xlM2CYIeOz7ux8cD/kdwP5qV4Qt2Jz1G9Bh/5ntJBoXHwbYW4FLBv1OaozwVeu1mGAYvnvFBoXF50+JMf9PkBT9wQuG/Li1Oh4CxLsvBtJWs/ulGKC8sPTfixHCW00QQHvwbCfI/Jnv+tm3agOS+xT1w8XYDpw5m4CQAMhHtuP/NUxmmM92Cfco79dnbJA0P0jfqFex291ibCUTsz2vfoi8fFjRznEIkh/ErSTL5m+OlsrMQ79al7nogbVbBWxkSOG88x0Lu+eYZWsT+NO1Q3PvswyRhDX3lj2Bj20uo7dcX568+RZ/qmN3bYmhXW2WPzPWOmMnLzAGydwcv75l9THln7zgjoTn304hT58Z0711aXh9A+Jesjr59+jKKNgM7ns4E5LfRTfYo508UBtFUgEWwV9QvcTNWQ87eIC8xHEju6F4J9W9FX/iIv7Q96bbQ47sBcXb+iBmi+CcOW6yZACXoKbwhJulH1Bga6P4F/vjfdNR+O61XjIpYj7Y3nlxjvWdqMcR73uVso1vBGBiye88jWuLzs8CclbyHjh4cteTMgJXWwVZrq3ChpHMYFyRGTflByc93GE1wYFPxM9rUNkIYRlUu8QDWMU/ITaoE7jEFvlzcgrjf0LduP8A4JH3GdeM+bTxivhRX8Hvl0tlf5z/tLNEexSZx4fsqg+G5BB2UMqb1v3a/Eu8SBxDOluMUvrg/2eCxCedZ8wuLzkVCO5iGeF+Ga20/2hIseTCo+OHBs6FUY9tKiO3Ul8RfK6IMDz5Fn+gKBMBbWgfRgBO1rny1bZ/BKth1mOp9q+GbV3amPXswSt6Ev141mk3FM5qWvJ2XMViXnsLa4QOin+5S/CBTjL9jCQ61wPVtDXbFL+6O8ZzrKH+wLL8kXVFs+jhkrjOnyE14XpXjK9bBnlNc4xiHwRXFJAwplkj2cWyV9Q58yLnwOQzvgBD7LfgKowSJn/9R/UiwJr94nUsbGrMztmdp04572mYG3gm8yYPGcx77G5WWHP/OgmyVjYB4D2kSYN4JZkhgw3iVWrOwsA6arsww+u7/p49nxvcM709AdLNsYsxh4o17f6PMsvaxox+I5Lyoal3b4M49js7QBA9pE2AD61hCN963Dtyx409WyoVkCmOljiTBsDcI0tHX4Xgf+jXp9o89PFrbFc150NS4fcvgDr4jy106d4+FHfn10HsUjlnbFDb7uh1+bCOCRfV7DgPF+Da/57ztAnpM+V8x9c/gwXTke98vDc6LftmL6aHMUWpiGNKaeq6GnxvypfmkKLcufq9fST3z3Rp+x/0+7tnjOi6jG5UMOf+YRZZaezYA2EZ7t9fe9M96/H4MnIjBdPTGq83wyfczj8q2WTENvjfyefr9Rr2/0eU919qG2ePbx1NNK49IOf3rYszaPYUCbCI9xcFFHjPdFA7M5LNPV5gG8GL7p42KCX2DeNPSCID/IxTfq9Y0+P0iyzBWLJ6NkuEDj0h/+uEr7MQ5MA6YB04BpwDRgGjANmAZMA6YB04BpwDRgGjAN7K0B6eTI3vyRWLGyxzLgkpj9dz8Dxvv9nL9hRNPVG6I87qPpY5w76xkYMA2ZEnZi4I16faPPO2nyKFaL51HG9PYal3b4o3NmNQ9kQJsID3R1KZeM96XC8RgwpqvHhPISR0wfl9D6KqOmoVeFe3tn36jXN/q8vVArDlg8K+QcrNK4tMOfg0Ra870Z0CbC3l6tj954Xz9GOyI0Xe0Ytfswmz7u4/qpI5mGnhrZZ/r1Rr2+0ednqjd4ZfGcF12NSzv8mcexWdqAAW0ibAB9a4jG+9bhWxa86WrZ0CwBzPSxRBi2BmEa2jp8rwP/Rr2+0ecnC9viOS+6Gpd2+DOPY7O0AQPaRNgA+tYQjfetw7cseNPVsqFZApjpY4kwbA3CNLR1+F4H/o16faPPTxa2xXNedDUu7fBnHsdmaQMGtImwAfStIRrvW4dvWfCmq2VDswQw08cSYdgahGlo6/C9Dvwb9fpGn58sbIvnvOhqXNrhzzyOzdIGDGgTYQPoW0M03rcO37LgTVfLhmYJYKaPJcKwNQjT0Nbhex34N+r1jT4/WdgWz3nR1bicevjz39+/z8/Pv8/ffxT4/z6/Pz+fn39/H1b139/n38/P51/sFGz8KHbAbrSH+kFN92cc1xGTf34//0MGMhbU5he3+Hw+//tVsXb1R+NVL/04DkeJMfQJfACHvsy3l9q6Wt4+Y5XiB8jO8J77At+UShjFfSY8kmZww4PX2kQ4aGZK8+Qj1iAhRWwjzjEnRaRTbb5NQX7cyEq8N9GLc7pHv/99/v7hGNTmkoziSLy9BSGP8Tyg4/CaoXMs5prCjgz366V36SrHRecS8qrDhLk70zcR3IpzaqhfZBxYoyVW3jtrukxNudz5K/6gDmxsVMfHnFdyvz4QF8jH4L+knZhX6Bx0FNy8N2Ix8nHlmM+1U/aBn6wnRFsSwjfz1F0aSs4iLsK8KmMg86/MY3EtCyOJdiTyM7DKVY6fhLm2Ty6NZjsUiqiB1Dn2i51E3wb2RJodnN8TBLxvhZxIncCNL7o+rVdhraHPHSIv1NfbtPfx689FdJrZLzBwWsNfwLzqkBqXUw9/6GYlkZGSSbmI+XqSIHBS6UmwWps0tnABD8k0V/mx0SaM3qfNPWojL2qwgFF/4QFSO5QRwMYizMsPBS4c5gRc2jgBB+YO28flGFFPG9w+Xwc+MGwtBr6P18u/z+/vP/nAMBs+fKVNhMOGJnTo0VfgvIxj4K7UVijD7SoPFROwHzWxEu9N7CQnfeJmvK7fOOdxbnA6xvfNgeHQE8cRDvXKeDtT8hwKONIcZr6UILwNjBFyNXa27LLU3V266sl9WhutHBNZa9MVZ2xMuQ5jlNqCNVv8YsbZ8fr5/fy6g+WaJio6C+Ni/cbcVLOn+HC0+FZ94HkU1+TEa5xXaV6CIzDfpAN9wmlNI9mc+wIuHECxsaCR8inpI2gPx07OUYANh1Sypwzd1Nk389RdGgrctNcRkVfQUaFBmL9l/GA941/Uju5P25jlfbKghlq+8XU/H6yxZCH6D3UiR6lx/4VoR+E6tMVc35fnsEdn9CqvNXHOI215X9H9N5+NnO9nfMbc2fUaDFg858VB43Lu4Q98Y1EkBUgc/4o3fMA1uqhDsv3zbxGRjarvBA83f/5torENDk7QgIR/8gQHGx/Un2zQnBW+CCDbsHDAKoWqapclL2h83yksMgUXcREl7ynFIXj70v583plvkYcCs28E8f0v8Ei0xOwcLNAmwkEzU5r36AviUsSRcRc3X0RTYt8pyI8bWYn3JnphTrM+LAZ8TrE+HQVizNhYsKlXNsJ4nIYvZf6Nm9XJcw7DmX19l64gLiPr0pm+4aGpI84dxAKOIpe4fpK+oj2vD5dXqusJ6JGuS86IPC9ULB1+HGlyqz7IvAk+AifCAzLsFf6ttDcia7+gDTl2MXegNUhuJ0evpbNv5qm7NBSYkecLZk3lVYiVdOhS6hJbzrmgetBLumhzvGjWWIegbV0HXGPQj3JC76Hd0U/VDuNajpva/yiQA+1H9RqwQr6qD+jbVvOdvCZUx4icHtNewDnqc91Lq/0WAxbPecxrXE4+/IGDj3IDERL6X/iVCLQ5kBaNlCxjIiiaOz7SIiIn28ZDxqUAACAASURBVDpl8kOy1kdKcHn82CvhASvtMTwf4q9vgQ3+mXgRD9gELqqbdd4+2b+Ed+6P9sCRcKSNsfCrgoK53iJtIvT2n9muR1+YjzS2EKNyc+xatnWY7N1wsRLvTXfZnBZ6xBjkw8swp0Y2Lth6X7zlB0lsJ103fMm6iTYP5qU0zpcu7tJViosw97zrieeZufVAnDv4Tz4IbeU1KfgS1mDuV2Em+V+UpoMleR2fc6hFRixub9UHeRiiewWJf8/77wp7I3nvBus0jp/kR3UvV0REumnr7Jt56i4NBWYCF7V1ROY/9va/+o3232xetvcFci6Q4gZlbcx0LkDP8rNTB2yN4j7VOCrHrN/V7BQ8VdeF6/Mc9mJMr5xDbJNee14a+Y7HvD1GwSkdtHI/5nPFoFV9lQGL5zz6NS6nH/7wzUJO6CyR+oRZnjTnNnKi8MnB70SC3fzw1UEWe2Cr95ESXMCHMLPFtY2L2ajD8LWZFzgAwwuKMKbHhTYBxRi8fbZ/Ae/F2PHG48M+5G+dYKPpMdEFRrJ1oEybCAdMTGsq+RfikPWV45KHlRfIENPwKjdca/HPtu66Won3ps9sTgs9BP2GWLlfucjxE3pWi/riHeMLE6VmseGL19K/v88ffWio2Vyo7i5d5bgcz4/jfQ/EuSMmGQdvHOqIbr12cg4BrbC/2+fMaTrTyrWHJQ7tVMmt+iBrFeOU+Rzi66Yxi83deyP4soU8WEtrDcPqw8/zntRODGaHzkB738hTd2kIuAm8cT7L+jwvodx9hr5oHrP5FzRX2zczG3gA5bqFWc0P2F6HDoKd+r4x8yBzhIdsXQe/ZDsFT4znaJnN+daI5+uH9Bpx1nSBkXnfW/mOcXKN9hyuIZ+xQ3a9FAMWz3nh0Licf/gDv+sODyY4oZNEKCXWoowmj6J/O5Ew+or+oTaMF35H3pGUfkcfFlKc4GL/4lsZBWMtiYYx0QLNgPKCgpe02YJFSeAC887M8faFfcWnEFLel5lvFgQbmGvXxW/wQDcS/0277QbaRGj3nN/Cc97QV4gL0mf17zlEXmMbROV88ActrsR7EzrVP+sg69c3gxzhY3Bsjrv+ffE+MAcbvoSHu6gvrEXm85oFd+nqTH4c73sgzh3hKXDQ9kwnwiEXa4OMaHVaubAWI2vTLm/VB54/kAeKJBzzBpR5buIaTviQYlWUUV6L/mO6Cfbba43YDnxCkRPbsYPxPp19M0/dpSFEnVsI/J9JcGPTLxMKHRSdhENYRSez96ceRgVz+/CnTwfSG82eDzz31HV0dD2GfTYhG3OLr3GzYl7iiuuuh/Qq4GTzF3HMOIfY4zxAOYltrtDekM/XhcAsn2TA4nmSQNRd4/KCw5/4EB8TRZkkQoIPk19I9ilpQ7ItNzGlrbIO+apfNpIPfLsE32yy5Ef+FRc/EE1wyt84wKCCXfAR1+jXrE/hi8CFx6WNwduX9st6X5cSf1mnI9ZrwkaOLMQC3nJc3d6RGm0iHLExq23gvNxs04WxjEscGRbaFJN8aABrb7INBbNAD9pZifemC2xOlz1E/ZZN0OZdm4O0Q7jvi3eYg8UhtGxOfyMjtk85DzS1iF40d2j5Xboq41LmQF+X5mJZ5/CO9z0QZ0qMcF/iKBuEOpSTox5KOXDfkhVtzmjlov1kbdrFvfqo53LnVJpvoIukmy/vjQAPefMnHUIknFTPcE/extDs0ciKOuA6S7x9IU/dpSFKjb8Hf1FcDs1jNv84t3Tcmn3aVrwXMDcPfzp14MYr8eF5k9GUbXL50auanVAXcybjOY4k+nUUxbH2Q3qNOOn+E0ZO8y+5lf+wvBvP/bC+jJPrtDfkMzhnn8sxYPGcFxKNy0sOf3Ki54k5J5GQCMrNJU3scbPkFz6aOOh9D1mhj/bQlLEFWz65o02POAJLcPKhFu5Lx8F12rW0COXFR+CC4UKWhQWJ2vcYp/Gexw520UNGrArl5ebZiRZ+2MKSTR660ibCISOTGvfoi8YFhs6x97sh8Y+pi69Ig4GbP1fivel6Ze5o+hVtejv8oUhsGwu74g1/z6mVm5zNii+hGr3tOIC35ssddXfpisblSH4c7xvXkp44d5BNceAu2Z9QGtrm/At5OHwKB5qazoS1xo+gtcegJlzfqo+eOCW/V9sb8b0X0B+0kNdsSUdeP8R/qR3YhM9enRX2b85Td2kIOGGfxN8ar3Qe8/x/zf60hZnjKHv06sD3wjnFX2dtgtUaR9Cm57Nmp+AaY8KG03zHhddej+l132cjx+aYz9fGwayPM2DxHOeO9tS4vObwJ739Ev5FruKAB5Lh3+/nB32bAYBZsoWk+kvbCwceYKTyGezzxcJ1KTYY8A0D2dAw0+APvC4EdtjrzbFn9OfoYQbjxZuDhP3L/+Uz4I390y7yAyGzD/0n8Z74/el/GPaYWvyzgNQLtIlQ73VNbY9/LC4RSiiPOiabw4QWYihpIDW652Il3pseC3Pa9QmbvX79wrfmRf5rDN4Vb8hNPXNJ8QVg0JwXfJTzI/RZ6fMuXbG4wNzqyI/n+x7QXCU4DAe0jb7kNanygKjlGlVn8jqtYgFMkz5v1UfXWgV8rLo34gd7IVY5J4ixE3Qhtivi2q+zb+apuzRUUINvINfEdVzllc1jea9XzfGSDYyl95pgrh/+9OsgDJ/bU10APJUjaND5qdphPMG8Rg8CaZ3mc6pz+KFmo3oNvuZ5jgenPPu2rXwnrAlXaW/UZ+yjXa/DgMVzXiw0Li86/MkPSvyAJx5YuLc6hKcinmxjomft5WTbpizbK4eP5SihjSY4+JcvmO9xwaB/66aNWf9WLiyq8muXYqIFDKXz5FVahyjzVMZpjPcQ12MPMV3895CH2mgTATW57bLHv8Ab3TzEOZRiGO+Rdp0TIf60723uFQOtxHsBTLoRNi1N/bo+Bf8wf47x3xdvBxrs8znl4p4e5AVfsMteIxNwY5t3Xt+lKx6XzH8rP57p2x3nDtI5Dv90Ev62CNaA1wzXVRiC5p44cEVnbB1iD04d4Aeb3KoPzGEFb+DDrdk0N0Ru2V4nGOPx69dgBU6q4vZdFY+33C5iQRzI7dJwboHy39inZQxV0XG/mafu0pB333GCOMzzP2tF5BX2dUVf+fAncUv1p9ko4iLcdGCuHv4c0AGMHjiQ972ujcgRdD7wKdpRePpmnsMujes155NyTipzm2oNg3DXPq70MAlyXNaz76ZwSk1q9+M+axat/JsMWDznsa9xednhT0rOZRbxHsHmJz2gID+lZAu2SlMhiUg2kDn9Mi44jpj0Q5KZH5eUMYNiggutwM9kX/q9WGZQLpB4gZYwTslPqAXuMAa9XZmQoW/ZfoR3SPiI68Q7XRzAq7iAt/jPzbuuHA+r/NejL4gBjp+/LoOSN+mJV+nh4nuer8R7kwU2p/v0y2I1oF1mA+LJ4h28kNoXOVHKcygP+dxBccJGTBmzyd+NDe7SVeB5LD+e6QtUNuMMDSufkg3HHw1zWE9KX7FZsZ7NGdwDDqJz/i80WjadenerPug8UjxJcaDE++elwJHEzwwdKZB8ccIFOQc+CU4JhzMQyvN6rtqLPIk6QgBxvb+m/N6Up+7SELjOeCN+s/oYJxKmYK4yLwO/eU46PyXdAa7aJ8NEMMNBnxsD/7jxcJylMeR6WJPlPMXwwLgUlzQgKtPsiFyj+Qs+jvKJIBy+dGOf+k/aMxDePC+kjI15k/bcuKd9ZuCt4JsMWDznsa9xednhzzzoZskYmMeANhHmjWCWJAaMd4kVKzvLgOnqLIPP7m/6eHZ87/DONHQHyzbGLAbeqNc3+jxLLyvasXjOi4rGpR3+zOPYLG3AgDYRNoC+NUTjfevwLQvedLVsaJYAZvpYIgxbgzANbR2+14F/o17f6POThW3xnBddjcuHHP7AK6DlK6XO6fwjvx46j+IRS7viBl/3w69NBPDIPq9h4N287zdPrlHBfKvv1pXj07RVU5Xpw/RR00dP3Xs19FTtPNWvoOY36vWNPvfkrl3bWDznRU7j8iGHP/OIMkvPZkCbCM/2+vveGe/fj8ETEZiunhjVeT6ZPuZx+VZLpqG3Rn5Pv9+o1zf6vKc6+1BbPPt46mmlcWmHPz3sWZvHMKBNhMc4uKgjxvuigdkclulq8wBeDN/0cTHBLzBvGnpBkB/k4hv1+kafHyRZ5orFk1EyXKBx6Q9/XKX9GAemAdOAacA0YBowDZgGTAOmAdOAacA0YBowDZgG9taAdHJkb/5IrFjZYxlwScz+u58B4/1+zt8wounqDVEe99H0Mc6d9QwMmIZMCTsx8Ea9vtHnnTR5FKvF8yhjenuNSzv80TmzmgcyoE2EB7q6lEvG+1LheAwY09VjQnmJI6aPS2h9lVHT0KvCvb2zb9TrG33eXqgVByyeFXIOVmlc2uHPQSKt+d4MaBNhb6/WR2+8rx+jHRGarnaM2n2YTR/3cf3UkUxDT43sM/16o17f6PMz1Ru8snjOi67GpR3+zOPYLG3AgDYRNoC+NUTjfevwLQvedLVsaJYAZvpYIgxbgzANbR2+14F/o17f6POThW3xnBddjUs7/JnHsVnagAFtImwAfWuIxvvW4VsWvOlq2dAsAcz0sUQYtgZhGto6fK8D/0a9vtHnJwvb4jkvuhqXdvgzj2OztAED2kTYAPrWEI33rcO3LHjT1bKhWQKY6WOJMGwNwjS0dfheB/6Nen2jz08WtsVzXnQ1Lu3wZx7HZmkDBrSJsAH0rSEa71uHb1nwpqtlQ7MEMNPHEmHYGoRpaOvwvQ78G/X6Rp+fLGyL57zoalxOPfz57+/f5+fn3+fvPwr8f5/fn5/Pz7+/D6v67+/z7+fn8y92CjZ+FDtgN9pD/aCm+zOO64jJP7+f/yEDGQtq84tbfD6f//2qWLv6o/Gql34ch6PEGPoEPoBDX+bbS21dLW+fsUrxA2RneM99gW9OJeIZxYW2AzQjn9pEGLF1tk/mHPlNnBXbiHPMSRHZOTM3zjom9F+JdwZPnMNtvX4+/33+/mHOa3OHjRoKxLFz2yPx972EvMbzgo7Ta4jm6Zh7CjsZ4lev7tBVjoHOG+RUhwfzdKZvIrYV09RQv8g4sF5LrLx31neZlnK581f8KTvEdfLn80PL+aBTS+7Qx1nAITbSWs3XaX0sGpNSq2L8aSwauUgfO9Y0dVrH2LT/pQb3a6jOkxhLkncSVZWYinaoJpKh1kUdc22fXFrOdigUcW1KnWO/2En0TXsGSTb4hWYH53jWK66Xd+c6wHFar8I8ps8dIi88YPc8G30+fg0C/+1zfwZOa3h/CqZ5oHE59fDnE5MGS4wpmZQbEu8dWZxwUmF2Ih09bWrMwUMyzVXeLnrwofdpg4/ayIsaLGDUX3iglDZ6NcSfD/aZLyrCJtHzqo3D22P783kPfGC+pRjUF/c6P7212kTo7T+zXY++QlzKOAbuSm2FMtQubkC0WM70o8fWSrwzvCQHwaFOXa9xjuNc4PIcvmcDCQVs7LKNFH+Yqxif6yXNKfAl6aAxHpuDkLvpYCXMr93doSvg242VeCQea220cty91qYrptiYch3GQPnBtYPYapr1Wvn9/LpD5Vr8q5qCtTAeEtXsKNjPFN+hjzP4Qhjcl2YkNt4oX6flsdq5yMe/iHPci+CyahzlkaG0rdM2RrC12ue9GmrzdGguizGFOVnuIdL+VtRiLSptzPI+WbBZyzm+7ucjppCYy6BO5EgYrlUk2lHzJvD6nVwHvpzRqzyP4/MHyhXj+QQ4mqW94PUZn4E3+1yHAYvnvFhoXM49/IFvwlGScC6ERPGveMMHXKMPG5Bs//xbRNKGKCSPf39//m0ibTMO9ulnsE8TD20V7nmCg0MY1F9YXKtjwMIBq5Q8NCsteUHj+5bCJjEuouQ9pWiXty/tz+ddcIjpgWqB9ZlQoE2ECaYPm+jRF8SliGPUUNI+vY9I7uCz1+mVeGeYhTnM2jCO+RxifXoKGmOL8Y9v7hUP5N6OsjHGOBrjlZoRHhCxrQWu79AVxGBkTTrTNzwwdcS0Iw6Ao8gjrh/TdTbmteDWKa8ZaU2IbSuaCuO69Spu+g+uexnN2NUd+hhDlnupsRHe0M298FU7F/kxpH0Zfou0Ekc8Grv2/Vo6bWNkdhcpuFdDbZ5UvUhzWYhpnpMCwdFGsbYIzcqiNubew596zgnjSNgoJ/S+xNt/p9oRuM68fifXgVejes34wZL+6dsO5JPqGEPaCxhHfdY9tJpvMmDxnMe+xuXkwx84HCk3iiGh/4VfkSg2f3zRCMnh9/O/mAiK5o6PtJjxvm26jiVlKcHl8eNoCQ+M3h7D83Hw25XEi3jAJnDhcZVxAITwDU86PIADOofpEt7zyOlKWDw9L2RBSe0nXWgTYZL5Q2Z69JXjjkzTGPlY88232BeZufNyJd6Z32wOsxbCQ7K+ERV660WNseUY0vkec07P3GmMl+dgtHkwT+mOXlNzh65SDOi8A5cSpzQuaD083PdATAFH5TP5ILSR16PgS1h/uV+FmeR/UUpu2usi6TDl9g59nAWqx6bBexo4tJMeiqGJH4PmBxo3eg+dq5+9Om1jrA7zxcp7NdTmSdcLvP2J9n0spu15KOeDWgDamNm+WTQX7NRyjoyN+1TjSBxaKazZkbE4QxyPYv6S4jG9HsM8lk/aY+ic1qka87lu02q/x4DFcx73GpfTD3/gm8R8aJMTOkukfkNcvsWS28iJwicHbzzYxQcYTbriBry3j5TgAj6EmS2ubVzMRhM4eohwbf2Y+GFfGNO3QZuAYgze/lLei7HjDfMBNi7l35DojZU0hFSmTQSp7dVlPfrKcclo2ALZfLDMfb91tRLvjAM2h1kLYc7BnHR6RflA6Fotaoytxx+PGeZz7eEvYWiM57X17+/z5/9+lJY/krWvX9yhqxyD42vSeN8DMe2IQsbBG4c6rCdYY3L8QRfsb/Y5cw1NhRFl7jiauSV36OMsYj02fJ3Wxgo29Fzk68nhD4t7Vxwpgn6dtjBSy6vc362hFk+hPs9NzFM7pm1NMRt4AOW6hbkrR3j9Zb/EnOPb4L1vfnsxP3PA2pxtKbCbxYe4Tta+k+tg+CG9bvxs5Pwe8hkIs8/lGLB4zguJxuX8wx/6Kwk4oZOHVCmxFmV0M1L0by9ijL6if6jNi1Y8dEAbJF+H7uFgq3jIUjDWDi3CmGSzzcCWBQUvfr/t8MLiJnCBeS9Nud7sV+YK+4pPtW9k2BDVgjC++AfAUb+ASf87G6hp96U2EboNTGzo/WvoCzhwuPFPqa+42cC24NunMwcTE31diXfmFtU7b9D8g/UhNsfmtB+mMbYYf7zLDUbYfGYuQEFjvHCwyHMhdF/t8w5dhRjEXEv5K9aUmXmV2zrDfeEDNUR9gtyBdcbaICO1utTsOw9Ed+gjuTh4Ic5xlO/LXF8ZJGpRykV+DLw+QNveGKvDHtQpjOv9G8iXKo7rKr6ioQpPh+YynZvRbk1Twf5AbCqY24c/Qn6g2H2IeTum7fQme7lnGvmS5hDXSYIcY6q64WJIrzF2OB0E3xGHKH8wziH22ACN34XaG/L5hljYEGMMWDzHeJN6aVxecPgT3+CIiaJMEiEphoVHTpBlsi03FqWtsk5ympU1kg/9piFgQclP+oOfNMEJBysUR+kjrZXvWZ/CF4ELjwsOh6hN3r60X9b7upT4yzpquec+PGD2bS5oTHrs19poE6HW56q6wHldX2VcIhJYaFNMXHmIi/MPfn5/3b9Ep2ngKq9kuyvxzhCyOVy26NIrxOQo342xafxBM3iPlWJfFpZOwF1jvDTfwJ8em2D7C5936KqMQZn/fF2ah2Wdo2O8b5zPk/gvcZSBCnUoH8fYl0Nz35KVhqZCO3m9TzYuurhDH2eh67EhnHuec35XczvMXZSLwhi4r/ClSlccqbeDOhUwUsur3H9VQwJPul4g36C5zGJKNCWQXLMvNOdFAubm4U/s05NzSnz4mSJDKdvk8qNXNTuhDnGdjH8n18HwQ3qN/GuHgmlfEAcJvh/NJ9dpb8hnIMw+l2PA4jkvJBqXlxz+5ETPE3NOIiERlMkeFq/8wBoevNw9TRz0voes0Kd4cwd1y9hCoU9waWOPGuJLtri2Ez8dB5vTrqVFKC8+AhcMF7IsLLTU/lze89jBrrRg5jb4KuPApePX2kQYtzjes0dfNC4wWo49lPDPHvu81zUlK/HOPKzMlUN69XbIK+lsMFJQGdu1lOLvMRV5KeacooyMA7eN8QrbI/7AODd93qErGoOck2jepfc8fv19D8S0g2vqA+6SMYXS0Lbc2Duew09em5ONhqaiVeFv/iULl13coY+z4PXYcD11j0Xmrh+jlR+64kgRnNApwUgtr3L/dQ0RnnS9wK/OoznKYnrN/pTFimDOzwSspS84lHPw/tVf8/1kjSMZgVxas0PzZrbQ5ji3nX81pteQa3Z8NnIMjvk8n3uzOIcBi+ccHp0VjctrDn/SQU34F7mKAx5YjP7ktxJYsoVEz95iGNsYBft8sXAk+WSONki+LboXwwH+oD+GEBYFeQz41THthF0cQ3kIzN/4//Jf+wDe2D/v4h1lf6fkat4Tvz9HHo5PbCwVIrWJoDS/tLhHXywuEVEoVzTm2wTujursKodX4p35KMxh1ybM4wN6rc05NmgsUMaG5mL8fZ8SV2hXloGN4rMxHs2B1VxWGP7OzR26YjGAOHesSef7dsS0g3qGA/pEX3KeqDy4CLrzZhqaCkNV7AKWCz7v0MdZ2Gps0j4KbS56BwONxvXfjzGwl+kZLuAf0CnB2DPWN9p8XUOEJ1UvbC7Le71qTpdsjJBOMNcPfyq5Qcw5uT1drwCqyhE06PxU7VR5yvg6h5nabFSvwVd5T0l59m0H8slV2hv1eSrxZmwaAxbPaVTeffiTH5z4q8nxhNl9k1icCgVnebKNiZS1Hzv8SX+Jnx1CxHFQQhtNcOlQBr127b2LC0brb91IYee8xFZxcXSTJW/gQ52YaAED4Z7bn8t7sF/ZIDpciHvnQbOPRFSjbKWk4v0jPlP4PC6uRf1bmqTxhm061pX3K/HO/BQeXpvac30KfmG+oG9d2UBCgTA2biXHn+eqFHOW10IuTrmhMR7d5GW7B/3CTlx4fYeueAwg1nQN42vSmb6Ze543XZxSTDv45Th8gv38c+sq1rHXBx8vDKHknYamQt/IGVl3OqCfanKHPk4BTOucNL+4nsSxHP84hvA3m9D+w8e/aCNY6oqj0C+Nx3WTdNqBUbK8QtmtGurgqXsuO/LEmMZ5jPTheYa9YUsnNCgdmGUc0ZDHyLUTauWcEzgIbyNKeVDkiOLuuBftNHn6Tq4Dd8b1mte1Mk3HcqQLzwu6h7GLzzu0Fwcc97lAbDeLMGDxnBcIjcuL3vzJD+7SAU84lJA3r1KyDWV0cejcGGkcxgXHEZN+SDIbT3BhUPAz2RcOaDR4tFziBdrAOGXCDrXAHcagtys3oNC3bD/CO2w2ENeJd/imIS88GWuJB/w98+lsr/Jfj74gBpmTyGERFIG7ov77Hq/EO2ODbVJ69IpyHGiZ5A82jlQg5SGUJ0L8+TwI5TB3smFJL8XmuDGezyXUD9jsLqYp5/UdupJiADyXlPDceKYvRBXGwjmgiCk0rHxKNpy9Ej98acP1BqbDWkPq2fyB1sIcgblCHzxzl6lXd+jjLGBJI8Em15M2FosvmcO+npQxW5U4srZCAcOA8phrzupbeIQxvlF0t4ZaPLH6OKfoXPZcVWIK+8YzeQXiwTDR2FbWHTGngOH0Bi7JOfAFmJJHGB7IOxQXGke61OxIXGtt+Rfg0kjzyk7rVYoV4c37SsqYBzdpz4172mcG3gq+yYDFcx77GpeXHf7Mg26WjIF5DGgTYd4IZkliwHiXWLGyswyYrs4y+Oz+po9nx/cO70xDd7BsY8xi4I16faPPs/Syoh2L57yoaFza4c88js3SBgxoE2ED6FtDNN63Dt+y4E1Xy4ZmCWCmjyXCsDUI09DW4Xsd+Dfq9Y0+P1nYFs950dW4fMjhT+3XNOBXjehro/PIHbe0K27weD/82kQAj+zzGgbexft+8+KaqF9v9V26onyazigj9P7d+qBsHLk3bQFb79XQUzXwVL+CYt+o1zf6DPnpiZ8Wz3lR1bh8yOHPPKLM0rMZ0CbCs73+vnfG+/dj8EQEpqsnRnWeT6aPeVy+1ZJp6K2R39PvN+r1jT7vqc4+1BbPPp56Wmlc2uFPD3vW5jEMaBPhMQ4u6ojxvmhgNodluto8gBfDN31cTPALzJuGXhDkB7n4Rr2+0ecHSZa5YvFklAwXaFz6wx9XaT/GgWnANGAaMA2YBkwDpgHTgGnANGAaMA2YBkwDpoG9NSCdHNmbPxIrVvZYBlwSs//uZ8B4v5/zN4xounpDlMd9NH2Mc2c9AwOmIVPCTgy8Ua9v9HknTR7FavE8ypjeXuPSDn90zqzmgQxoE+GBri7lkvG+VDgeA8Z09ZhQXuKI6eMSWl9l1DT0qnBv7+wb9fpGn7cXasUBi2eFnINVGpd2+HOQSGu+NwPaRNjbq/XRG+/rx2hHhKarHaN2H2bTx31cP3Uk09BTI/tMv96o1zf6/Ez1Bq8snvOiq3Fphz/zODZLGzCgTYQNoG8N0XjfOnzLgjddLRuaJYCZPpYIw9YgTENbh+914N+o1zf6/GRhWzznRVfj0g5/5nFsljZgQJsIG0DfGqLxvnX4lgVvulo2NEsAM30sEYatQZiGtg7f68C/Ua9v9PnJwrZ4zouuxqUd/szj2CxtwIA2ETaAvjVE433r8C0L3nS1bGiWAGb6WCIMW4MwDW0dvteBf6Ne3+jzk4Vt8ZwXXY1LO/yZx7FZ2oABbSJsAH1riMb71uFbFrzpatnQLAHM9LFEGLYGYRraOnyvA/9Gvb7R5ycL2+I5L7oaQ4PVqwAAIABJREFUl1MPf/77+/f5+fn3+fuPAv/f5/fn5/Pz7+/Dqv77+/z7+fn8i52CjR/FDtiN9lA/qOn+jOM6YvLP7+d/yEDGgtr84hafz+d/vyrWrv5ovOqlH8fhKDGGPoEP4NCX+fZSW1fL22esUvwA2Rnec1/gm1KZRvlFfLv4aA2hw4FPbSIcMDHUNPOLfCN+iW3E+RQhgCaIHQDI7CntoP2Vn9/i/Uqf5Lnfo/P/Pn//kA5qMVYcYLGNeazIAdC3kqOgya6fd+kq8308P57pm+IirFdirFMHfpFxYO3ltZf3cCVZq2X6yOWQz9ln6tAzJ+TRz5bepY+zOENspPU6cNcXaxqTUqti/FOMogeDuUK0re3PBsc4y/Fo//s1NBDHAa7FmFE9dJNWxyyvlZLxbIdC+Z/bF0rPEN5M7Bc7ib5pzyASjFim2ZHn4/fyHHbhtF6FtYY+d4i88IDd82z0+fhnOMyBXe/NwGkN7+3+VPQal1MPfz7kICd5kJJJuRnx9WQjgJOKnGA/n542aWzhwi8iPz8fmqu8XbS40Hs4NCkWIII/DAcLGPUXFgdpkycARUXYZ34YImwQPS5tHN4e25/Pe+AD8y3HIPKGYoAomHKpTYQpxitGerQUYlDGLPBEdQT6ig9xmNiIIdjC/aL2hLYV2NOqvsX7NAckQ2zu9+hc0LjLjwc1L2kF8m+RnxxuhlNyZs+yu3QV+A7z7Wh+PNM3hC+MW07doCMNixTNQ5oBA3Ed+XUPXiUAaBE+VY31zInS1My7u/RxFrMYG2+Ur9XyWO284sco8kxcE3CZGkd5VCgV8cO+D9t3HQbHgLHu/rxXQ51xpF8CHuI6jsG+dIh6oLabhLcxd8e8lm98Hd+3e3jRf0hRoh6bfvAGoh2R68ABjO8syXtcPsbskjN61TDT3EHvv/ls5Pg74/Ns/s3eeQYsnuc5BAsal3MPf+BbQrLYh0Txr3jDB4D5ZIPaQ7L9828RlQ/CoU9Isv/+/vzbREc2v65/sI8figEJ/+QJTugvbGSqY8DCgVcJPjQrKXmh+IUNYlxEyXtK0S5vX9qfz7vgENMDYJAxMwtDBdpEGDJ2oJP3DencdQ3+5liK/ke9YJ3nfnHTxbTE45vHk2J7wJHBpt/ifRBuXzdh7rOOLH5ybFi/RoGoFdeHjbffw1bD9aL6Ll0B3yPr0pm+4aFJeeApmGjfAA6WXyXNRHN+fXb5pbqeHNRYZby2F8da3KWPY6h4azU2wlu6vLcraecVP0ZjDep+SCcgVPxSrHvyJrH/zdt7NdQZR+mAppPrEKu87yi4jTaqB71FB3fTxtyrq3q+CeNI2Kj+6D2D3Fmg2pG4pjZ72tA+E+5H9VrVBcHl2w7kkuoYQ9oLwEZ9Jm7Z7SIMWDznBULjcvLhDzzQlg+YIaH/hV91KB5U+aKRkm1MBEVzx0faOPC+bbq0h2W5p5Tg8vixT8IDNtpjeD6kxRtMCJ+JF/GATeCiulnn7ZP9S3gXHSKHP3Cox34xUOg8XqRNhHGLfT17tJRigE1q8fBtFK1pfbwm5jxIYog919/ivQfbcBs29wVLMRb58C7MPWkDK/RWi0StxNYsv/TgVEdau+IuXSW+q3PLPVDNzK1xfpNN9mhEkg+CAaYZ3yb4EtZg7ldh5ojG2JwoLE29uUsfZ0HrsWnwngYO7Wp5xY9BtUTjRu+T/fqFjh/egEB7wsEx6giuq71XQ51xVPaPbB4zrpU9A6KP2UB18mUbM9s3i4aCnVq+kbFxn2p6FIdWCmt2ZCzI0I15Do06+BYM5xDbpNdjuaQ9RpNTCiTe3ztHFRBWPI0Bi+c0KtV8MP3wB755zoc2OaGzROqTY/kNRG4jJwqfHLzxYDc/VHWQdTAZSwku4EOY2eLaxsVsdEF3f08pbqD8mPghXhjTt0EbrmIM3v5S3oux443mw++vPxRykz/8IK4lOwfLvpVUerSUY5Cdqi+G8hxRN1pR/3lu5nGuvvoW75f6xea+MBrTORyQO32Pa1vSCowe6pDtHpzQebPPu3SV+ZbnXG1dGu8b8nTtgf5IuDIO3otpxjXxuslriPeRHh6AqSMaE+YEmJn9eZc+zuLWY8PXam2sYEPPK76exI/F/UgcERAdP+S7ffPR3RrqiiPsBVEM3GU7nm09MRtkDOm2hVndk2BjPflGyh3CvibgybkLD3PkumanyZOE9cjgg22H9Lrxs5GjacjnQX6t2/UMWDzncaxxOf/wJ74CmjasOKGTJC0l1qLM90WbhqJ/exFj9BX9Q20YDw4ayj8o5+vwZin2T745EwrG2qFUGBP5xYDygoIXP6zDDIubwAXmnZnj7Qv7ik+1b2TYENWCMH75t0mksviglfysGu2q1CZCV+cTjXq0FGKAtFj7I74ei/wgyjQJuAX9Q9XVn9/i/VK/6Dxhg0majo0gl/gYH8sFzkIxX+m4FBe9p+03vr9LVwXflM9iXs3MrdzWmVAVPlBD1Cd4wxSfFLM2yEitDjWDXxEpc3/RYOrNXfo4C1rL/Q6/+6ntJ4qxK3nFj3F0P1MY128OaatbK/p4d9Z8RUOtOGp7IsotvY92a3oKsTy+JsEXv0GzpD/FwQIo7GXEPrwd03VaH+leimBiGHjBIV0X3Strf9Fu/s2QXos1LGAKviMOUe5gnINea+vFhdob8nk+9WZxEgMWz0lEVg5GLzj8ia/5xkRRJomQuMPCw5O4c7dMtuXmt7RV1nVR1Ug+9JvNgAUlP2kTxhaoNq7Sxy7khBdPFPq1KWFMjwsOh+gYvH2Jqaw/zTsZPrzNQhficszUxfuB33JKNUMX30oqPVoqYxDdg0UVLbzZcXkO2eFPZujSKzb3y9FknZdt8oZZm6ukfbwVtVLUofnVwCmPsEfpXfO55LvMVb4uzc+yzrE43jfYKr5sOBGWEkdpKNQhzcS8g/fycHAjPjh2aqxrTpTQTt3dpY9TIJlGsDWip7geOr/Cj5I3YN1AhwQhxtAvfLJYdsYRI3TXh7Q1OAYd8677r2pIjaMcdzaPGddETwKJtVgKzXmRgFndk0DvA/mmxIefKcBYXY+5VfuqHKtsz7hG1XfnOTT02FswkX+WD6Jh709a44Dfo7nkOu19dY5i8u16CgMWzyk0eiMal5cc/uREzxNzTiIhEZSbS0gqeWELSdTd08RB73vICn20zXTGFmz55I4SnjgCW1yVB3LUmY6DqtRLaRHKi4/ABcOFTAsLLbU/l/c8drCLHjJSleCDqxOwpi4DF9pEGDB1qEuPlmgMYIAcZyiBT0VrGmc1TYDJiz6/xftF7gSzFT51nQuIvJ1jB5yaVpz1PHfjWBWcApqtiu7SFeU7c0zzFr0/s6bF+d1agzojRn3A3bI/oTS0LTf3juvwk9fnZKNDY4fmRDJ87uIufZxDyTWS7XE95brGFckrPqYtLXXEURr1iLby/lCytF7Z1zUkxREd6mHG6DzmXCt7BmTE22jpBLUXLwlmjqPsdSjf4P2Nv+b7yZoey5HrdzU7jOto6ht5DnsxpteQZ3Z8NnK+j/mMWbPrlRiweM6LhsblNYc/6aAm/ItcxQEPbC7+ftGvLWVHWbKFRP9L249tioJ9vlg4BHTR821biyD4g/5OcTX5R3+0E/bMRHnFePHVkLB/+b98Bryxf9pF+FU16Zs76D+J98Tvj/aQqzzoCPyWzBy70ybCMSvHW/doSY4xPBhImtU2cvLc0Owf9+Z4j2/xfhzpgR6KNsP813Qu2Ie5Js1VobkrUmMp5RcFp2J6q+K7dMX4hph15MfzfQ9oqRI9hgPaMs1oeQXWDgFPQ2OH5wRgO/l5lz5OwtTnc9pLoQ1G72Cg0ZhXfPwH9jM9w/VrCzQkrWc9I93f5usakuIoHf6weSxzfcX+lEWFYK4f/hzNN7m990XQtKpHBrReoNqRuPZ0hwPy4pmnPsT02lG9Bl/leUl59m0F3gtnhDXhKu2N+lzgtZtlGLB4zguFxuVFhz/w7bNLhPRbwnhg4b5FFDIkT7Yx0bP28gNum7Jsrxw+lqOENprg4PV45ntcMEb+3gHnJXrqE2xYcOiBkphoAUPpvLD5zDyVcRrjPeAXHhpwwKIvGVrUSi7ArYeutYkwZOxApx4tyTGucRBjJPDDYq9sVg64cKrpt3g/BbrVWdjcNHXu+qAc84G/rcLyZH1wUSswtwv78gNA3fo+tXfpivPdnx/P9M364LnTzXGa82uR4zjym5WFJlkexlaVfCTMBegVxuX4of7Kz7v0cdYHMTbeaOd625FX/Bg0N1DglTjSpvhexP+QfHSrhnrjSNeLQ1zHOdxrAwdauu7AXD388ZrT8oOcbyCnuNhIOVDUo4S9USbaUbgGTMJ2rDHK3OpxveY1rfQhlqPc4X1F96IHYi6ZrL048LjPInIr/DIDFs95AdC4vOzwBxJheXAQHAoPpv1JG2yVCalzU6RxGBccR0z6IclsPMGVfib7ykKlQcTlgQN6kFaOU/IT6oA7jEFvV9qHvmX7Ed4h4SOuE+/lNw0wZsJbDo4pGbp2dr/xn/eL6IviYL4DR4QDtR3ZzME8Ay6lTRLFcNX9t3i/yh9vl21u+nTO4tfQheQDsxG1QqQSujKcksU9y+7SVeB7LD+e6QtRkeJ9dD5LNhx/VDMhb5S+Ag73KdarGuubE9j+zOu79HEWs6SRYLN/vWXxJXnF15MyhluNI2tZFLCxH5SP7tYQ45LEjNUPck33B87PozkFRMAwEczh8Ifv/9x4Yj4Bw1q+gX9Yhux5oBvDA3spigs6KJ+aHZoz8xe+3Mcz/6qnAqtafFqvPgcQPwhvnhdSxkBVcslM7blxT/vMwFvBNxmweM5jX+PyssOfedDNkjEwjwFtIswbwSxJDBjvEitWdpYB09VZBp/d3/Tx7Pje4Z1p6A6WbYxZDLxRr2/0eZZeVrRj8ZwXFY1LO/yZx7FZ2oABbSJsAH1riMb71uFbFrzpatnQLAHM9LFEGLYGYRraOnyvA/9Gvb7R5ycL2+I5L7oalw85/Km9Wg6vL+qvsc+j+ailXXGDn/vh1yYCeGSf1zBgvPfwut986vHqyjamK9NMTV+mjxo7rTrTlmPovRp6avyf6leYz2/U6xt9bmXvnestnvOip3H5kMOfeUSZpWczoE2EZ3v9fe+M9+/H4IkITFdPjOo8n0wf87h8qyXT0Fsjv6ffb9TrG33eU519qC2efTz1tNK4tMOfHvaszWMY0CbCYxxc1BHjfdHAbA7LdLV5AC+Gb/q4mOAXmDcNvSDID3LxjXp9o88PkixzxeLJKBku0Lj0hz+u0n6MA9OAacA0YBowDZgGTAOmAdOAacA0YBowDZgGTAN7a0A6ObI3fyRWrOyxDLgkZv/dz4Dxfj/nbxjRdPWGKI/7aPoY5856BgZMQ6aEnRh4o17f6PNOmjyK1eJ5lDG9vcalHf7onFnNAxnQJsIDXV3KJeN9qXA8Bozp6jGhvMQR08cltL7KqGnoVeHe3tk36vWNPm8v1IoDFs8KOQerNC7t8OcgkdZ8bwa0ibC3V+ujN97Xj9GOCE1XO0btPsymj/u4fupIpqGnRvaZfr1Rr2/0+ZnqDV5ZPOdFV+PSDn/mcWyWNmBAmwgbQN8aovG+dfiWBW+6WjY0SwAzfSwRhq1BmIa2Dt/rwL9Rr2/0+cnCtnjOi67GpR3+zOPYLG3AgDYRNoC+NUTjfevwLQvedLVsaJYAZvpYIgxbgzANbR2+14F/o17f6POThW3xnBddjUs7/JnHsVnagAFtImwAfWuIxvvW4VsWvOlq2dAsAcz0sUQYtgZhGto6fK8D/0a9vtHnJwvb4jkvuhqXdvgzj2OztAED2kTYAPrWEI33rcO3LHjT1bKhWQKY6WOJMGwNwjS0dfheB/6Nen2jz08WtsVzXnQ1Lqce/vz39+/z8/Pv8/cfBf6/z+/Pz+fn39+HVf339/n38/P5FzsFGz+KHbAb7aF+UNP9Gcd1xOSf38//kIGMBbX5xS0+n8//flWsXf3ReNVLP47DUWIMfQIfwKEv8+2ltq6Wt89YpfgBsjO8577Ad0GlGI/Me9EW4Ax8ahNhwNShLpnf7NMPcUpsI86nODRogtgpgPW0KTpcc/Mt3i/xxnNK50lD3x7If5+/fyj+tdgqwGWN5Pz5//auxEhyFYZOXBNQxzPR/GQ2mP7FIdCJsY0PbG3VlA9ASO89BKbdvbyZqN/SCm88wfVZuqo4ct4xSFUDOBfvaVusK/kR91HqNU6qH1iDtnaSqapZKp16H/K5OJYGFReoU4oa/o4oOksfW3xNfGhzdMKrj1/OA9WnyjkHX81nyxGpthfWZGob7s9y16fWOF9DGzi1cG9wO5aLts+tdTIls9rhsvjvYzxDRAO5XW6kxmY9g1AHyJVlRx+b1+U57PRuvSpzDX/uUHGRhJ3zbPT9xmc4jIGfz43Abg3PHf5Q7y0sh27+fHPSEImxJBO6MIkRsskJJxVhJ0PSU6eFXpxEfn6+PFdFu2iDil/DpgnZxGL+p35hAuPxwuSgLfhaHn+/OGa+aQB+EbyiX1Y/cnGJ7RM7yK2eOqg6Ok14YLwtDlCjeJr6tOLgtZevrYGw3HJfjRgH0hZwhrWkxZpw4joCfeWHOAxscbOnTql8+MlVuB8SmBjzPfrOfGANhLyIrzuc1TQCeRdrKZhKdbF2cv5R9dLR+Q2rnKWrhGUab2vz4562AXI9VyY9Wb5oVK3RTmmf55FPePBq6UaMiWIh+o+b6jmt1h95dpY+tvis8hENyflZt7+cU2IfJMfkHIDvNbjT+013Vf9hrYftx+rZV7Hhnf1RP9Rq9X5e2bka6uSU42XhrnI7motln7s3f1r5JpbJdXuSV/oQGfKMqs0NklHtGFiHvAb9h67OzHM4tD161eeavJZAY3p7XhmtvRT5npgxdn5+DwScz3E8WFiO3fz5KpMAPIT8/pI3fCC0mGx4Uvn5fP/iW0TaQ3/q4/fvL75NtGbxG/pMyRw/EIEn8igTnNJemVybfcDEgWcJ2bW4k2wCLtx/ZbGYJ1H2nlK2K+tT++NxVwJS9UDr5YXhSqyoDXplDQRaa/xVj5aAA8JZ1gvWeaoXNJDHm4JPT53xUdoWr8Ld9mhHiTLmhTXBmxxzok3HDVUjoV1nf2b7jr7vWOUsXQFuW+alPW3TQxN9qNjKA/hB8ouqndpDnJ9DfmnOJ+03YKu1fCa0KmoMu3GWPrY4bPKhvJmr21/OKbEPtL4KdlK/aA3Rk88UB0z/FX5Fn9hert/cXMT1Tz4/V0OdnPLNn4CJgru26TKei2WfNT80Gtv5JvWj6YRrkV9rffXcM+1oWHODPXV4mwHXW/Xa1AXzK9bdkFeafezIA1tjZmH55U0QcD7HEWFhOXjzBxYWdPMgJfS/9JUH8qAqJ42SbHMiINUDHmWhItsuw2U/LGtttQRX+88tij9gYbmPiIc2eYMJ5VhwUTfYFCyai3VZv9g/BHc1oMXNn+QTWqQqZtbesgbCWjtr6/doqXCAjVt8xDrLWvuCXsRAwp0cf34V7odEJsa80kvmrW7apTGnLVyV1uYtVSO5Nskrlm6i72M2E0wnTyw4S1cF9yauIVeNzK15fLNF9lZ4SwyKAaKdUp5iSalDxlWqhZOeMQENLAyhfODxLH1scdnmYwHr0lmq18opsQ+uH84Vvy722ye2//DWA6wDl+cpXX/t/s8qPVdDnZwa60eBo+D2CC6Wfe7LD8lOK9+I+KIIZEwtba7RTcuO7guyfmKeQ71u/AqUxBDb5Ofb8spyH4uYckfy9blj1HDCbw9DwPkcBqWZD4Zv/sCnD/VZsyZ0kUhjcqQP97WOnihicojGk936cNUBVk7GvW20BJf8Qz6LyXXZL2Gjy/Xwe0p5MRX7xA9wSp+xDiy+eAey/qG48+7DtYiBV9L557XWXl+VVHq0VDmoUbUnwx6MeurU/o46uwr3Q+IRY17pRdF34jd8dQjlD6Vp65amEaifyrJty8eLFqTg4+jjWbqquOvjqTUvbW+b8nTr4X4NntUP2YpoB4qjhuocEmPkGwmkbo+uM36WHbA36HiWPra4a/Mh52fLfrJh55RYzrAWXFu5wuo037f9hw8BQQ/L8QifFvo+s/hsDSUsFjiFtSADQuAouD2GiyWfuzZ/evJNrIPXvvWNp/rMAfqruYvB1H2Z4tLtCKyJ1XPzHO56k14nfjYKsW+KGYPm57dCwPkcR4eF5fjNn/zKclmw4oTOHjy0xEru8YmLtF+exAR8pH0qTf2l33IIIOHfzYhleOGU25fYggnDx9YGU+oTFkbCS/UGwSV2G3yGSUnBAuMuLMr6xL4RU+sTGdFF80bqH2Mtqkcf2CQvKq2/YQ2E9ZbWtejRUuIAaTH/GLmtJf1BlHrWU4e2OOLqKtyPiEWMedFJQ9+QQyK363JA6IaMU94vHrf4HNdTciAunu38LF0R3Dm2BNORuVXa2sMPiYEb4jFpbwyKOshIqwxs5XxW5y3U/qDTs/SxxX0r3wefw5+d91lvjZwS+1i7hmHmrctuPWX/WvEkW+vzoeXbyPuXaGiJ07L2Y5Hyccivj+Si4fPynKmsU7jvMVRZT2i8zJN8LbVeX90ax75dkOewCjbpNXMnN9AQhiiPCMyBe2yA83eg9jbFjEHz81sh4HyOo8PC8oDNn/zKb04UNEmkxJ0WATKJh3BpsqWLX2qLlnVBtZB8+CebyReU/LQFGU9wHd/XpzF2ec5wqZ92JCwVLKJfsDnE+5D1qU+0fDfurPv0NktrIs7aQJMNM7H50hoImw12NuzREuUgG4ZJVcVCH0PUpZ46tMURV1fhfkQsSwvZZX3X8bv2QVjVSA4yleVxJfJSqRS/bonXaIdgdJLRs3RFcV+XH7e3Tf2QDxt24Er9oIaIdkJRzjtUJzRuYsHSG6mULlJfKzY3FBu9t87SR68/uJ7NB8M5YovXIca8DnMF2hgArAMO8Cc2YVZw1+c/rONgjmfxYCP53MZCqXzyrUs1ZHKqayDhCLgrH04etD4llCg+L82Za/IN1Upa33BN0zrEu1UXLTsCa2Y5lZ+T53DXm/SaOeM4gt07PxsFHzfFDMH58XYIOJ/jKLGwPGTzpyZ6mZhrEkkLArq4hEVDndjSg1S45gsIft0DVmpjLaarb8lWTN7qQzfqSyyclh+2eT/ImnmqTUJ18lGwEH4h0znRY+y5/bG4176TXbQ4qUX1LC92sX+1cN+ZNRD2WV1u3aMlzgFYrTzDHTgua81/8wewGnhsjK0ufYMrG3RuaSSYrGPWenjXHgbAmTmPZ41njnvFmudefr1nTsvje2kO6qSOx4Cb1XjS3VS3bhgEnOtfnZ+LjcaYKHXKSY4LbVKUosEnZ+lji9s2H1JD3fZZTol9LOlnFXfVE9t/lovgza/GhB71t+Rn7frUs8s1pHFqjB0+jutaHCBbXjMM4YL5LP0Af9JxVb7B69d4LteTLW3SnttXLTsCa2HqvDyHu96m15RzZnw2CrFvixmj5ud3QsD5HMeGheUxmz9loyb9j1xkzoeFxt8HfW2pBiqSLST6D6+/bYGU7MvJInjAJ71Yd2lBAvH8qzGkSUHvAz7hsHbYqxV6JnCJxZCwP/J/PgPcxH/toj8ACvvQfhDuwd2Ey/JXuZYnVYrNmitrIKyxsaVuj5YEB7mjdF/T0/JCzjd/trC10EYZ86FFr76LdRhj2hgtleiJpRGZV/T8aLan3UxzddZ4FrgBdx35cX/b5ZzZQ5jwAxrlWOqc1Mgr/KEObBhjAorpMdtfmltpo01XZ+lji3MmH2X9hBYVvR2ALnNOiX0s4byKu+qI6b/QE+RGbQ6rG9VVf7WPO5xdriGNU23zR8Fd23Q5Yn0qeGI+a37UNmvzTa0fY1H0bWqzdtp1ZtrRsBYWz8tzuOutek2x6mOU4xzrKrhjPzTOj9Le1piJv35xGwScz3FUWFgetPkDk334tJB/Spg3LMIniWRXKAUrk21OoKK+/nCzDFm1R7uXiXprgvvmxZuIPU8Yzd+6MQKQuOSKeTEeCOaLJzXRgg80ePm1Mvi0bhDuyf+Oh5iuSdUAqeO2NRA6mu6q0qMlnWPY4NN2CLJmGZfU0Z46tMURV1fhfkQs2qJmUd9hnJLFEuQhnh/bHqsagTFN7EMORou5g8dW2/NjSs/SlcQd+OPzmJyX9rQtm7c/MneG/M5zfgtl6Ud98CbazHOKnlaMfGRuIIT6TOPZ/hrfW3G1ys7SR8sHq0zlI1aWGlJtdOSU2AfLC8KWyZ2oSW6o/hu56Ig1EXHmwItTNdTLKR9TFu4qt3kM99pYwrbDZ23OLGajjzK/pXI93yTtpbcRtTyiarN02H+i2lGxvjbP4Yi267XOaTT35/soj0Rc0DXuv5yfob3c2faYi7d+ciMEnM9xZFhYHrb5U5IzzSIxorQpoS9ctWQLtqipzgWShWGecAIw5Y8ls+0JLnUKcRb7ygaN5R6/r+ECdaAfik8qBeywD3Y9ukiHtrT+FtzzBI6xLufo4bS8PUH9gDhHHAMOV/zr0RLgjbmK55SAvFGHdFuwrLiZtviC7yQwrsL9kPDEoqZP34ITlm96fBU2MvdMIsUU5AbQlLZQLpUnPDlLVwn3Or4CVMAFxV7mxz1tgRLoC3gMx7VcajaCHeo/bBrSWMGPcEyaYuViTNQWWr+8z1p77NlZ+tjitaaLZEdqyLIvsGU5JZaze8JWgztRF90QfS/kotCU56MtOkYunHJ6toYErow/Ud7CvcHtSC6ET8zntPkj1ywhh6n5BDGrl8Ocy/JQbif8gTUS9wv1o51adrT8pdXV6mn9jLy3W69RM4wrhluMld0TMZykvdDv7piF837jSgScz3HoW1getvkzznW35AiMQ8AaCON6cEsaAo67horf24uA62ovgs9u7/p4Nr9nROcaOgNl72MUAm8LpXBjAAAgAElEQVTU6xtjHqWXO9pxPsexYmHpmz/jMHZLEyBgDYQJXJ/aRcd9avpu67zr6rbU3MIx18ctaJjaCdfQ1PS9zvk36vWNMT9Z2M7nOHYtLB+y+QOvgLJXFeFVz3jUXw8dB/EWS7P6DbHO5781ECAiPx6DgOPewnW+cdSK5swy15Vrp6U310cLHa3M9cRRea+GnqqFp8aVlPtGvb4xZp6nnnTtfI5j08LyIZs/44ByS89GwBoIz476+ugc9+s5eKIHrqsnsjouJtfHOCzfask19Fbm54z7jXp9Y8xzqrPPa+ezD6eeWhaWvvnTg57XeQwC1kB4TIA3DcRxvykxk7vlupqcwIPdd30cDPALzLuGXkDyg0J8o17fGPODJCtCcT4FJJtvWFjGzZ9Q6H+OgWvANeAacA24BlwDrgHXgGvANeAacA24BlwDroG5NaDtHPmbPxoqfu+xCIQk5v/OR8BxPx/zN/TounoDy9tjdH1sx85bJgRcQ66EmRB4o17fGPNMmlzrq/O5FjG7voWlb/7YmHnJAxGwBsIDQ71VSI77reh4jDOuq8dQeUggro9DYH2VUdfQq+iePtg36vWNMU8v1EYAzmcDnJVFFpa++bMSSK8+NwLWQJg7qvt777jfn6MZPXRdzcjaeT67Ps7D+qk9uYaeyuwz43qjXt8Y8zPVm6JyPsexa2Hpmz/jMHZLEyBgDYQJXJ/aRcd9avpu67zr6rbU3MIx18ctaJjaCdfQ1PS9zvk36vWNMT9Z2M7nOHYtLH3zZxzGbmkCBKyBMIHrU7vouE9N322dd13dlppbOOb6uAUNUzvhGpqavtc5/0a9vjHmJwvb+RzHroWlb/6Mw9gtTYCANRAmcH1qFx33qem7rfOuq9tScwvHXB+3oGFqJ1xDU9P3OuffqNc3xvxkYTuf49i1sPTNn3EYu6UJELAGwgSuT+2i4z41fbd13nV1W2pu4Zjr4xY0TO2Ea2hq+l7n/Bv1+saYnyxs53McuxaWQzd//v39fn9+fr9//7jj/30/Pz/fn9+/ryj69/f9/fn5/uZGycaPYQfsZnuoHZR0H3O/AZj69/n+hwxUX1CdD67x/X7/+5i+drVH/TVPYz/BD+pjapPwAAzjvVhfqxtKZf3qq8YfeLYH99oW8JZQIpwRL7weeLPlaA2ELbbWtKn4ohhZYGoddTzlnkETzA749d8H9bVnrIDBHcercF90eeU4qfb+ff9+E74a/Mtc1vYwHsQRGRb2UFn1yTrr7CvrieSRaDKP3VV9Wr6MvX9bXTXCFFyGXIewTeVaHs48nDCPCh+Rf43Qbld0qT4myS2RtIW5ZIlYoZc4f2MNd+ag2BGvi+0seTK+/FINjQ9Htxj55zgvr9mKMWU9LeeRUts4afOua6w+O+hGq81JU5geVuPubr0qXPLnDpULDrCqqeR4V/tGjLxod8zcoF9fioDzOQ5+C8uhmz9ftpFT3C/JhE8ucvMEJwVr8uipU/pWTuChmOeqaBctrPk1bJqQTSw1wcGEw+OFydTalFGczbdwzPhBIRUnuwSv6JfVj6yP7RM7yKWeOqg6OQ2YY7wTBxSfeA/hTwwMurAGwiDzppkeLSV8KWcaTt8v6Ctv7mBgswepHbIV9bC0UDLd311wFe6Ljq8cJ8VebvcJG2wK/hqXMH6U6h2byHis5DyiGioe2ifRd2yvVhW6+X6/Wiy1xbVnt9VVA5aIJ8lzmU+4d/E8mvjG+tiptwYWRxddqo8JckvPXNLDkZYj0j067xdbZg7KcxuMhdAgjAd8XYycc3Kphs4JUZl/Eg94iklzg+RTv5/aW2tJGdYy75rG4JmDrMmx8YV5Gld9yvkevepc5jUAGoORC3R95bNR4G1PzE/h/UlxOJ/j2LSwHLv5Aw+lJClA4vglb/hAaDHZoPqQ4P/iW0To4RUa5D5+//7i20T9k0sykOzjhW0xLE5kgoMHIdReWcQ0+4CNMDyrip7lDYoL6j9WlZs56Y0kDb/QQNan9rV2MJlvw11EpDzgcC2INgNuWANhgOmmiR4tAQfk3TIFp1QvaCAvmLiWlDbBuTPwtUC4CnfLn3J/4wNaxDLgbrRXuczjTtssst8glGM1+K7bL1G1T5ScVRrw/GRoqdS/+OS2umrgErlDc16oWsd0vEpvlWl1fo+eRw/QWwOLo4su1YeRG1LMOs6h7LzcgnVnzCWdBOn5KMU4It91unFItUs1dEhEitHWnADVtbkgtpMbQtCk/2iPB7ChayxvDhpvNi+NJbD9pONWvdI5qI1IrKvNT/hNdUVTzT742qPtAindGjMx4he3QcD5HEeFheXgzR9YTNDNg5SA/9KCljyoyoRfEnxOBKR6wKMkFNl2Ga51CxwtwdX+c2/FH+h9uY+Ih/r1LbAhjwUXdYNNwSL6RXmoVmX9Yv8Q3GvP5UzpJ+LCJpRSf9CJNRAGmTfN9GipcICtKDjVYkNrkXu5IFPtV2OHnl2F+2JQK8dJspfGT8pNciyFOjrWet1oU+SR7LnFv8FxbtU+WH2VLuHru1lfB4/JtrPt0tvqquH21lxwyjx6hN4aWBxddKk+7p5bCPjGXELq2BfD8l1rg9zu/tCSSzV0aGTI+MKcEGvm3FA/cB05P6S5Ud0ozG7qGkuF+pp6eZ5GCDzmdJte143/njlMPCvBs4t4qKvQ6zzWcutsW8yWNb9/NQLO5zgGLCyHb/7Aa5h1fNcELJJ3nEzoWyy1jp6M0gI4vBvReJCycBOTl1Ux3dcSXPIP+SwmzWW/hI22G7G04gIbYPjhXulz5cKz2j8AdxGfvmhIif/Y36mxBoJwcfCNiC97iOY6qBzUztuToc6VHIPZntBq7efos6twX4xr5TiJ9libyJHKLd18TVyi3IGds7ix7lsP6dimdW7ZLPWzrsTvdpQKtzm5ra4aCPXkAjmGT5pHLW3s0VsDi6OLLtVHxJLmgBqvMmeHQtbm0NxSnQnb1cqHc6RC88Keu1bmu7JxHtYBRtumJ+MLL9XQ+HB0i9a4x7VjHbnubG3Y4OZL50lDNu+axsBmKmN66RhL0P5Jx016nfjZKHC3KeYnkf6wWJzPcYRaWI7f/OGf3OAEzBaQWjIn9/iERNobi6cWZqR9qpj6QxsO6CEulqFrWJCTyc7wsX46Ih1KfbKJSlYjdwgucY0YfIaFpYIFxp1YCheyPrFvxNR600F0IW7gB0rsu6hYbiSfxv5OjTUQSqcHncRYFrQE8QYf8Z+tJWvBnu/j/mBxf9GC+ircF+lcOU7UhyQ+XsgDDOKy7ohLtxQbsZJ1X8ll0qhxx7KJq8c6+u8Z4WpXn99WVw1genIB5Ogy10Q+cr5n3Ke8AXNB6pjc43yT9mwu4HUhDtIGbt7/eKk+MGcCKoZ7LFfyucKHOk9syS3EJ6VvUt6+GO5T1luaB9etldqeri+9VEPr3d3WQtEZNZT0Sn9bR9MwbbX6qsE7yWncsPBf0bOow40843qTXpX8LsY0Wk/GMnR95bNRYG1TzM+g+5FROJ/jaLWwPGDzJ39nPScGmiRSQk4Ps0pyLg9NsJClkwu1Rcu6oMoJznqY5p+yieSnfa9YTCjLfiW7EGOX5/JrJCQWpc/ol9WHrE99ouW7cVdCBGwtLqAJ5wTubz1aA2Grvd52EG/oH/547JSDbBkWQ3iiLZ3qYygVJw6hr3D8fML/TGdpohg95CT0f8t/K8cJLHLosxYdLyFOziXwT9shREQeyWXWfWWxhqy1Ty2bpRXVjulzqX/dyW111YAEtIDHJs8FoTnOfbFNyQEHzqOWNvborYHF0UWX6iNiaeVbmTNOzy0E/NZcQiqqF8PyHbcO899F81Zw51INcTyOurbGfe4v5iLxwVGeJ46YIBTeucYwFKkMbRKq+UoZc9jIQ8436TXjpc1DARY8F4XrhHddy4Y+RVuhqWX8Wxy36NkUc8ugl12KgPM5Dn4Ly0M2f+p3PfEiNQVTk0hKBHze4IM/TTphAcUTB7/uASu1KZ+msibVt1QQfSkLblYZLkWCW15E8X7AVOvIcQl1070w4SlYCL+QdWVi5PbH4o76LqcZp4VFXfWjNNx1Yg2EXUY7GvdoiXMAZivPcAeOy1qDmuHY4wOuP/L8KtwXY9g0TuiiJ8SW/uqDnsZlc9xbfihjNcZk1V8MOK7kml+pwGMOn/eYPrvObXXVAKJ7HBaOT5xHj9BbA4ujiy7VR+FPiVLBOeUMyCX8eEBuIW6tm0tIU5hb2Fy+Kd9xw+E64oi/bqRVOu7epRo6LixquaHVNAegjZXSMmtmaY1c6q88YbxrcypY5PNU71iC9k86btPrvM9GgbttMT+J9WfF4nyO49PC8pjNn7JRk/5nKLLBA5PMn/4WgkjwsEgSby0oGx4deCX72kRm7G4vTWwQz7/auT1ZxlWS+r+e1db6mcAlVoOE/ZH/8xngRv7rqGxb8VnYh/aDcJdR9SwceupIy6071kBotRlRFvFd0JLgIHec7muaXbNgT3XFpzMjguuwcRXui66BzrvGSQPvnoUqq0N8U8ZkKtfznKUVYtO6MPuq+ank7IzPVbqxQoD7t9UVOKgce3JBagbcnzmPQp9oQjMe7pXQbnfrUn3cPrdguhq5DVczztV8tCnfKR20cFSqj751qYZGB2PZM+aEtJa1N94S73a51V3Xfca7qrFgSMxRDS23NNnl1P0rbdVrwldbZ9772SgwsjXm+7P5Tg+dz3G8W1getPmTk0X8RLx+YpXCyRsWoaw8YdRAZYLPiVzU1xep1ZJ1Vu3R7vN99IAefUHXqkV10oQYWex5kqLfm1atipsSl1wlT2aBYP6Apm5CgQ80ePE1lfLbJkNwD3gwLLLfxefgF8M6xTx2YWENBAH44Bs9WtI5zlpifCX3Gosc4r/UNik+4eIq3HtC6x4nzYUj5UnnssGDmkeS98I/sdjtiRLVMfvS/Uux6ItCZPWS0zvrygKkJxdAW3j4kl/XhDlm/Dw6XG8QzAXHq/UhsAwYaHPwRbmlUtI7l9QW+GxYvgs4kHVA9ouvH3DnB59fraGDw0vmlTkhcbq0/gJ+ZL2g/bK+Wwqig3dVYzCWsGZWjKUlt2Ys365Xi8t8H2HcNYcpmiq/ZcfHs8bjCvC3x7yiE696GgLO5zioLSwP2/yBiUPb4IEFrTYxaAkebNHn37T41Wx0wZYniABM+UPJLdjYnuCSBxBnsa9s0HT5Cr7whJkbQz8Un1QI2GEf7Hp0gwba0vrbcAdbth914ql1qD+9WLXqBdtX/OvRkoZRxIISkDfqkG6LhgEvBUtm42wMrsK9N04New5ZGmeAsbSMy5M9WTfdVzZS1IVS7QPGOIyNzXkvmDT6Mn2DH/Fn+bF6d93Z3XWlIRNx7sQycaJv8IAmNC2kdlR/YIvqWs/nYHuI3jQQTrp3B30A7oBlOFIO4MMyyheG6KjcovmW/LR9wX7Buaa3UJbur8t3wqfOsQK+jD7eQUOjYxL2xJyANpfL+gLWHJJPwdmGta6wwXgX5dmvPWNJ4PCAG7v1OtmzUaBsd8wP4P1JITif49i0sDxs82ec627JERiHgDUQxvXgljQEHHcNFb+3FwHX1V4En93e9fFsfs+IzjV0BsrexygE3qjXN8Y8Si93tON8jmPFwtI3f8Zh7JYmQMAaCBO4PrWLjvvU9N3WedfVbam5hWOuj1vQMLUTrqGp6Xud82/U6xtjfrKwnc9x7FpYPmTzp/WKKryquu415nHQtyzN6jfENJ//1kCAiPx4DAKO+zG41u/QQ57TjnfMfWPwcF2NwfGpVlwfe5idb37fE63V1jVkIdNz3zXUg9LIOm/U6xtjHqmZu9lyPscxYmH5kM2fcUC5pWcjYA2EZ0d9fXSO+/UcPNED19UTWR0Xk+tjHJZvteQaeivzc8b9Rr2+MeY51dnntfPZh1NPLQtL3/zpQc/rPAYBayA8JsCbBuK435SYyd1yXU1O4MHuuz4OBvgF5l1DLyD5QSG+Ua9vjPlBkhWhOJ8Cks03LCzj5k8o9D/HwDXgGnANuAZcA64B14BrwDXgGnANuAZcA64B18DcGtB2jvzNHw0Vv/dYBEIS83/nI+C4n4/5G3p0Xb2B5e0xuj62Y+ctEwKuIVfCTAi8Ua9vjHkmTa711flci5hd38LSN39szLzkgQhYA+GBod4qJMf9VnQ8xhnX1WOoPCQQ18chsL7KqGvoVXRPH+wb9frGmKcXaiMA57MBzsoiC0vf/FkJpFefGwFrIMwd1f29d9zvz9GMHrquZmTtPJ9dH+dh/dSeXENPZfaZcb1Rr2+M+ZnqTVE5n+PYtbD0zZ9xGLulCRCwBsIErk/touM+NX23dd51dVtqbuGY6+MWNEzthGtoavpe5/wb9frGmJ8sbOdzHLsWlr75Mw5jtzQBAtZAmMD1qV103Kem77bOu65uS80tHHN93IKGqZ1wDU1N3+ucf6Ne3xjzk4XtfI5j18LSN3/GYeyWJkDAGggTuD61i4771PTd1nnX1W2puYVjro9b0DC1E66hqel7nfNv1OsbY36ysJ3PcexaWPrmzziM3dIECFgDYQLXp3bRcZ+avts677q6LTW3cMz1cQsapnbCNTQ1fa9z/o16fWPMTxa28zmOXQvLoZs///5+vz8/v9+/f9zx/76fn5/vz+/fVxT9+/v+/vx8f3OjZOPHsAN2sz3UDkq6j7nfAEz9+3z/QwaqL6jOB9f4fr//fUxfu9qj/pqnsZ/gB/UxtUl4AIbxXqyv1Q2lsn71VeMPPNuDe20LeHMoSy8fhHfgx6oIDVYcrYGwwsSmqhVfFBuLS63TGk9Iu8xU9FHY0yptimZ9o6twX/R05Tip9v59/34TlxqsAvvIFR5btT2MB3FEhoU9VFZ9ap8JG8InyGc1H1eLefxu6LfaGH92W101QlV5QLimcqwVMJY5OGsehTkH+QaezHK8VB+T5JbI5SiulXVVWpesyXe8rjYWzlPgpRo6L0xjLdu/bvua3K8JopP7pb6inq/VzZqoR9bdrVcFW/7csTSHxXgaHHS1XwHK7phX9OVVj0fA+RyHsYXl0M0fSP5kEyLEUJKJkoxZgsBJQdjJePTUaUH3X95c4GvaaBctrPk1bJqQTSzmf+oXJjAeL0yk1qaM7TWOWW6GJLsEr+iX1Y+sj+0TO8ilnjqoOjkNmGO8Ewccn4wb4oAYGXBhDYQBppsmerSU8KWcSZwSRhJLim+yhfHN2sMNmx6PLbwK98UoVo6TYi+3+4RcomCqcZnuUZ6oPcxXKfmO4rLXp6Q5qkOtbfXwurPb6qoBScSS5Lg8NuFeni9FHj5tHoX5K29UK/puhHerokv1MUFu+X7HcZ3yBs9vyb7QcsRGy3fZHxgLQU1B9/j6ZIVdqqEzYxWcJC7w8Nc5DvtG2gchBvdmTH3cd/UlYjE7fVzBHr3q2IYh+Es+vOfXVz4bBQL3xPw4ATwgIOdzHIkWlmM3f2AhwSbqlCh+yRs+EFpMNqh+rPvz+f7Ft4joA0hqAxPKX3ybSCwqwLBxTPa1RYdsIBNcToL4bQxlkmn2AQt4PKPKrsUdigv3X27mpDeSNPyCaVmf2tfa7cNdCUjoAXxg71aJpntuWANhj82etjE2pPPQJsVbuVTjtx4EcaeijuS39qdxi40dc34V7ovRxPFrYaLjGGzGvBXGsNFe5TKPO22zyH6DUPdBt9+OVm+T7BOfeI4S+mr3c2bpbXXVACHy0MwFykMQ5Ivf4+fRpJOQl7IfK+eqRuinF12qDyM3JBD0cR3KzssteA7ayXWMlW/8NOiO9evcV2vauNQ6555dqqEzQzU5QU5oc8Fa7pE5etrBfW9fPbHQzh9ztVWvNe8vQ7E8h8FbxHSMN/vg645lN0qNrTEXA35yKwScz3F0WFgO3vyBxQR9mEqLmb/0NQmykJTJPiWHz/e/nAhI9YBHSeqy7TJc6xY4WoKr/efeij/Q+3IfEQ/161tgQx4LLuoGm4JF9IvyUK3K+sX+IbjXnsuZ6CfhtnYzr9jrPLEGQmfzzdV6tFQ4wL0InHBhPs91CnZWm6iJFQt0pautt67CfdHfleMk2UvjJ+UmOZZCHZVLZdO1+CfySC4ZyOUan1JdtAHANiuK3xef3FZXDVwithxPxr/G1fnz6PJc1gjzFkWX6uPuuYUwtIfr3JZrmthnF0zvtTTlU7IZXQsvObtUQ2dGbHKCnOBrDXU9iuqvOl3ifoXOemJZ5ds8lbfpdd3475nDxLMSaEU81FVstzwbhdbbYq79+tm9EHA+x/FhYTl88we+4lXHd31QEgvaOJFoO8Nh00JPRmkBHN4N0R+6mpCJiatZW7zqGGqnGJDPYpJZ9kvYaLsRSwl2sU/8EK/0Gets2Pw5AncRnzaJ5xg+n/hGUBBs+kNYCzvrb1gDYb2ldS0if2xxzHVAOM7muyZDrgehyWzM2khYF8qm2lfhvujsynES7bE2kSOVWzr+EpeGni3OrPsbuLT1pfmUx6j2u0CLoJ5X4ba6akDQkwvuMY/qc3AjtNsVXaoPlicoOMqcHSqwNofmFuLQHq5TLKs2bKy8VtZYYf7X8hJx+pSLSzV0SoS5kwYnxY1YR649V3FfjMmTNEdZ3K/QWU8ssvtH3Nmk14mfjQJpm2J+BNvPDML5HMerheX4zR/+1YaYhPNDEHtg0R5GyD2ewEl7Y/HUwoy0TxXrZJM3G9BDXCxD17AgJxOd4WN5C0PxJ/W5bmFDcIlrxOAvPFwqWGDchQ+yPrFvxNR600F0IW7gh0nsO1TMEzvGGzaiSpxQd/vRGgjbLfa17NFS4iDrsGx+aT++i/tUcOP8QXVF/1B09PEq3BfjWjlOym9k1N1t9DZi7U3lErepVdOZxZl1fwOX23zSf9OIu3/V9W111QCkJxfAhxtlrsE6ZdwnXmEuSB2Te1xDpL2cC6rrezYEqpUrzy7VB+ZMgKDhruDNuSObI2iu2JJbiE9K36S8daHF0qoPm1yNNVDWaODv6k2gSzW0AOPQYkVr1L6y1tjyISw1Kq9M7lfobDEW2e1T7mzSK5kTEhJivYDW5l1zGOcg9zH62Sh4uynmpxD+wDicz3GkWlgesPmTv7OeEwVNEmmBkQa/vtggi1Y2sVBbKyYCwHEh+fBP2ZIvaIGl/e9iPMExn6FrfKQx4hL7XLQhsShYRL/oA0G1LutT+7Q8lpXET8uqzXVnqT+8sWHYjXHgT5rW9cNrWwOB1xt9DfGG/uGPT4KUg+xB5pn8yDhyTn2bRGiS2mo9JyDTQ0+vwn0xiJXjBDaAKYZSu5xL4J+2Q95ZnFn3sy5Me8g0nK7zKcUEWl3TD/R3xvG2umoED1oAbMOR54LQHM9HsU3JwWfNo/oc3QjtdkWX6uPuuYWwtYfrnCvWJAkrrxGf4k5XfhPYWsvwBuOvL9XQ+HBsiwucqGsN/mGvbX19Cax9yod/K3S2EMt6Z+ZpsUmv5HlCxornolDaNYcJDuQ6iffE1yi83LreFLNlzO9fjoDzOY4CC8tDNn/qdz3xIjUFU5NISgR8vcAHf5pwwsTPEwe/7gErtSmfprIm1bdUQBfcrDJcigS3vIji/YCp1pHjEuqme+HTMwUL4Reyrjw4cvtjcUd9l9OME5vYxUOQ4msxseHEGggbTK1q0qMlzgF0UHmGO+mYOFI+PbUwa2mCmh5+dRXui4G0MFFwTFzUDbwQV/2rDygal81xb/mh+BBjsuo3Al7jUx3/eROijNNGBxcU3VZXDSwiD2Ujp1GxcHzVPLo8lzW8v0XRpfoo/ClQKOP69NxC3NrDdW7bo2nos4UN1IFjrDvuAyAw23u8VEO9To6o1+DEXGvA29lruF/jK+F+hc4asazpfsa62/Q677NR4GhbzDOy+w6fnc9xPFtYHrP5UzZq0v/IRTZ4ICn/fdDXlmqg4gEFFkkfXl/Z8KhmzLNkX3lgZp+0BgNdi3SI51/t0p4o6ydZYpOjNlfPBC6xFiTsj/yfzwA37b/OUnwW9qH9INxlUHwi59e5heKrtNV/xxoI/Ra21ezRkuAgd5XuU80mjVkLYn1sWPa3RbSu1VW4L3oJOu8aJ1mjJKHlHqJOKx8q1qwO8c3U+Tguu33imOTrtTmLxHfQxW111Yg38tD1sATcXzWPNvTeiO9ORZfqg48jDIwY7w2sWd7oHsfQn+gLCvCx0T+uZpwnn2r+M6rV210+5eotHKvFw84u1dBhUSmGDU7aaw34EHIF90rX5i3GfbfOjFjMfh5UsFWvCVu6zgRYogbQnBXromuoR44KB0c8G4U+t8ZM/PWL2yDgfI6jwsLyoM0f+LQ4fCpePw1P4eQNi/CJufIQlRIQbpMXJaI+LIzRrksXXtUe7T7fRwlta4Irv9fAY88TmfUVnpb7EpdcOybY9PYBfzhTEy34QIPPbxEdhXvgCtuG7/yzrzvkWKprWSv1RguirjJrIHQ13lGpR0s6xxKDVK+92BLcZ965RnaEtKrpVbj3OCmwCo20cSL0ia1TnnQuZY4pFpSFEpQJ/zZy2eeT7mNqqy8Mwc8rjnfWlYVHxBLNM1a9cD9xf9U8mrUwMP+2Yj2i7Gp9iLEbgrxRbqmY7+U6t/+R81LAQMw7Vr4L98nYALts/VAdP/zsag0dHiB0oHCS8r7kFJqkI3Ak66nc08b1qov7zr6UWGpHzz7brlcL23wfjcuuOUzlIK+T+PMA5ETUxxqWtse8phevexYCzuc4pC0sD9v8gUlD2+CBBa1YEMDbNiwxgC26Bk1JRLPRBVtMTPgrGz9s0bH9zR/oH+IM4MPfVn8TBvoCCPqh+CQvADvoPxztetQ+tKX1t+EOtvr8qHhp+gF8txxD/1f8i/EvTGwaRhEvQgBMngijoi/6cA66AMy3am8EXlfh3uu7hj2BvTyI0zGC7Se8U3myJ+um+5SnaENdKFXrI7js8cn0D37bYUHD1ZI451QAAAKWSURBVONzzu6uKw2FiHEnjokP/YMS0IQ2rjWuwRbVtcznUA/yRj1KPWvx3eneHfSh4Uk5gE0+G9+jcovmW+Lb9qXFr2ZP02f9aQBpTdjoHCvS0pg7d9DQmEgWrIg5qH+tESwL3ozfMmt5IWwY3It6vC9tfc/rtByZuGy3XjXsGA8Rf3ZPQCb0VGvA3JVyTVrLqnmiNmme7Y65ad0Lz0bA+RyHuIXlYZs/41x3S47AOASsgTCuB7ekIeC4a6j4vb0IuK72Ivjs9q6PZ/N7RnSuoTNQ9j5GIfBGvb4x5lF6uaMd53McKxaWvvkzDmO3NAEC1kCYwPWpXXTcp6bvts67rm5LzS0cc33cgoapnXANTU3f65x/o17fGPOThe18jmPXwvIhmz+t11Ph6zHbXmMeR4FmaVa/IZb5/LcGAkTkx2MQcNyPwbX+vhjkOe14x9w3Bg/X1Rgcn2rF9bGH2fnm9z3RWm1dQxYyvfddR71Ijaj3Rr2+MeYRWrmrDedzHDMWlg/Z/BkHlFt6NgLWQHh21NdH57hfz8ETPXBdPZHVcTG5PsZh+VZLrqG3Mj9n3G/U6xtjnlOdfV47n3049dSysPTNnx70vM5jELAGwmMCvGkgjvtNiZncLdfV5AQe7L7r42CAX2DeNfQCkh8U4hv1+saYHyRZEYrzKSDZfMPCMm7+hEL/cwxcA64B14BrwDXgGnANuAZcA64B14BrwDXgGnANzK0Bbefomv/3WvPE7zkCjoAj4Ag4Ao6AI+AIOAKOgCPgCDgCjoAj4AgMR8A3f4ZD6gYdAUfAEXAEHAFHwBFwBBwBR8ARcAQcAUfAEbgPAr75cx8u3BNHwBFwBBwBR8ARcAQcAUfAEXAEHAFHwBFwBIYj8D/HjrV+vge6BAAAAABJRU5ErkJggg==;" vertex="1" parent="1">
          <mxGeometry x="30" y="20" width="1151" height="460" as="geometry" />
        </mxCell>
      </root>
    </mxGraphModel>
  </diagram>
</mxfile>
